M48
;DRILL file {KiCad 4.0.5} date 07/06/17 21:13:01
;FORMAT={-:-/ absolute / inch / decimal}
FMAT,2
INCH,TZ
T1C0.008
T2C0.020
T3C0.022
%
G90
G05
M72
T1
X5.274Y-3.206
X5.285Y-3.549
X5.29Y-2.651
X5.296Y-3.233
X5.306Y-3.119
X5.31Y-3.198
X5.319Y-3.152
X5.321Y-2.808
X5.323Y-3.419
X5.325Y-2.643
X5.338Y-3.032
X5.339Y-3.061
X5.351Y-3.635
X5.352Y-2.919
X5.357Y-2.823
X5.365Y-3.942
X5.387Y-3.504
X5.399Y-2.655
X5.4307Y-3.0872
X5.441Y-3.284
X5.444Y-3.209
X5.45Y-3.975
X5.453Y-3.577
X5.454Y-3.816
X5.47Y-3.246
X5.478Y-3.956
X5.486Y-3.829
X5.488Y-3.87
X5.492Y-3.808
X5.495Y-3.089
X5.498Y-3.551
X5.4985Y-3.609
X5.536Y-3.09
X5.536Y-3.661
X5.55Y-3.61
X5.554Y-3.159
X5.554Y-3.201
X5.5565Y-3.5641
X5.57Y-3.656
X5.57Y-3.973
X5.575Y-4.1544
X5.59Y-3.904
X5.597Y-3.089
X5.6Y-3.519
X5.6184Y-3.1496
X5.626Y-3.521
X5.628Y-3.831
X5.633Y-3.128
X5.634Y-3.906
X5.642Y-3.695
X5.6444Y-3.5162
X5.646Y-3.229
X5.658Y-3.743
X5.665Y-3.658
X5.685Y-3.519
X5.695Y-3.024
X5.696Y-2.994
X5.697Y-2.81
X5.698Y-3.065
X5.7Y-3.191
X5.705Y-2.841
X5.706Y-3.412
X5.706Y-3.462
X5.708Y-3.359
X5.709Y-3.336
X5.711Y-3.384
X5.721Y-3.733
X5.736Y-3.681
X5.737Y-3.529
X5.738Y-3.584
T2
X5.3622Y-4.1509G85X5.3622Y-4.1254
G05
X5.6378Y-4.1509G85X5.6378Y-4.1254
G05
T3
X5.3957Y-4.0319G85X5.4075Y-4.0319
G05
X5.5925Y-4.0319G85X5.6043Y-4.0319
G05
T0
M30
