G04 #@! TF.FileFunction,Other,Fab,Bot*
%FSLAX46Y46*%
G04 Gerber Fmt 4.6, Leading zero omitted, Abs format (unit mm)*
G04 Created by KiCad (PCBNEW 4.0.5) date 07/06/17 21:13:05*
%MOMM*%
%LPD*%
G01*
G04 APERTURE LIST*
%ADD10C,0.100000*%
%ADD11C,0.150000*%
%ADD12C,0.050000*%
%ADD13C,0.063500*%
%ADD14C,0.075000*%
G04 APERTURE END LIST*
D10*
X137789960Y-93039160D02*
X135339960Y-93039160D01*
X138359960Y-92489160D02*
X138359960Y-91639160D01*
X137789960Y-93039160D02*
X138359960Y-92489160D01*
X138359960Y-91639160D02*
X135319960Y-91639160D01*
X135319960Y-93039160D02*
X135319960Y-91639160D01*
X136677120Y-87647640D02*
X136677120Y-87947640D01*
X137277120Y-87647640D02*
X136677120Y-87647640D01*
X137277120Y-87947640D02*
X137277120Y-87647640D01*
X136677120Y-87947640D02*
X137277120Y-87947640D01*
X134239000Y-93703800D02*
X134239000Y-93503800D01*
X134239000Y-94003800D02*
X134239000Y-94203800D01*
X134439000Y-94003800D02*
X134039000Y-94003800D01*
X134039000Y-93703800D02*
X134439000Y-93703800D01*
X134239000Y-94003800D02*
X134039000Y-93703800D01*
X134439000Y-93703800D02*
X134239000Y-94003800D01*
X133789000Y-94703800D02*
X134689000Y-94703800D01*
X133789000Y-93103800D02*
X133789000Y-94703800D01*
X134689000Y-93103800D02*
X133789000Y-93103800D01*
X134689000Y-94703800D02*
X134689000Y-93103800D01*
X136017000Y-88014200D02*
X136017000Y-87814200D01*
X136017000Y-88314200D02*
X136017000Y-88514200D01*
X136217000Y-88314200D02*
X135817000Y-88314200D01*
X135817000Y-88014200D02*
X136217000Y-88014200D01*
X136017000Y-88314200D02*
X135817000Y-88014200D01*
X136217000Y-88014200D02*
X136017000Y-88314200D01*
X135567000Y-89014200D02*
X136467000Y-89014200D01*
X135567000Y-87414200D02*
X135567000Y-89014200D01*
X136467000Y-87414200D02*
X135567000Y-87414200D01*
X136467000Y-89014200D02*
X136467000Y-87414200D01*
D11*
X135818571Y-71366239D02*
X135866190Y-71509096D01*
X135913810Y-71556715D01*
X136009048Y-71604334D01*
X136151905Y-71604334D01*
X136247143Y-71556715D01*
X136294762Y-71509096D01*
X136342381Y-71413858D01*
X136342381Y-71032905D01*
X135342381Y-71032905D01*
X135342381Y-71366239D01*
X135390000Y-71461477D01*
X135437619Y-71509096D01*
X135532857Y-71556715D01*
X135628095Y-71556715D01*
X135723333Y-71509096D01*
X135770952Y-71461477D01*
X135818571Y-71366239D01*
X135818571Y-71032905D01*
X135342381Y-72032905D02*
X136151905Y-72032905D01*
X136247143Y-72080524D01*
X136294762Y-72128143D01*
X136342381Y-72223381D01*
X136342381Y-72413858D01*
X136294762Y-72509096D01*
X136247143Y-72556715D01*
X136151905Y-72604334D01*
X135342381Y-72604334D01*
X135342381Y-72985286D02*
X135342381Y-73651953D01*
X136342381Y-72985286D01*
X136342381Y-73651953D01*
X135342381Y-73937667D02*
X135342381Y-74604334D01*
X136342381Y-73937667D01*
X136342381Y-74604334D01*
D12*
X136489913Y-67098876D02*
X136375628Y-67098876D01*
X136432771Y-67298876D02*
X136432771Y-67098876D01*
X136194675Y-67279829D02*
X136204199Y-67289352D01*
X136232770Y-67298876D01*
X136251818Y-67298876D01*
X136280390Y-67289352D01*
X136299437Y-67270305D01*
X136308961Y-67251257D01*
X136318485Y-67213162D01*
X136318485Y-67184590D01*
X136308961Y-67146495D01*
X136299437Y-67127448D01*
X136280390Y-67108400D01*
X136251818Y-67098876D01*
X136232770Y-67098876D01*
X136204199Y-67108400D01*
X136194675Y-67117924D01*
X136118485Y-67117924D02*
X136108961Y-67108400D01*
X136089913Y-67098876D01*
X136042294Y-67098876D01*
X136023247Y-67108400D01*
X136013723Y-67117924D01*
X136004199Y-67136971D01*
X136004199Y-67156019D01*
X136013723Y-67184590D01*
X136128009Y-67298876D01*
X136004199Y-67298876D01*
X135880390Y-67098876D02*
X135861342Y-67098876D01*
X135842294Y-67108400D01*
X135832771Y-67117924D01*
X135823247Y-67136971D01*
X135813723Y-67175067D01*
X135813723Y-67222686D01*
X135823247Y-67260781D01*
X135832771Y-67279829D01*
X135842294Y-67289352D01*
X135861342Y-67298876D01*
X135880390Y-67298876D01*
X135899437Y-67289352D01*
X135908961Y-67279829D01*
X135918485Y-67260781D01*
X135928009Y-67222686D01*
X135928009Y-67175067D01*
X135918485Y-67136971D01*
X135908961Y-67117924D01*
X135899437Y-67108400D01*
X135880390Y-67098876D01*
X135747057Y-67098876D02*
X135623247Y-67098876D01*
X135689914Y-67175067D01*
X135661342Y-67175067D01*
X135642295Y-67184590D01*
X135632771Y-67194114D01*
X135623247Y-67213162D01*
X135623247Y-67260781D01*
X135632771Y-67279829D01*
X135642295Y-67289352D01*
X135661342Y-67298876D01*
X135718485Y-67298876D01*
X135737533Y-67289352D01*
X135747057Y-67279829D01*
X135499438Y-67098876D02*
X135480390Y-67098876D01*
X135461342Y-67108400D01*
X135451819Y-67117924D01*
X135442295Y-67136971D01*
X135432771Y-67175067D01*
X135432771Y-67222686D01*
X135442295Y-67260781D01*
X135451819Y-67279829D01*
X135461342Y-67289352D01*
X135480390Y-67298876D01*
X135499438Y-67298876D01*
X135518485Y-67289352D01*
X135528009Y-67279829D01*
X135537533Y-67260781D01*
X135547057Y-67222686D01*
X135547057Y-67175067D01*
X135537533Y-67136971D01*
X135528009Y-67117924D01*
X135518485Y-67108400D01*
X135499438Y-67098876D01*
X135347057Y-67222686D02*
X135194676Y-67222686D01*
X135099438Y-67298876D02*
X135099438Y-67098876D01*
X135032771Y-67241733D01*
X134966105Y-67098876D01*
X134966105Y-67298876D01*
X134756581Y-67279829D02*
X134766105Y-67289352D01*
X134794676Y-67298876D01*
X134813724Y-67298876D01*
X134842296Y-67289352D01*
X134861343Y-67270305D01*
X134870867Y-67251257D01*
X134880391Y-67213162D01*
X134880391Y-67184590D01*
X134870867Y-67146495D01*
X134861343Y-67127448D01*
X134842296Y-67108400D01*
X134813724Y-67098876D01*
X134794676Y-67098876D01*
X134766105Y-67108400D01*
X134756581Y-67117924D01*
X134670867Y-67298876D02*
X134670867Y-67098876D01*
X134594676Y-67098876D01*
X134575629Y-67108400D01*
X134566105Y-67117924D01*
X134556581Y-67136971D01*
X134556581Y-67165543D01*
X134566105Y-67184590D01*
X134575629Y-67194114D01*
X134594676Y-67203638D01*
X134670867Y-67203638D01*
X134470867Y-67222686D02*
X134318486Y-67222686D01*
X134223248Y-67298876D02*
X134223248Y-67098876D01*
X134108962Y-67298876D01*
X134108962Y-67098876D01*
X133918486Y-67298876D02*
X134013724Y-67298876D01*
X134013724Y-67098876D01*
D13*
X143390714Y-105657952D02*
X143402810Y-105645857D01*
X143414905Y-105609571D01*
X143414905Y-105585381D01*
X143402810Y-105549095D01*
X143378619Y-105524904D01*
X143354429Y-105512809D01*
X143306048Y-105500714D01*
X143269762Y-105500714D01*
X143221381Y-105512809D01*
X143197190Y-105524904D01*
X143173000Y-105549095D01*
X143160905Y-105585381D01*
X143160905Y-105609571D01*
X143173000Y-105645857D01*
X143185095Y-105657952D01*
X143160905Y-105815190D02*
X143160905Y-105863571D01*
X143173000Y-105887762D01*
X143197190Y-105911952D01*
X143245571Y-105924047D01*
X143330238Y-105924047D01*
X143378619Y-105911952D01*
X143402810Y-105887762D01*
X143414905Y-105863571D01*
X143414905Y-105815190D01*
X143402810Y-105791000D01*
X143378619Y-105766809D01*
X143330238Y-105754714D01*
X143245571Y-105754714D01*
X143197190Y-105766809D01*
X143173000Y-105791000D01*
X143160905Y-105815190D01*
X143414905Y-106032904D02*
X143160905Y-106032904D01*
X143414905Y-106178047D01*
X143160905Y-106178047D01*
X143414905Y-106298999D02*
X143160905Y-106298999D01*
X143414905Y-106444142D01*
X143160905Y-106444142D01*
X143439095Y-106504618D02*
X143439095Y-106698142D01*
X143160905Y-106806999D02*
X143160905Y-106831190D01*
X143173000Y-106855380D01*
X143185095Y-106867475D01*
X143209286Y-106879571D01*
X143257667Y-106891666D01*
X143318143Y-106891666D01*
X143366524Y-106879571D01*
X143390714Y-106867475D01*
X143402810Y-106855380D01*
X143414905Y-106831190D01*
X143414905Y-106806999D01*
X143402810Y-106782809D01*
X143390714Y-106770713D01*
X143366524Y-106758618D01*
X143318143Y-106746523D01*
X143257667Y-106746523D01*
X143209286Y-106758618D01*
X143185095Y-106770713D01*
X143173000Y-106782809D01*
X143160905Y-106806999D01*
X143414905Y-107133571D02*
X143414905Y-106988428D01*
X143414905Y-107060999D02*
X143160905Y-107060999D01*
X143197190Y-107036809D01*
X143221381Y-107012618D01*
X143233476Y-106988428D01*
X143160905Y-107218238D02*
X143414905Y-107387571D01*
X143160905Y-107387571D02*
X143414905Y-107218238D01*
X143160905Y-107532714D02*
X143160905Y-107556905D01*
X143173000Y-107581095D01*
X143185095Y-107593190D01*
X143209286Y-107605286D01*
X143257667Y-107617381D01*
X143318143Y-107617381D01*
X143366524Y-107605286D01*
X143390714Y-107593190D01*
X143402810Y-107581095D01*
X143414905Y-107556905D01*
X143414905Y-107532714D01*
X143402810Y-107508524D01*
X143390714Y-107496428D01*
X143366524Y-107484333D01*
X143318143Y-107472238D01*
X143257667Y-107472238D01*
X143209286Y-107484333D01*
X143185095Y-107496428D01*
X143173000Y-107508524D01*
X143160905Y-107532714D01*
X143160905Y-107702048D02*
X143160905Y-107859286D01*
X143257667Y-107774619D01*
X143257667Y-107810905D01*
X143269762Y-107835095D01*
X143281857Y-107847191D01*
X143306048Y-107859286D01*
X143366524Y-107859286D01*
X143390714Y-107847191D01*
X143402810Y-107835095D01*
X143414905Y-107810905D01*
X143414905Y-107738333D01*
X143402810Y-107714143D01*
X143390714Y-107702048D01*
D11*
X134887579Y-88958208D02*
X134839960Y-88862970D01*
X134744722Y-88767732D01*
X134601865Y-88624875D01*
X134554246Y-88529636D01*
X134554246Y-88434398D01*
X134792341Y-88482017D02*
X134744722Y-88386779D01*
X134649484Y-88291541D01*
X134459008Y-88243922D01*
X134125674Y-88243922D01*
X133935198Y-88291541D01*
X133839960Y-88386779D01*
X133792341Y-88482017D01*
X133792341Y-88672494D01*
X133839960Y-88767732D01*
X133935198Y-88862970D01*
X134125674Y-88910589D01*
X134459008Y-88910589D01*
X134649484Y-88862970D01*
X134744722Y-88767732D01*
X134792341Y-88672494D01*
X134792341Y-88482017D01*
X134887579Y-89101065D02*
X134887579Y-89862970D01*
X134792341Y-90101065D02*
X133792341Y-90101065D01*
X134792341Y-90672494D01*
X133792341Y-90672494D01*
X134792341Y-91148684D02*
X133792341Y-91148684D01*
X133792341Y-91529637D01*
X133839960Y-91624875D01*
X133887579Y-91672494D01*
X133982817Y-91720113D01*
X134125674Y-91720113D01*
X134220912Y-91672494D01*
X134268531Y-91624875D01*
X134316150Y-91529637D01*
X134316150Y-91148684D01*
X134792341Y-92148684D02*
X133792341Y-92148684D01*
X134792341Y-92720113D01*
X133792341Y-92720113D01*
X134887579Y-92958208D02*
X134887579Y-93720113D01*
X134268531Y-94291542D02*
X134316150Y-94434399D01*
X134363770Y-94482018D01*
X134459008Y-94529637D01*
X134601865Y-94529637D01*
X134697103Y-94482018D01*
X134744722Y-94434399D01*
X134792341Y-94339161D01*
X134792341Y-93958208D01*
X133792341Y-93958208D01*
X133792341Y-94291542D01*
X133839960Y-94386780D01*
X133887579Y-94434399D01*
X133982817Y-94482018D01*
X134078055Y-94482018D01*
X134173293Y-94434399D01*
X134220912Y-94386780D01*
X134268531Y-94291542D01*
X134268531Y-93958208D01*
X134697103Y-95529637D02*
X134744722Y-95482018D01*
X134792341Y-95339161D01*
X134792341Y-95243923D01*
X134744722Y-95101065D01*
X134649484Y-95005827D01*
X134554246Y-94958208D01*
X134363770Y-94910589D01*
X134220912Y-94910589D01*
X134030436Y-94958208D01*
X133935198Y-95005827D01*
X133839960Y-95101065D01*
X133792341Y-95243923D01*
X133792341Y-95339161D01*
X133839960Y-95482018D01*
X133887579Y-95529637D01*
X134268531Y-95958208D02*
X134268531Y-96291542D01*
X134792341Y-96434399D02*
X134792341Y-95958208D01*
X133792341Y-95958208D01*
X133792341Y-96434399D01*
D14*
X137113770Y-92291541D02*
X137089960Y-92243922D01*
X137042341Y-92196303D01*
X136970912Y-92124874D01*
X136947103Y-92077255D01*
X136947103Y-92029636D01*
X137066150Y-92053446D02*
X137042341Y-92005827D01*
X136994722Y-91958208D01*
X136899484Y-91934398D01*
X136732817Y-91934398D01*
X136637579Y-91958208D01*
X136589960Y-92005827D01*
X136566150Y-92053446D01*
X136566150Y-92148684D01*
X136589960Y-92196303D01*
X136637579Y-92243922D01*
X136732817Y-92267731D01*
X136899484Y-92267731D01*
X136994722Y-92243922D01*
X137042341Y-92196303D01*
X137066150Y-92148684D01*
X137066150Y-92053446D01*
X136613770Y-92458208D02*
X136589960Y-92482018D01*
X136566150Y-92529637D01*
X136566150Y-92648684D01*
X136589960Y-92696303D01*
X136613770Y-92720113D01*
X136661389Y-92743922D01*
X136709008Y-92743922D01*
X136780436Y-92720113D01*
X137066150Y-92434399D01*
X137066150Y-92743922D01*
D11*
X138262834Y-85950021D02*
X137643786Y-85950021D01*
X137977120Y-86330973D01*
X137834262Y-86330973D01*
X137739024Y-86378592D01*
X137691405Y-86426211D01*
X137643786Y-86521450D01*
X137643786Y-86759545D01*
X137691405Y-86854783D01*
X137739024Y-86902402D01*
X137834262Y-86950021D01*
X138119977Y-86950021D01*
X138215215Y-86902402D01*
X138262834Y-86854783D01*
X137310453Y-85950021D02*
X136691405Y-85950021D01*
X137024739Y-86330973D01*
X136881881Y-86330973D01*
X136786643Y-86378592D01*
X136739024Y-86426211D01*
X136691405Y-86521450D01*
X136691405Y-86759545D01*
X136739024Y-86854783D01*
X136786643Y-86902402D01*
X136881881Y-86950021D01*
X137167596Y-86950021D01*
X137262834Y-86902402D01*
X137310453Y-86854783D01*
X136072358Y-85950021D02*
X135977119Y-85950021D01*
X135881881Y-85997640D01*
X135834262Y-86045259D01*
X135786643Y-86140497D01*
X135739024Y-86330973D01*
X135739024Y-86569069D01*
X135786643Y-86759545D01*
X135834262Y-86854783D01*
X135881881Y-86902402D01*
X135977119Y-86950021D01*
X136072358Y-86950021D01*
X136167596Y-86902402D01*
X136215215Y-86854783D01*
X136262834Y-86759545D01*
X136310453Y-86569069D01*
X136310453Y-86330973D01*
X136262834Y-86140497D01*
X136215215Y-86045259D01*
X136167596Y-85997640D01*
X136072358Y-85950021D01*
X137143786Y-89500021D02*
X137477120Y-89023830D01*
X137715215Y-89500021D02*
X137715215Y-88500021D01*
X137334262Y-88500021D01*
X137239024Y-88547640D01*
X137191405Y-88595259D01*
X137143786Y-88690497D01*
X137143786Y-88833354D01*
X137191405Y-88928592D01*
X137239024Y-88976211D01*
X137334262Y-89023830D01*
X137715215Y-89023830D01*
X136286643Y-88833354D02*
X136286643Y-89500021D01*
X136524739Y-88452402D02*
X136762834Y-89166688D01*
X136143786Y-89166688D01*
X139858333Y-89225381D02*
X139858333Y-88225381D01*
X139477380Y-88225381D01*
X139382142Y-88273000D01*
X139334523Y-88320619D01*
X139286904Y-88415857D01*
X139286904Y-88558714D01*
X139334523Y-88653952D01*
X139382142Y-88701571D01*
X139477380Y-88749190D01*
X139858333Y-88749190D01*
X139096428Y-89320619D02*
X138334523Y-89320619D01*
X138144047Y-89177762D02*
X138001190Y-89225381D01*
X137763094Y-89225381D01*
X137667856Y-89177762D01*
X137620237Y-89130143D01*
X137572618Y-89034905D01*
X137572618Y-88939667D01*
X137620237Y-88844429D01*
X137667856Y-88796810D01*
X137763094Y-88749190D01*
X137953571Y-88701571D01*
X138048809Y-88653952D01*
X138096428Y-88606333D01*
X138144047Y-88511095D01*
X138144047Y-88415857D01*
X138096428Y-88320619D01*
X138048809Y-88273000D01*
X137953571Y-88225381D01*
X137715475Y-88225381D01*
X137572618Y-88273000D01*
X137239285Y-88225381D02*
X137001190Y-89225381D01*
X136810713Y-88511095D01*
X136620237Y-89225381D01*
X136382142Y-88225381D01*
X136001190Y-89225381D02*
X136001190Y-88225381D01*
X135667857Y-88225381D02*
X135096428Y-88225381D01*
X135382143Y-89225381D02*
X135382143Y-88225381D01*
X134191666Y-89130143D02*
X134239285Y-89177762D01*
X134382142Y-89225381D01*
X134477380Y-89225381D01*
X134620238Y-89177762D01*
X134715476Y-89082524D01*
X134763095Y-88987286D01*
X134810714Y-88796810D01*
X134810714Y-88653952D01*
X134763095Y-88463476D01*
X134715476Y-88368238D01*
X134620238Y-88273000D01*
X134477380Y-88225381D01*
X134382142Y-88225381D01*
X134239285Y-88273000D01*
X134191666Y-88320619D01*
X133763095Y-89225381D02*
X133763095Y-88225381D01*
X133763095Y-88701571D02*
X133191666Y-88701571D01*
X133191666Y-89225381D02*
X133191666Y-88225381D01*
X144613381Y-74493572D02*
X145613381Y-74826905D01*
X144613381Y-75160239D01*
X145613381Y-75493572D02*
X144613381Y-75493572D01*
X145089571Y-76303096D02*
X145137190Y-76445953D01*
X145184810Y-76493572D01*
X145280048Y-76541191D01*
X145422905Y-76541191D01*
X145518143Y-76493572D01*
X145565762Y-76445953D01*
X145613381Y-76350715D01*
X145613381Y-75969762D01*
X144613381Y-75969762D01*
X144613381Y-76303096D01*
X144661000Y-76398334D01*
X144708619Y-76445953D01*
X144803857Y-76493572D01*
X144899095Y-76493572D01*
X144994333Y-76445953D01*
X145041952Y-76398334D01*
X145089571Y-76303096D01*
X145089571Y-75969762D01*
X133291381Y-90094275D02*
X132291381Y-90094275D01*
X132291381Y-90332370D01*
X132339000Y-90475228D01*
X132434238Y-90570466D01*
X132529476Y-90618085D01*
X132719952Y-90665704D01*
X132862810Y-90665704D01*
X133053286Y-90618085D01*
X133148524Y-90570466D01*
X133243762Y-90475228D01*
X133291381Y-90332370D01*
X133291381Y-90094275D01*
X133386619Y-90856180D02*
X133386619Y-91618085D01*
X133243762Y-91808561D02*
X133291381Y-91951418D01*
X133291381Y-92189514D01*
X133243762Y-92284752D01*
X133196143Y-92332371D01*
X133100905Y-92379990D01*
X133005667Y-92379990D01*
X132910429Y-92332371D01*
X132862810Y-92284752D01*
X132815190Y-92189514D01*
X132767571Y-91999037D01*
X132719952Y-91903799D01*
X132672333Y-91856180D01*
X132577095Y-91808561D01*
X132481857Y-91808561D01*
X132386619Y-91856180D01*
X132339000Y-91903799D01*
X132291381Y-91999037D01*
X132291381Y-92237133D01*
X132339000Y-92379990D01*
X133243762Y-93237133D02*
X133291381Y-93141895D01*
X133291381Y-92951418D01*
X133243762Y-92856180D01*
X133196143Y-92808561D01*
X133100905Y-92760942D01*
X132815190Y-92760942D01*
X132719952Y-92808561D01*
X132672333Y-92856180D01*
X132624714Y-92951418D01*
X132624714Y-93141895D01*
X132672333Y-93237133D01*
X133291381Y-93665704D02*
X132291381Y-93665704D01*
X133291381Y-94094276D02*
X132767571Y-94094276D01*
X132672333Y-94046657D01*
X132624714Y-93951419D01*
X132624714Y-93808561D01*
X132672333Y-93713323D01*
X132719952Y-93665704D01*
X133291381Y-94713323D02*
X133243762Y-94618085D01*
X133196143Y-94570466D01*
X133100905Y-94522847D01*
X132815190Y-94522847D01*
X132719952Y-94570466D01*
X132672333Y-94618085D01*
X132624714Y-94713323D01*
X132624714Y-94856181D01*
X132672333Y-94951419D01*
X132719952Y-94999038D01*
X132815190Y-95046657D01*
X133100905Y-95046657D01*
X133196143Y-94999038D01*
X133243762Y-94951419D01*
X133291381Y-94856181D01*
X133291381Y-94713323D01*
X132624714Y-95332371D02*
X132624714Y-95713323D01*
X132291381Y-95475228D02*
X133148524Y-95475228D01*
X133243762Y-95522847D01*
X133291381Y-95618085D01*
X133291381Y-95713323D01*
X132624714Y-95903800D02*
X132624714Y-96284752D01*
X132291381Y-96046657D02*
X133148524Y-96046657D01*
X133243762Y-96094276D01*
X133291381Y-96189514D01*
X133291381Y-96284752D01*
X133291381Y-96618086D02*
X132291381Y-96618086D01*
X132910429Y-96713324D02*
X133291381Y-96999039D01*
X132624714Y-96999039D02*
X133005667Y-96618086D01*
X132624714Y-97332372D02*
X133291381Y-97570467D01*
X132624714Y-97808563D02*
X133291381Y-97570467D01*
X133529476Y-97475229D01*
X133577095Y-97427610D01*
X133624714Y-97332372D01*
X136091381Y-93165705D02*
X135091381Y-93165705D01*
X135091381Y-93403800D01*
X135139000Y-93546658D01*
X135234238Y-93641896D01*
X135329476Y-93689515D01*
X135519952Y-93737134D01*
X135662810Y-93737134D01*
X135853286Y-93689515D01*
X135948524Y-93641896D01*
X136043762Y-93546658D01*
X136091381Y-93403800D01*
X136091381Y-93165705D01*
X136091381Y-94689515D02*
X136091381Y-94118086D01*
X136091381Y-94403800D02*
X135091381Y-94403800D01*
X135234238Y-94308562D01*
X135329476Y-94213324D01*
X135377095Y-94118086D01*
X135069381Y-84404675D02*
X134069381Y-84404675D01*
X134069381Y-84642770D01*
X134117000Y-84785628D01*
X134212238Y-84880866D01*
X134307476Y-84928485D01*
X134497952Y-84976104D01*
X134640810Y-84976104D01*
X134831286Y-84928485D01*
X134926524Y-84880866D01*
X135021762Y-84785628D01*
X135069381Y-84642770D01*
X135069381Y-84404675D01*
X135164619Y-85166580D02*
X135164619Y-85928485D01*
X135021762Y-86118961D02*
X135069381Y-86261818D01*
X135069381Y-86499914D01*
X135021762Y-86595152D01*
X134974143Y-86642771D01*
X134878905Y-86690390D01*
X134783667Y-86690390D01*
X134688429Y-86642771D01*
X134640810Y-86595152D01*
X134593190Y-86499914D01*
X134545571Y-86309437D01*
X134497952Y-86214199D01*
X134450333Y-86166580D01*
X134355095Y-86118961D01*
X134259857Y-86118961D01*
X134164619Y-86166580D01*
X134117000Y-86214199D01*
X134069381Y-86309437D01*
X134069381Y-86547533D01*
X134117000Y-86690390D01*
X135021762Y-87547533D02*
X135069381Y-87452295D01*
X135069381Y-87261818D01*
X135021762Y-87166580D01*
X134974143Y-87118961D01*
X134878905Y-87071342D01*
X134593190Y-87071342D01*
X134497952Y-87118961D01*
X134450333Y-87166580D01*
X134402714Y-87261818D01*
X134402714Y-87452295D01*
X134450333Y-87547533D01*
X135069381Y-87976104D02*
X134069381Y-87976104D01*
X135069381Y-88404676D02*
X134545571Y-88404676D01*
X134450333Y-88357057D01*
X134402714Y-88261819D01*
X134402714Y-88118961D01*
X134450333Y-88023723D01*
X134497952Y-87976104D01*
X135069381Y-89023723D02*
X135021762Y-88928485D01*
X134974143Y-88880866D01*
X134878905Y-88833247D01*
X134593190Y-88833247D01*
X134497952Y-88880866D01*
X134450333Y-88928485D01*
X134402714Y-89023723D01*
X134402714Y-89166581D01*
X134450333Y-89261819D01*
X134497952Y-89309438D01*
X134593190Y-89357057D01*
X134878905Y-89357057D01*
X134974143Y-89309438D01*
X135021762Y-89261819D01*
X135069381Y-89166581D01*
X135069381Y-89023723D01*
X134402714Y-89642771D02*
X134402714Y-90023723D01*
X134069381Y-89785628D02*
X134926524Y-89785628D01*
X135021762Y-89833247D01*
X135069381Y-89928485D01*
X135069381Y-90023723D01*
X134402714Y-90214200D02*
X134402714Y-90595152D01*
X134069381Y-90357057D02*
X134926524Y-90357057D01*
X135021762Y-90404676D01*
X135069381Y-90499914D01*
X135069381Y-90595152D01*
X135069381Y-90928486D02*
X134069381Y-90928486D01*
X134688429Y-91023724D02*
X135069381Y-91309439D01*
X134402714Y-91309439D02*
X134783667Y-90928486D01*
X134402714Y-91642772D02*
X135069381Y-91880867D01*
X134402714Y-92118963D02*
X135069381Y-91880867D01*
X135307476Y-91785629D01*
X135355095Y-91738010D01*
X135402714Y-91642772D01*
X137869381Y-86999914D02*
X136869381Y-86999914D01*
X136869381Y-87238009D01*
X136917000Y-87380867D01*
X137012238Y-87476105D01*
X137107476Y-87523724D01*
X137297952Y-87571343D01*
X137440810Y-87571343D01*
X137631286Y-87523724D01*
X137726524Y-87476105D01*
X137821762Y-87380867D01*
X137869381Y-87238009D01*
X137869381Y-86999914D01*
X137869381Y-88523724D02*
X137869381Y-87952295D01*
X137869381Y-88238009D02*
X136869381Y-88238009D01*
X137012238Y-88142771D01*
X137107476Y-88047533D01*
X137155095Y-87952295D01*
X137297952Y-89095152D02*
X137250333Y-88999914D01*
X137202714Y-88952295D01*
X137107476Y-88904676D01*
X137059857Y-88904676D01*
X136964619Y-88952295D01*
X136917000Y-88999914D01*
X136869381Y-89095152D01*
X136869381Y-89285629D01*
X136917000Y-89380867D01*
X136964619Y-89428486D01*
X137059857Y-89476105D01*
X137107476Y-89476105D01*
X137202714Y-89428486D01*
X137250333Y-89380867D01*
X137297952Y-89285629D01*
X137297952Y-89095152D01*
X137345571Y-88999914D01*
X137393190Y-88952295D01*
X137488429Y-88904676D01*
X137678905Y-88904676D01*
X137774143Y-88952295D01*
X137821762Y-88999914D01*
X137869381Y-89095152D01*
X137869381Y-89285629D01*
X137821762Y-89380867D01*
X137774143Y-89428486D01*
X137678905Y-89476105D01*
X137488429Y-89476105D01*
X137393190Y-89428486D01*
X137345571Y-89380867D01*
X137297952Y-89285629D01*
M02*
