G04 #@! TF.FileFunction,Soldermask,Top*
%FSLAX46Y46*%
G04 Gerber Fmt 4.6, Leading zero omitted, Abs format (unit mm)*
G04 Created by KiCad (PCBNEW 4.0.5) date 07/06/17 21:13:05*
%MOMM*%
%LPD*%
G01*
G04 APERTURE LIST*
%ADD10C,0.100000*%
%ADD11R,0.531600X0.381600*%
%ADD12R,0.501600X1.451600*%
%ADD13O,1.351600X1.051600*%
%ADD14O,1.101600X1.651600*%
%ADD15R,0.701600X0.801600*%
%ADD16R,0.701600X1.151600*%
%ADD17R,0.451600X0.601600*%
%ADD18R,0.901600X0.701600*%
%ADD19R,1.101600X0.355600*%
%ADD20R,0.355600X1.101600*%
%ADD21R,1.601600X1.601600*%
%ADD22R,0.451600X0.401600*%
%ADD23R,0.401600X0.451600*%
%ADD24R,0.851600X0.451600*%
%ADD25R,0.451600X0.851600*%
%ADD26R,0.381600X0.531600*%
%ADD27R,0.501600X0.451600*%
%ADD28R,0.601600X0.551600*%
%ADD29R,1.851600X2.601600*%
G04 APERTURE END LIST*
D10*
D11*
X139192000Y-92208000D03*
X139192000Y-91688000D03*
D12*
X138400000Y-102409000D03*
X139050000Y-102409000D03*
X139700000Y-102409000D03*
X140350000Y-102409000D03*
X141000000Y-102409000D03*
D13*
X137200000Y-102409000D03*
X142200000Y-102409000D03*
D14*
X136200000Y-105109000D03*
X143200000Y-105109000D03*
D15*
X136483000Y-93091000D03*
X137583000Y-93091000D03*
X136483000Y-88138000D03*
X137583000Y-88138000D03*
D16*
X136205000Y-83105000D03*
X135255000Y-83105000D03*
X134305000Y-83105000D03*
X134305000Y-85805000D03*
X135255000Y-85805000D03*
X136205000Y-85805000D03*
D17*
X135804000Y-79210000D03*
X136454000Y-79210000D03*
X137104000Y-79210000D03*
X137754000Y-79210000D03*
X137754000Y-80810000D03*
X137104000Y-80810000D03*
X136454000Y-80810000D03*
X135804000Y-80810000D03*
D11*
X139319000Y-78937200D03*
X139319000Y-79457200D03*
D18*
X134239000Y-87110200D03*
X134239000Y-88810200D03*
X144780000Y-81876000D03*
X144780000Y-80176000D03*
D19*
X137046000Y-68321000D03*
X137046000Y-68821000D03*
X137046000Y-69321000D03*
X137046000Y-69821000D03*
X137046000Y-70321000D03*
X137046000Y-77321000D03*
X137046000Y-70821000D03*
X137046000Y-71321000D03*
X137046000Y-71821000D03*
X137046000Y-72321000D03*
X137046000Y-72821000D03*
X137046000Y-73321000D03*
X137046000Y-73821000D03*
X137046000Y-74321000D03*
X137046000Y-74821000D03*
X137046000Y-75321000D03*
X137046000Y-75821000D03*
X137046000Y-76321000D03*
X137046000Y-76821000D03*
D20*
X138101000Y-77611000D03*
X138601000Y-77611000D03*
X139101000Y-77611000D03*
X139601000Y-77611000D03*
X140101000Y-77611000D03*
X140601000Y-77611000D03*
X141101000Y-77611000D03*
X141601000Y-77611000D03*
X142101000Y-77611000D03*
X142601000Y-77611000D03*
D19*
X143656000Y-77321000D03*
X143656000Y-76821000D03*
X143656000Y-76321000D03*
X143656000Y-75821000D03*
X143656000Y-75321000D03*
X143656000Y-74821000D03*
X143656000Y-74321000D03*
X143656000Y-73821000D03*
X143656000Y-73321000D03*
X143656000Y-72821000D03*
X143656000Y-72321000D03*
X143656000Y-71821000D03*
D21*
X139351000Y-73311000D03*
X139351000Y-75311000D03*
X141351000Y-75311000D03*
X141351000Y-73311000D03*
D22*
X141401800Y-79502600D03*
X141401800Y-78942600D03*
D23*
X136347800Y-67106800D03*
X135787800Y-67106800D03*
D22*
X143535400Y-79451800D03*
X143535400Y-78891800D03*
D24*
X138930000Y-84029000D03*
X138930000Y-84679000D03*
X138930000Y-85329000D03*
X138930000Y-85979000D03*
X138930000Y-86629000D03*
X138930000Y-87279000D03*
X138930000Y-87929000D03*
D25*
X139655000Y-88654000D03*
D24*
X144280000Y-87929000D03*
X144280000Y-87279000D03*
X144280000Y-86629000D03*
X144280000Y-85979000D03*
X144280000Y-85329000D03*
X144280000Y-84679000D03*
X144280000Y-84029000D03*
D25*
X140305000Y-88654000D03*
X140955000Y-88654000D03*
X141605000Y-88654000D03*
X142255000Y-88654000D03*
X142905000Y-88654000D03*
X143555000Y-88654000D03*
X143555000Y-83304000D03*
X142905000Y-83304000D03*
X142255000Y-83304000D03*
X141605000Y-83304000D03*
X140955000Y-83304000D03*
X140305000Y-83304000D03*
X139655000Y-83304000D03*
D26*
X141636400Y-82240120D03*
X141116400Y-82240120D03*
X142652400Y-82321400D03*
X142132400Y-82321400D03*
X135642000Y-88138000D03*
X135122000Y-88138000D03*
X135642000Y-91440000D03*
X135122000Y-91440000D03*
X135642000Y-94742000D03*
X135122000Y-94742000D03*
X135642000Y-98044000D03*
X135122000Y-98044000D03*
X140137800Y-100457000D03*
X139617800Y-100457000D03*
X141103000Y-96393000D03*
X140583000Y-96393000D03*
D11*
X140462000Y-92055600D03*
X140462000Y-91535600D03*
D26*
X135642000Y-89789000D03*
X135122000Y-89789000D03*
X135642000Y-93091000D03*
X135122000Y-93091000D03*
X135642000Y-96393000D03*
X135122000Y-96393000D03*
X136785000Y-99187000D03*
X136265000Y-99187000D03*
X140468000Y-97663000D03*
X139948000Y-97663000D03*
X140087000Y-95250000D03*
X139567000Y-95250000D03*
D11*
X142468600Y-79457200D03*
X142468600Y-78937200D03*
X140385800Y-79457200D03*
X140385800Y-78937200D03*
D27*
X141694000Y-80272000D03*
X141694000Y-80772000D03*
X141694000Y-81272000D03*
X143294000Y-81272000D03*
X143294000Y-80772000D03*
X143294000Y-80272000D03*
D11*
X139192000Y-90214800D03*
X139192000Y-90734800D03*
X145288000Y-90684000D03*
X145288000Y-90164000D03*
X145288000Y-91383200D03*
X145288000Y-91903200D03*
D26*
X141204600Y-91059000D03*
X140684600Y-91059000D03*
D28*
X144302000Y-92136000D03*
X144302000Y-91186000D03*
X144302000Y-90236000D03*
X141702000Y-90236000D03*
X141702000Y-91186000D03*
X141702000Y-92136000D03*
D29*
X143002000Y-91186000D03*
D26*
X139749880Y-82199480D03*
X140269880Y-82199480D03*
D15*
X136483000Y-91440000D03*
X137583000Y-91440000D03*
X136483000Y-94742000D03*
X137583000Y-94742000D03*
X136483000Y-98044000D03*
X137583000Y-98044000D03*
X140166000Y-99187000D03*
X141266000Y-99187000D03*
X141944000Y-96520000D03*
X143044000Y-96520000D03*
X140674000Y-93853000D03*
X141774000Y-93853000D03*
X136483000Y-89789000D03*
X137583000Y-89789000D03*
X136483000Y-96393000D03*
X137583000Y-96393000D03*
X137880000Y-99187000D03*
X138980000Y-99187000D03*
X141182000Y-97917000D03*
X142282000Y-97917000D03*
X141690000Y-95123000D03*
X142790000Y-95123000D03*
X138642000Y-93345000D03*
X139742000Y-93345000D03*
M02*
