G04 #@! TF.FileFunction,Legend,Top*
%FSLAX46Y46*%
G04 Gerber Fmt 4.6, Leading zero omitted, Abs format (unit mm)*
G04 Created by KiCad (PCBNEW 4.0.5) date 07/06/17 21:13:05*
%MOMM*%
%LPD*%
G01*
G04 APERTURE LIST*
%ADD10C,0.100000*%
%ADD11C,0.120000*%
%ADD12C,0.150000*%
%ADD13C,0.050000*%
%ADD14C,0.075000*%
%ADD15C,0.062500*%
%ADD16C,0.125000*%
%ADD17C,0.063500*%
%ADD18C,0.031750*%
G04 APERTURE END LIST*
D10*
D11*
X138752000Y-91828000D02*
X138752000Y-92068000D01*
X139632000Y-92068000D02*
X139632000Y-91828000D01*
X135350000Y-107789000D02*
X144050000Y-107789000D01*
X135350000Y-101379000D02*
X144050000Y-101379000D01*
X144050000Y-101379000D02*
X144050000Y-107789000D01*
X144050000Y-106559000D02*
X135350000Y-106559000D01*
X135350000Y-107789000D02*
X135350000Y-101379000D01*
X137983000Y-93541000D02*
X137983000Y-92641000D01*
X137983000Y-92641000D02*
X136533000Y-92641000D01*
X137983000Y-93541000D02*
X136533000Y-93541000D01*
X137983000Y-88588000D02*
X137983000Y-87688000D01*
X137983000Y-87688000D02*
X136533000Y-87688000D01*
X137983000Y-88588000D02*
X136533000Y-88588000D01*
D12*
X137858553Y-82955000D02*
G75*
G03X137858553Y-82955000I-353553J0D01*
G01*
X133730000Y-83130000D02*
X136780000Y-83130000D01*
X136780000Y-83130000D02*
X136780000Y-85780000D01*
X133730000Y-85780000D02*
X136780000Y-85780000D01*
X133730000Y-83130000D02*
X133730000Y-85780000D01*
D13*
X138029000Y-81010000D02*
X135529000Y-81010000D01*
X138029000Y-79010000D02*
X138029000Y-81010000D01*
X135529000Y-79010000D02*
X138029000Y-79010000D01*
X135529000Y-81010000D02*
X135529000Y-79010000D01*
D11*
X139759000Y-79317200D02*
X139759000Y-79077200D01*
X138879000Y-79077200D02*
X138879000Y-79317200D01*
X134789000Y-86660200D02*
X133689000Y-86660200D01*
X133689000Y-86660200D02*
X133689000Y-88760200D01*
X134789000Y-86660200D02*
X134789000Y-88760200D01*
X144230000Y-82326000D02*
X145330000Y-82326000D01*
X145330000Y-82326000D02*
X145330000Y-80226000D01*
X144230000Y-82326000D02*
X144230000Y-80226000D01*
D12*
X137351000Y-67391000D02*
G75*
G03X137351000Y-67391000I-250000J0D01*
G01*
X136851000Y-67891000D02*
X143851000Y-67891000D01*
X143851000Y-67891000D02*
X143851000Y-77891000D01*
X143851000Y-77891000D02*
X136851000Y-77891000D01*
X136851000Y-77891000D02*
X136851000Y-67891000D01*
D11*
X141801800Y-78972600D02*
X141801800Y-79472600D01*
X141001800Y-79472600D02*
X141001800Y-78972600D01*
X135817800Y-66706800D02*
X136317800Y-66706800D01*
X136317800Y-67506800D02*
X135817800Y-67506800D01*
X143935400Y-78921800D02*
X143935400Y-79421800D01*
X143135400Y-79421800D02*
X143135400Y-78921800D01*
D12*
X138555000Y-82929000D02*
X144655000Y-82929000D01*
X144655000Y-82929000D02*
X144655000Y-89029000D01*
X144655000Y-89029000D02*
X138555000Y-89029000D01*
X138555000Y-89029000D02*
X138555000Y-82929000D01*
D11*
X141256400Y-82680120D02*
X141496400Y-82680120D01*
X141496400Y-81800120D02*
X141256400Y-81800120D01*
X142272400Y-82761400D02*
X142512400Y-82761400D01*
X142512400Y-81881400D02*
X142272400Y-81881400D01*
X135262000Y-88578000D02*
X135502000Y-88578000D01*
X135502000Y-87698000D02*
X135262000Y-87698000D01*
X135262000Y-91880000D02*
X135502000Y-91880000D01*
X135502000Y-91000000D02*
X135262000Y-91000000D01*
X135262000Y-95182000D02*
X135502000Y-95182000D01*
X135502000Y-94302000D02*
X135262000Y-94302000D01*
X135262000Y-98484000D02*
X135502000Y-98484000D01*
X135502000Y-97604000D02*
X135262000Y-97604000D01*
X139757800Y-100897000D02*
X139997800Y-100897000D01*
X139997800Y-100017000D02*
X139757800Y-100017000D01*
X140723000Y-96833000D02*
X140963000Y-96833000D01*
X140963000Y-95953000D02*
X140723000Y-95953000D01*
X140022000Y-91675600D02*
X140022000Y-91915600D01*
X140902000Y-91915600D02*
X140902000Y-91675600D01*
X135262000Y-90229000D02*
X135502000Y-90229000D01*
X135502000Y-89349000D02*
X135262000Y-89349000D01*
X135262000Y-93531000D02*
X135502000Y-93531000D01*
X135502000Y-92651000D02*
X135262000Y-92651000D01*
X135262000Y-96833000D02*
X135502000Y-96833000D01*
X135502000Y-95953000D02*
X135262000Y-95953000D01*
X136405000Y-99627000D02*
X136645000Y-99627000D01*
X136645000Y-98747000D02*
X136405000Y-98747000D01*
X140088000Y-98103000D02*
X140328000Y-98103000D01*
X140328000Y-97223000D02*
X140088000Y-97223000D01*
X139707000Y-95690000D02*
X139947000Y-95690000D01*
X139947000Y-94810000D02*
X139707000Y-94810000D01*
X142028600Y-79077200D02*
X142028600Y-79317200D01*
X142908600Y-79317200D02*
X142908600Y-79077200D01*
X139945800Y-79077200D02*
X139945800Y-79317200D01*
X140825800Y-79317200D02*
X140825800Y-79077200D01*
D13*
X141894000Y-79772000D02*
G75*
G03X141894000Y-79772000I-100000J0D01*
G01*
X143294000Y-79972000D02*
X143294000Y-81572000D01*
X143294000Y-81572000D02*
X141694000Y-81572000D01*
X141694000Y-81572000D02*
X141694000Y-79972000D01*
X141694000Y-79972000D02*
X143294000Y-79972000D01*
D11*
X139632000Y-90594800D02*
X139632000Y-90354800D01*
X138752000Y-90354800D02*
X138752000Y-90594800D01*
X144848000Y-90304000D02*
X144848000Y-90544000D01*
X145728000Y-90544000D02*
X145728000Y-90304000D01*
X145728000Y-91763200D02*
X145728000Y-91523200D01*
X144848000Y-91523200D02*
X144848000Y-91763200D01*
X140824600Y-91499000D02*
X141064600Y-91499000D01*
X141064600Y-90619000D02*
X140824600Y-90619000D01*
D13*
X144502000Y-92686000D02*
X141502000Y-92686000D01*
X144502000Y-89686000D02*
X144502000Y-92686000D01*
X141502000Y-89686000D02*
X144502000Y-89686000D01*
X141502000Y-92686000D02*
X141502000Y-89686000D01*
D11*
X140129880Y-81759480D02*
X139889880Y-81759480D01*
X139889880Y-82639480D02*
X140129880Y-82639480D01*
X137983000Y-91890000D02*
X137983000Y-90990000D01*
X137983000Y-90990000D02*
X136533000Y-90990000D01*
X137983000Y-91890000D02*
X136533000Y-91890000D01*
X137983000Y-95192000D02*
X137983000Y-94292000D01*
X137983000Y-94292000D02*
X136533000Y-94292000D01*
X137983000Y-95192000D02*
X136533000Y-95192000D01*
X137983000Y-98494000D02*
X137983000Y-97594000D01*
X137983000Y-97594000D02*
X136533000Y-97594000D01*
X137983000Y-98494000D02*
X136533000Y-98494000D01*
X141666000Y-99637000D02*
X141666000Y-98737000D01*
X141666000Y-98737000D02*
X140216000Y-98737000D01*
X141666000Y-99637000D02*
X140216000Y-99637000D01*
X143444000Y-96970000D02*
X143444000Y-96070000D01*
X143444000Y-96070000D02*
X141994000Y-96070000D01*
X143444000Y-96970000D02*
X141994000Y-96970000D01*
X142174000Y-94303000D02*
X142174000Y-93403000D01*
X142174000Y-93403000D02*
X140724000Y-93403000D01*
X142174000Y-94303000D02*
X140724000Y-94303000D01*
X137983000Y-90239000D02*
X137983000Y-89339000D01*
X137983000Y-89339000D02*
X136533000Y-89339000D01*
X137983000Y-90239000D02*
X136533000Y-90239000D01*
X137983000Y-96843000D02*
X137983000Y-95943000D01*
X137983000Y-95943000D02*
X136533000Y-95943000D01*
X137983000Y-96843000D02*
X136533000Y-96843000D01*
X139380000Y-99637000D02*
X139380000Y-98737000D01*
X139380000Y-98737000D02*
X137930000Y-98737000D01*
X139380000Y-99637000D02*
X137930000Y-99637000D01*
X142682000Y-98367000D02*
X142682000Y-97467000D01*
X142682000Y-97467000D02*
X141232000Y-97467000D01*
X142682000Y-98367000D02*
X141232000Y-98367000D01*
X143190000Y-95573000D02*
X143190000Y-94673000D01*
X143190000Y-94673000D02*
X141740000Y-94673000D01*
X143190000Y-95573000D02*
X141740000Y-95573000D01*
X140142000Y-93795000D02*
X140142000Y-92895000D01*
X140142000Y-92895000D02*
X138692000Y-92895000D01*
X140142000Y-93795000D02*
X138692000Y-93795000D01*
D14*
X138452714Y-92140857D02*
X138309857Y-92240857D01*
X138452714Y-92312285D02*
X138152714Y-92312285D01*
X138152714Y-92198000D01*
X138167000Y-92169428D01*
X138181286Y-92155143D01*
X138209857Y-92140857D01*
X138252714Y-92140857D01*
X138281286Y-92155143D01*
X138295571Y-92169428D01*
X138309857Y-92198000D01*
X138309857Y-92312285D01*
X138152714Y-92040857D02*
X138152714Y-91855143D01*
X138267000Y-91955143D01*
X138267000Y-91912285D01*
X138281286Y-91883714D01*
X138295571Y-91869428D01*
X138324143Y-91855143D01*
X138395571Y-91855143D01*
X138424143Y-91869428D01*
X138438429Y-91883714D01*
X138452714Y-91912285D01*
X138452714Y-91998000D01*
X138438429Y-92026571D01*
X138424143Y-92040857D01*
X138152714Y-91669429D02*
X138152714Y-91640857D01*
X138167000Y-91612286D01*
X138181286Y-91598000D01*
X138209857Y-91583714D01*
X138267000Y-91569429D01*
X138338429Y-91569429D01*
X138395571Y-91583714D01*
X138424143Y-91598000D01*
X138438429Y-91612286D01*
X138452714Y-91640857D01*
X138452714Y-91669429D01*
X138438429Y-91698000D01*
X138424143Y-91712286D01*
X138395571Y-91726571D01*
X138338429Y-91740857D01*
X138267000Y-91740857D01*
X138209857Y-91726571D01*
X138181286Y-91712286D01*
X138167000Y-91698000D01*
X138152714Y-91669429D01*
D15*
X136729429Y-92442095D02*
X136729429Y-92192095D01*
X136788953Y-92192095D01*
X136824667Y-92204000D01*
X136848476Y-92227810D01*
X136860381Y-92251619D01*
X136872286Y-92299238D01*
X136872286Y-92334952D01*
X136860381Y-92382571D01*
X136848476Y-92406381D01*
X136824667Y-92430190D01*
X136788953Y-92442095D01*
X136729429Y-92442095D01*
X137110381Y-92442095D02*
X136967524Y-92442095D01*
X137038953Y-92442095D02*
X137038953Y-92192095D01*
X137015143Y-92227810D01*
X136991334Y-92251619D01*
X136967524Y-92263524D01*
X137205619Y-92215905D02*
X137217524Y-92204000D01*
X137241333Y-92192095D01*
X137300857Y-92192095D01*
X137324667Y-92204000D01*
X137336571Y-92215905D01*
X137348476Y-92239714D01*
X137348476Y-92263524D01*
X137336571Y-92299238D01*
X137193714Y-92442095D01*
X137348476Y-92442095D01*
X136848477Y-87362095D02*
X136848477Y-87112095D01*
X136908001Y-87112095D01*
X136943715Y-87124000D01*
X136967524Y-87147810D01*
X136979429Y-87171619D01*
X136991334Y-87219238D01*
X136991334Y-87254952D01*
X136979429Y-87302571D01*
X136967524Y-87326381D01*
X136943715Y-87350190D01*
X136908001Y-87362095D01*
X136848477Y-87362095D01*
X137205620Y-87195429D02*
X137205620Y-87362095D01*
X137146096Y-87100190D02*
X137086572Y-87278762D01*
X137241334Y-87278762D01*
D12*
X135072381Y-80621095D02*
X134072381Y-80621095D01*
X134072381Y-80240142D01*
X134120000Y-80144904D01*
X134167619Y-80097285D01*
X134262857Y-80049666D01*
X134405714Y-80049666D01*
X134500952Y-80097285D01*
X134548571Y-80144904D01*
X134596190Y-80240142D01*
X134596190Y-80621095D01*
X135072381Y-79097285D02*
X135072381Y-79668714D01*
X135072381Y-79383000D02*
X134072381Y-79383000D01*
X134215238Y-79478238D01*
X134310476Y-79573476D01*
X134358095Y-79668714D01*
D14*
X139269000Y-80221914D02*
X139169000Y-80079057D01*
X139097572Y-80221914D02*
X139097572Y-79921914D01*
X139211857Y-79921914D01*
X139240429Y-79936200D01*
X139254714Y-79950486D01*
X139269000Y-79979057D01*
X139269000Y-80021914D01*
X139254714Y-80050486D01*
X139240429Y-80064771D01*
X139211857Y-80079057D01*
X139097572Y-80079057D01*
X139554714Y-80221914D02*
X139383286Y-80221914D01*
X139469000Y-80221914D02*
X139469000Y-79921914D01*
X139440429Y-79964771D01*
X139411857Y-79993343D01*
X139383286Y-80007629D01*
D15*
X135368095Y-88054923D02*
X135118095Y-88054923D01*
X135118095Y-87995399D01*
X135130000Y-87959685D01*
X135153810Y-87935876D01*
X135177619Y-87923971D01*
X135225238Y-87912066D01*
X135260952Y-87912066D01*
X135308571Y-87923971D01*
X135332381Y-87935876D01*
X135356190Y-87959685D01*
X135368095Y-87995399D01*
X135368095Y-88054923D01*
X135141905Y-87816828D02*
X135130000Y-87804923D01*
X135118095Y-87781114D01*
X135118095Y-87721590D01*
X135130000Y-87697780D01*
X135141905Y-87685876D01*
X135165714Y-87673971D01*
X135189524Y-87673971D01*
X135225238Y-87685876D01*
X135368095Y-87828733D01*
X135368095Y-87673971D01*
D14*
X144812572Y-79447214D02*
X144812572Y-79147214D01*
X144884000Y-79147214D01*
X144926857Y-79161500D01*
X144955429Y-79190071D01*
X144969714Y-79218643D01*
X144984000Y-79275786D01*
X144984000Y-79318643D01*
X144969714Y-79375786D01*
X144955429Y-79404357D01*
X144926857Y-79432929D01*
X144884000Y-79447214D01*
X144812572Y-79447214D01*
X145084000Y-79147214D02*
X145269714Y-79147214D01*
X145169714Y-79261500D01*
X145212572Y-79261500D01*
X145241143Y-79275786D01*
X145255429Y-79290071D01*
X145269714Y-79318643D01*
X145269714Y-79390071D01*
X145255429Y-79418643D01*
X145241143Y-79432929D01*
X145212572Y-79447214D01*
X145126857Y-79447214D01*
X145098286Y-79432929D01*
X145084000Y-79418643D01*
X141555000Y-78669343D02*
X141540714Y-78683629D01*
X141497857Y-78697914D01*
X141469286Y-78697914D01*
X141426429Y-78683629D01*
X141397857Y-78655057D01*
X141383572Y-78626486D01*
X141369286Y-78569343D01*
X141369286Y-78526486D01*
X141383572Y-78469343D01*
X141397857Y-78440771D01*
X141426429Y-78412200D01*
X141469286Y-78397914D01*
X141497857Y-78397914D01*
X141540714Y-78412200D01*
X141555000Y-78426486D01*
X141840714Y-78697914D02*
X141669286Y-78697914D01*
X141755000Y-78697914D02*
X141755000Y-78397914D01*
X141726429Y-78440771D01*
X141697857Y-78469343D01*
X141669286Y-78483629D01*
D12*
X134925743Y-67832266D02*
X134973362Y-67879885D01*
X135020981Y-68022742D01*
X135020981Y-68117980D01*
X134973362Y-68260838D01*
X134878124Y-68356076D01*
X134782886Y-68403695D01*
X134592410Y-68451314D01*
X134449552Y-68451314D01*
X134259076Y-68403695D01*
X134163838Y-68356076D01*
X134068600Y-68260838D01*
X134020981Y-68117980D01*
X134020981Y-68022742D01*
X134068600Y-67879885D01*
X134116219Y-67832266D01*
X134354314Y-66975123D02*
X135020981Y-66975123D01*
X133973362Y-67213219D02*
X134687648Y-67451314D01*
X134687648Y-66832266D01*
D14*
X144222000Y-79329743D02*
X144207714Y-79344029D01*
X144164857Y-79358314D01*
X144136286Y-79358314D01*
X144093429Y-79344029D01*
X144064857Y-79315457D01*
X144050572Y-79286886D01*
X144036286Y-79229743D01*
X144036286Y-79186886D01*
X144050572Y-79129743D01*
X144064857Y-79101171D01*
X144093429Y-79072600D01*
X144136286Y-79058314D01*
X144164857Y-79058314D01*
X144207714Y-79072600D01*
X144222000Y-79086886D01*
X144493429Y-79058314D02*
X144350572Y-79058314D01*
X144336286Y-79201171D01*
X144350572Y-79186886D01*
X144379143Y-79172600D01*
X144450572Y-79172600D01*
X144479143Y-79186886D01*
X144493429Y-79201171D01*
X144507714Y-79229743D01*
X144507714Y-79301171D01*
X144493429Y-79329743D01*
X144479143Y-79344029D01*
X144450572Y-79358314D01*
X144379143Y-79358314D01*
X144350572Y-79344029D01*
X144336286Y-79329743D01*
X140623114Y-82290120D02*
X140480257Y-82390120D01*
X140623114Y-82461548D02*
X140323114Y-82461548D01*
X140323114Y-82347263D01*
X140337400Y-82318691D01*
X140351686Y-82304406D01*
X140380257Y-82290120D01*
X140423114Y-82290120D01*
X140451686Y-82304406D01*
X140465971Y-82318691D01*
X140480257Y-82347263D01*
X140480257Y-82461548D01*
X140351686Y-82175834D02*
X140337400Y-82161548D01*
X140323114Y-82132977D01*
X140323114Y-82061548D01*
X140337400Y-82032977D01*
X140351686Y-82018691D01*
X140380257Y-82004406D01*
X140408829Y-82004406D01*
X140451686Y-82018691D01*
X140623114Y-82190120D01*
X140623114Y-82004406D01*
X141639114Y-82371400D02*
X141496257Y-82471400D01*
X141639114Y-82542828D02*
X141339114Y-82542828D01*
X141339114Y-82428543D01*
X141353400Y-82399971D01*
X141367686Y-82385686D01*
X141396257Y-82371400D01*
X141439114Y-82371400D01*
X141467686Y-82385686D01*
X141481971Y-82399971D01*
X141496257Y-82428543D01*
X141496257Y-82542828D01*
X141339114Y-82271400D02*
X141339114Y-82085686D01*
X141453400Y-82185686D01*
X141453400Y-82142828D01*
X141467686Y-82114257D01*
X141481971Y-82099971D01*
X141510543Y-82085686D01*
X141581971Y-82085686D01*
X141610543Y-82099971D01*
X141624829Y-82114257D01*
X141639114Y-82142828D01*
X141639114Y-82228543D01*
X141624829Y-82257114D01*
X141610543Y-82271400D01*
X134173143Y-88273714D02*
X134073143Y-88130857D01*
X134001715Y-88273714D02*
X134001715Y-87973714D01*
X134116000Y-87973714D01*
X134144572Y-87988000D01*
X134158857Y-88002286D01*
X134173143Y-88030857D01*
X134173143Y-88073714D01*
X134158857Y-88102286D01*
X134144572Y-88116571D01*
X134116000Y-88130857D01*
X134001715Y-88130857D01*
X134458857Y-88273714D02*
X134287429Y-88273714D01*
X134373143Y-88273714D02*
X134373143Y-87973714D01*
X134344572Y-88016571D01*
X134316000Y-88045143D01*
X134287429Y-88059429D01*
X134558857Y-87973714D02*
X134758857Y-87973714D01*
X134630286Y-88273714D01*
X134173143Y-91575714D02*
X134073143Y-91432857D01*
X134001715Y-91575714D02*
X134001715Y-91275714D01*
X134116000Y-91275714D01*
X134144572Y-91290000D01*
X134158857Y-91304286D01*
X134173143Y-91332857D01*
X134173143Y-91375714D01*
X134158857Y-91404286D01*
X134144572Y-91418571D01*
X134116000Y-91432857D01*
X134001715Y-91432857D01*
X134458857Y-91575714D02*
X134287429Y-91575714D01*
X134373143Y-91575714D02*
X134373143Y-91275714D01*
X134344572Y-91318571D01*
X134316000Y-91347143D01*
X134287429Y-91361429D01*
X134630286Y-91404286D02*
X134601714Y-91390000D01*
X134587429Y-91375714D01*
X134573143Y-91347143D01*
X134573143Y-91332857D01*
X134587429Y-91304286D01*
X134601714Y-91290000D01*
X134630286Y-91275714D01*
X134687429Y-91275714D01*
X134716000Y-91290000D01*
X134730286Y-91304286D01*
X134744571Y-91332857D01*
X134744571Y-91347143D01*
X134730286Y-91375714D01*
X134716000Y-91390000D01*
X134687429Y-91404286D01*
X134630286Y-91404286D01*
X134601714Y-91418571D01*
X134587429Y-91432857D01*
X134573143Y-91461429D01*
X134573143Y-91518571D01*
X134587429Y-91547143D01*
X134601714Y-91561429D01*
X134630286Y-91575714D01*
X134687429Y-91575714D01*
X134716000Y-91561429D01*
X134730286Y-91547143D01*
X134744571Y-91518571D01*
X134744571Y-91461429D01*
X134730286Y-91432857D01*
X134716000Y-91418571D01*
X134687429Y-91404286D01*
X134173143Y-94877714D02*
X134073143Y-94734857D01*
X134001715Y-94877714D02*
X134001715Y-94577714D01*
X134116000Y-94577714D01*
X134144572Y-94592000D01*
X134158857Y-94606286D01*
X134173143Y-94634857D01*
X134173143Y-94677714D01*
X134158857Y-94706286D01*
X134144572Y-94720571D01*
X134116000Y-94734857D01*
X134001715Y-94734857D01*
X134458857Y-94877714D02*
X134287429Y-94877714D01*
X134373143Y-94877714D02*
X134373143Y-94577714D01*
X134344572Y-94620571D01*
X134316000Y-94649143D01*
X134287429Y-94663429D01*
X134601714Y-94877714D02*
X134658857Y-94877714D01*
X134687429Y-94863429D01*
X134701714Y-94849143D01*
X134730286Y-94806286D01*
X134744571Y-94749143D01*
X134744571Y-94634857D01*
X134730286Y-94606286D01*
X134716000Y-94592000D01*
X134687429Y-94577714D01*
X134630286Y-94577714D01*
X134601714Y-94592000D01*
X134587429Y-94606286D01*
X134573143Y-94634857D01*
X134573143Y-94706286D01*
X134587429Y-94734857D01*
X134601714Y-94749143D01*
X134630286Y-94763429D01*
X134687429Y-94763429D01*
X134716000Y-94749143D01*
X134730286Y-94734857D01*
X134744571Y-94706286D01*
X134173143Y-98179714D02*
X134073143Y-98036857D01*
X134001715Y-98179714D02*
X134001715Y-97879714D01*
X134116000Y-97879714D01*
X134144572Y-97894000D01*
X134158857Y-97908286D01*
X134173143Y-97936857D01*
X134173143Y-97979714D01*
X134158857Y-98008286D01*
X134144572Y-98022571D01*
X134116000Y-98036857D01*
X134001715Y-98036857D01*
X134287429Y-97908286D02*
X134301715Y-97894000D01*
X134330286Y-97879714D01*
X134401715Y-97879714D01*
X134430286Y-97894000D01*
X134444572Y-97908286D01*
X134458857Y-97936857D01*
X134458857Y-97965429D01*
X134444572Y-98008286D01*
X134273143Y-98179714D01*
X134458857Y-98179714D01*
X134644571Y-97879714D02*
X134673143Y-97879714D01*
X134701714Y-97894000D01*
X134716000Y-97908286D01*
X134730286Y-97936857D01*
X134744571Y-97994000D01*
X134744571Y-98065429D01*
X134730286Y-98122571D01*
X134716000Y-98151143D01*
X134701714Y-98165429D01*
X134673143Y-98179714D01*
X134644571Y-98179714D01*
X134616000Y-98165429D01*
X134601714Y-98151143D01*
X134587429Y-98122571D01*
X134573143Y-98065429D01*
X134573143Y-97994000D01*
X134587429Y-97936857D01*
X134601714Y-97908286D01*
X134616000Y-97894000D01*
X134644571Y-97879714D01*
X138541943Y-100592714D02*
X138441943Y-100449857D01*
X138370515Y-100592714D02*
X138370515Y-100292714D01*
X138484800Y-100292714D01*
X138513372Y-100307000D01*
X138527657Y-100321286D01*
X138541943Y-100349857D01*
X138541943Y-100392714D01*
X138527657Y-100421286D01*
X138513372Y-100435571D01*
X138484800Y-100449857D01*
X138370515Y-100449857D01*
X138656229Y-100321286D02*
X138670515Y-100307000D01*
X138699086Y-100292714D01*
X138770515Y-100292714D01*
X138799086Y-100307000D01*
X138813372Y-100321286D01*
X138827657Y-100349857D01*
X138827657Y-100378429D01*
X138813372Y-100421286D01*
X138641943Y-100592714D01*
X138827657Y-100592714D01*
X139113371Y-100592714D02*
X138941943Y-100592714D01*
X139027657Y-100592714D02*
X139027657Y-100292714D01*
X138999086Y-100335571D01*
X138970514Y-100364143D01*
X138941943Y-100378429D01*
X139634143Y-96782714D02*
X139534143Y-96639857D01*
X139462715Y-96782714D02*
X139462715Y-96482714D01*
X139577000Y-96482714D01*
X139605572Y-96497000D01*
X139619857Y-96511286D01*
X139634143Y-96539857D01*
X139634143Y-96582714D01*
X139619857Y-96611286D01*
X139605572Y-96625571D01*
X139577000Y-96639857D01*
X139462715Y-96639857D01*
X139748429Y-96511286D02*
X139762715Y-96497000D01*
X139791286Y-96482714D01*
X139862715Y-96482714D01*
X139891286Y-96497000D01*
X139905572Y-96511286D01*
X139919857Y-96539857D01*
X139919857Y-96568429D01*
X139905572Y-96611286D01*
X139734143Y-96782714D01*
X139919857Y-96782714D01*
X140034143Y-96511286D02*
X140048429Y-96497000D01*
X140077000Y-96482714D01*
X140148429Y-96482714D01*
X140177000Y-96497000D01*
X140191286Y-96511286D01*
X140205571Y-96539857D01*
X140205571Y-96568429D01*
X140191286Y-96611286D01*
X140019857Y-96782714D01*
X140205571Y-96782714D01*
X139722714Y-91988457D02*
X139579857Y-92088457D01*
X139722714Y-92159885D02*
X139422714Y-92159885D01*
X139422714Y-92045600D01*
X139437000Y-92017028D01*
X139451286Y-92002743D01*
X139479857Y-91988457D01*
X139522714Y-91988457D01*
X139551286Y-92002743D01*
X139565571Y-92017028D01*
X139579857Y-92045600D01*
X139579857Y-92159885D01*
X139451286Y-91874171D02*
X139437000Y-91859885D01*
X139422714Y-91831314D01*
X139422714Y-91759885D01*
X139437000Y-91731314D01*
X139451286Y-91717028D01*
X139479857Y-91702743D01*
X139508429Y-91702743D01*
X139551286Y-91717028D01*
X139722714Y-91888457D01*
X139722714Y-91702743D01*
X139422714Y-91602743D02*
X139422714Y-91417029D01*
X139537000Y-91517029D01*
X139537000Y-91474171D01*
X139551286Y-91445600D01*
X139565571Y-91431314D01*
X139594143Y-91417029D01*
X139665571Y-91417029D01*
X139694143Y-91431314D01*
X139708429Y-91445600D01*
X139722714Y-91474171D01*
X139722714Y-91559886D01*
X139708429Y-91588457D01*
X139694143Y-91602743D01*
X134173143Y-89924714D02*
X134073143Y-89781857D01*
X134001715Y-89924714D02*
X134001715Y-89624714D01*
X134116000Y-89624714D01*
X134144572Y-89639000D01*
X134158857Y-89653286D01*
X134173143Y-89681857D01*
X134173143Y-89724714D01*
X134158857Y-89753286D01*
X134144572Y-89767571D01*
X134116000Y-89781857D01*
X134001715Y-89781857D01*
X134287429Y-89653286D02*
X134301715Y-89639000D01*
X134330286Y-89624714D01*
X134401715Y-89624714D01*
X134430286Y-89639000D01*
X134444572Y-89653286D01*
X134458857Y-89681857D01*
X134458857Y-89710429D01*
X134444572Y-89753286D01*
X134273143Y-89924714D01*
X134458857Y-89924714D01*
X134716000Y-89724714D02*
X134716000Y-89924714D01*
X134644571Y-89610429D02*
X134573143Y-89824714D01*
X134758857Y-89824714D01*
X134173143Y-93226714D02*
X134073143Y-93083857D01*
X134001715Y-93226714D02*
X134001715Y-92926714D01*
X134116000Y-92926714D01*
X134144572Y-92941000D01*
X134158857Y-92955286D01*
X134173143Y-92983857D01*
X134173143Y-93026714D01*
X134158857Y-93055286D01*
X134144572Y-93069571D01*
X134116000Y-93083857D01*
X134001715Y-93083857D01*
X134287429Y-92955286D02*
X134301715Y-92941000D01*
X134330286Y-92926714D01*
X134401715Y-92926714D01*
X134430286Y-92941000D01*
X134444572Y-92955286D01*
X134458857Y-92983857D01*
X134458857Y-93012429D01*
X134444572Y-93055286D01*
X134273143Y-93226714D01*
X134458857Y-93226714D01*
X134730286Y-92926714D02*
X134587429Y-92926714D01*
X134573143Y-93069571D01*
X134587429Y-93055286D01*
X134616000Y-93041000D01*
X134687429Y-93041000D01*
X134716000Y-93055286D01*
X134730286Y-93069571D01*
X134744571Y-93098143D01*
X134744571Y-93169571D01*
X134730286Y-93198143D01*
X134716000Y-93212429D01*
X134687429Y-93226714D01*
X134616000Y-93226714D01*
X134587429Y-93212429D01*
X134573143Y-93198143D01*
X134173143Y-96528714D02*
X134073143Y-96385857D01*
X134001715Y-96528714D02*
X134001715Y-96228714D01*
X134116000Y-96228714D01*
X134144572Y-96243000D01*
X134158857Y-96257286D01*
X134173143Y-96285857D01*
X134173143Y-96328714D01*
X134158857Y-96357286D01*
X134144572Y-96371571D01*
X134116000Y-96385857D01*
X134001715Y-96385857D01*
X134287429Y-96257286D02*
X134301715Y-96243000D01*
X134330286Y-96228714D01*
X134401715Y-96228714D01*
X134430286Y-96243000D01*
X134444572Y-96257286D01*
X134458857Y-96285857D01*
X134458857Y-96314429D01*
X134444572Y-96357286D01*
X134273143Y-96528714D01*
X134458857Y-96528714D01*
X134716000Y-96228714D02*
X134658857Y-96228714D01*
X134630286Y-96243000D01*
X134616000Y-96257286D01*
X134587429Y-96300143D01*
X134573143Y-96357286D01*
X134573143Y-96471571D01*
X134587429Y-96500143D01*
X134601714Y-96514429D01*
X134630286Y-96528714D01*
X134687429Y-96528714D01*
X134716000Y-96514429D01*
X134730286Y-96500143D01*
X134744571Y-96471571D01*
X134744571Y-96400143D01*
X134730286Y-96371571D01*
X134716000Y-96357286D01*
X134687429Y-96343000D01*
X134630286Y-96343000D01*
X134601714Y-96357286D01*
X134587429Y-96371571D01*
X134573143Y-96400143D01*
X136332143Y-100211714D02*
X136232143Y-100068857D01*
X136160715Y-100211714D02*
X136160715Y-99911714D01*
X136275000Y-99911714D01*
X136303572Y-99926000D01*
X136317857Y-99940286D01*
X136332143Y-99968857D01*
X136332143Y-100011714D01*
X136317857Y-100040286D01*
X136303572Y-100054571D01*
X136275000Y-100068857D01*
X136160715Y-100068857D01*
X136446429Y-99940286D02*
X136460715Y-99926000D01*
X136489286Y-99911714D01*
X136560715Y-99911714D01*
X136589286Y-99926000D01*
X136603572Y-99940286D01*
X136617857Y-99968857D01*
X136617857Y-99997429D01*
X136603572Y-100040286D01*
X136432143Y-100211714D01*
X136617857Y-100211714D01*
X136717857Y-99911714D02*
X136917857Y-99911714D01*
X136789286Y-100211714D01*
X139454714Y-97855857D02*
X139311857Y-97955857D01*
X139454714Y-98027285D02*
X139154714Y-98027285D01*
X139154714Y-97913000D01*
X139169000Y-97884428D01*
X139183286Y-97870143D01*
X139211857Y-97855857D01*
X139254714Y-97855857D01*
X139283286Y-97870143D01*
X139297571Y-97884428D01*
X139311857Y-97913000D01*
X139311857Y-98027285D01*
X139183286Y-97741571D02*
X139169000Y-97727285D01*
X139154714Y-97698714D01*
X139154714Y-97627285D01*
X139169000Y-97598714D01*
X139183286Y-97584428D01*
X139211857Y-97570143D01*
X139240429Y-97570143D01*
X139283286Y-97584428D01*
X139454714Y-97755857D01*
X139454714Y-97570143D01*
X139283286Y-97398714D02*
X139269000Y-97427286D01*
X139254714Y-97441571D01*
X139226143Y-97455857D01*
X139211857Y-97455857D01*
X139183286Y-97441571D01*
X139169000Y-97427286D01*
X139154714Y-97398714D01*
X139154714Y-97341571D01*
X139169000Y-97313000D01*
X139183286Y-97298714D01*
X139211857Y-97284429D01*
X139226143Y-97284429D01*
X139254714Y-97298714D01*
X139269000Y-97313000D01*
X139283286Y-97341571D01*
X139283286Y-97398714D01*
X139297571Y-97427286D01*
X139311857Y-97441571D01*
X139340429Y-97455857D01*
X139397571Y-97455857D01*
X139426143Y-97441571D01*
X139440429Y-97427286D01*
X139454714Y-97398714D01*
X139454714Y-97341571D01*
X139440429Y-97313000D01*
X139426143Y-97298714D01*
X139397571Y-97284429D01*
X139340429Y-97284429D01*
X139311857Y-97298714D01*
X139297571Y-97313000D01*
X139283286Y-97341571D01*
X139200714Y-95442857D02*
X139057857Y-95542857D01*
X139200714Y-95614285D02*
X138900714Y-95614285D01*
X138900714Y-95500000D01*
X138915000Y-95471428D01*
X138929286Y-95457143D01*
X138957857Y-95442857D01*
X139000714Y-95442857D01*
X139029286Y-95457143D01*
X139043571Y-95471428D01*
X139057857Y-95500000D01*
X139057857Y-95614285D01*
X138929286Y-95328571D02*
X138915000Y-95314285D01*
X138900714Y-95285714D01*
X138900714Y-95214285D01*
X138915000Y-95185714D01*
X138929286Y-95171428D01*
X138957857Y-95157143D01*
X138986429Y-95157143D01*
X139029286Y-95171428D01*
X139200714Y-95342857D01*
X139200714Y-95157143D01*
X139200714Y-95014286D02*
X139200714Y-94957143D01*
X139186429Y-94928571D01*
X139172143Y-94914286D01*
X139129286Y-94885714D01*
X139072143Y-94871429D01*
X138957857Y-94871429D01*
X138929286Y-94885714D01*
X138915000Y-94900000D01*
X138900714Y-94928571D01*
X138900714Y-94985714D01*
X138915000Y-95014286D01*
X138929286Y-95028571D01*
X138957857Y-95042857D01*
X139029286Y-95042857D01*
X139057857Y-95028571D01*
X139072143Y-95014286D01*
X139086429Y-94985714D01*
X139086429Y-94928571D01*
X139072143Y-94900000D01*
X139057857Y-94885714D01*
X139029286Y-94871429D01*
X142301143Y-78697914D02*
X142201143Y-78555057D01*
X142129715Y-78697914D02*
X142129715Y-78397914D01*
X142244000Y-78397914D01*
X142272572Y-78412200D01*
X142286857Y-78426486D01*
X142301143Y-78455057D01*
X142301143Y-78497914D01*
X142286857Y-78526486D01*
X142272572Y-78540771D01*
X142244000Y-78555057D01*
X142129715Y-78555057D01*
X142401143Y-78397914D02*
X142586857Y-78397914D01*
X142486857Y-78512200D01*
X142529715Y-78512200D01*
X142558286Y-78526486D01*
X142572572Y-78540771D01*
X142586857Y-78569343D01*
X142586857Y-78640771D01*
X142572572Y-78669343D01*
X142558286Y-78683629D01*
X142529715Y-78697914D01*
X142444000Y-78697914D01*
X142415429Y-78683629D01*
X142401143Y-78669343D01*
X142872571Y-78697914D02*
X142701143Y-78697914D01*
X142786857Y-78697914D02*
X142786857Y-78397914D01*
X142758286Y-78440771D01*
X142729714Y-78469343D01*
X142701143Y-78483629D01*
X140142143Y-80221914D02*
X140042143Y-80079057D01*
X139970715Y-80221914D02*
X139970715Y-79921914D01*
X140085000Y-79921914D01*
X140113572Y-79936200D01*
X140127857Y-79950486D01*
X140142143Y-79979057D01*
X140142143Y-80021914D01*
X140127857Y-80050486D01*
X140113572Y-80064771D01*
X140085000Y-80079057D01*
X139970715Y-80079057D01*
X140242143Y-79921914D02*
X140427857Y-79921914D01*
X140327857Y-80036200D01*
X140370715Y-80036200D01*
X140399286Y-80050486D01*
X140413572Y-80064771D01*
X140427857Y-80093343D01*
X140427857Y-80164771D01*
X140413572Y-80193343D01*
X140399286Y-80207629D01*
X140370715Y-80221914D01*
X140285000Y-80221914D01*
X140256429Y-80207629D01*
X140242143Y-80193343D01*
X140542143Y-79950486D02*
X140556429Y-79936200D01*
X140585000Y-79921914D01*
X140656429Y-79921914D01*
X140685000Y-79936200D01*
X140699286Y-79950486D01*
X140713571Y-79979057D01*
X140713571Y-80007629D01*
X140699286Y-80050486D01*
X140527857Y-80221914D01*
X140713571Y-80221914D01*
D16*
X142767810Y-80819619D02*
X142744000Y-80867238D01*
X142696381Y-80914857D01*
X142624952Y-80986286D01*
X142601143Y-81033905D01*
X142601143Y-81081524D01*
X142720190Y-81057714D02*
X142696381Y-81105333D01*
X142648762Y-81152952D01*
X142553524Y-81176762D01*
X142386857Y-81176762D01*
X142291619Y-81152952D01*
X142244000Y-81105333D01*
X142220190Y-81057714D01*
X142220190Y-80962476D01*
X142244000Y-80914857D01*
X142291619Y-80867238D01*
X142386857Y-80843429D01*
X142553524Y-80843429D01*
X142648762Y-80867238D01*
X142696381Y-80914857D01*
X142720190Y-80962476D01*
X142720190Y-81057714D01*
X142720190Y-80367238D02*
X142720190Y-80652952D01*
X142720190Y-80510095D02*
X142220190Y-80510095D01*
X142291619Y-80557714D01*
X142339238Y-80605333D01*
X142363048Y-80652952D01*
D15*
X140194095Y-90531706D02*
X140075048Y-90615039D01*
X140194095Y-90674563D02*
X139944095Y-90674563D01*
X139944095Y-90579325D01*
X139956000Y-90555516D01*
X139967905Y-90543611D01*
X139991714Y-90531706D01*
X140027429Y-90531706D01*
X140051238Y-90543611D01*
X140063143Y-90555516D01*
X140075048Y-90579325D01*
X140075048Y-90674563D01*
X139944095Y-90305516D02*
X139944095Y-90424563D01*
X140063143Y-90436468D01*
X140051238Y-90424563D01*
X140039333Y-90400754D01*
X140039333Y-90341230D01*
X140051238Y-90317420D01*
X140063143Y-90305516D01*
X140086952Y-90293611D01*
X140146476Y-90293611D01*
X140170286Y-90305516D01*
X140182190Y-90317420D01*
X140194095Y-90341230D01*
X140194095Y-90400754D01*
X140182190Y-90424563D01*
X140170286Y-90436468D01*
D17*
X145433385Y-89541773D02*
X145312432Y-89626440D01*
X145433385Y-89686916D02*
X145179385Y-89686916D01*
X145179385Y-89590154D01*
X145191480Y-89565963D01*
X145203575Y-89553868D01*
X145227766Y-89541773D01*
X145264051Y-89541773D01*
X145288242Y-89553868D01*
X145300337Y-89565963D01*
X145312432Y-89590154D01*
X145312432Y-89686916D01*
X145179385Y-89324059D02*
X145179385Y-89372440D01*
X145191480Y-89396630D01*
X145203575Y-89408725D01*
X145239861Y-89432916D01*
X145288242Y-89445011D01*
X145385004Y-89445011D01*
X145409194Y-89432916D01*
X145421290Y-89420821D01*
X145433385Y-89396630D01*
X145433385Y-89348249D01*
X145421290Y-89324059D01*
X145409194Y-89311963D01*
X145385004Y-89299868D01*
X145324528Y-89299868D01*
X145300337Y-89311963D01*
X145288242Y-89324059D01*
X145276147Y-89348249D01*
X145276147Y-89396630D01*
X145288242Y-89420821D01*
X145300337Y-89432916D01*
X145324528Y-89445011D01*
D18*
X145402905Y-92574533D02*
X145281952Y-92659200D01*
X145402905Y-92719676D02*
X145148905Y-92719676D01*
X145148905Y-92622914D01*
X145161000Y-92598723D01*
X145173095Y-92586628D01*
X145197286Y-92574533D01*
X145233571Y-92574533D01*
X145257762Y-92586628D01*
X145269857Y-92598723D01*
X145281952Y-92622914D01*
X145281952Y-92719676D01*
X145148905Y-92489866D02*
X145148905Y-92320533D01*
X145402905Y-92429390D01*
D15*
X140902934Y-92020455D02*
X140819601Y-91901408D01*
X140760077Y-92020455D02*
X140760077Y-91770455D01*
X140855315Y-91770455D01*
X140879124Y-91782360D01*
X140891029Y-91794265D01*
X140902934Y-91818074D01*
X140902934Y-91853789D01*
X140891029Y-91877598D01*
X140879124Y-91889503D01*
X140855315Y-91901408D01*
X140760077Y-91901408D01*
X141045791Y-91877598D02*
X141021982Y-91865693D01*
X141010077Y-91853789D01*
X140998172Y-91829979D01*
X140998172Y-91818074D01*
X141010077Y-91794265D01*
X141021982Y-91782360D01*
X141045791Y-91770455D01*
X141093410Y-91770455D01*
X141117220Y-91782360D01*
X141129124Y-91794265D01*
X141141029Y-91818074D01*
X141141029Y-91829979D01*
X141129124Y-91853789D01*
X141117220Y-91865693D01*
X141093410Y-91877598D01*
X141045791Y-91877598D01*
X141021982Y-91889503D01*
X141010077Y-91901408D01*
X140998172Y-91925217D01*
X140998172Y-91972836D01*
X141010077Y-91996646D01*
X141021982Y-92008550D01*
X141045791Y-92020455D01*
X141093410Y-92020455D01*
X141117220Y-92008550D01*
X141129124Y-91996646D01*
X141141029Y-91972836D01*
X141141029Y-91925217D01*
X141129124Y-91901408D01*
X141117220Y-91889503D01*
X141093410Y-91877598D01*
D12*
X142581381Y-91947905D02*
X143390905Y-91947905D01*
X143486143Y-91900286D01*
X143533762Y-91852667D01*
X143581381Y-91757429D01*
X143581381Y-91566952D01*
X143533762Y-91471714D01*
X143486143Y-91424095D01*
X143390905Y-91376476D01*
X142581381Y-91376476D01*
X142914714Y-90471714D02*
X143581381Y-90471714D01*
X142533762Y-90709810D02*
X143248048Y-90947905D01*
X143248048Y-90328857D01*
D14*
X139959880Y-81460194D02*
X139859880Y-81317337D01*
X139788452Y-81460194D02*
X139788452Y-81160194D01*
X139902737Y-81160194D01*
X139931309Y-81174480D01*
X139945594Y-81188766D01*
X139959880Y-81217337D01*
X139959880Y-81260194D01*
X139945594Y-81288766D01*
X139931309Y-81303051D01*
X139902737Y-81317337D01*
X139788452Y-81317337D01*
X140102737Y-81460194D02*
X140159880Y-81460194D01*
X140188452Y-81445909D01*
X140202737Y-81431623D01*
X140231309Y-81388766D01*
X140245594Y-81331623D01*
X140245594Y-81217337D01*
X140231309Y-81188766D01*
X140217023Y-81174480D01*
X140188452Y-81160194D01*
X140131309Y-81160194D01*
X140102737Y-81174480D01*
X140088452Y-81188766D01*
X140074166Y-81217337D01*
X140074166Y-81288766D01*
X140088452Y-81317337D01*
X140102737Y-81331623D01*
X140131309Y-81345909D01*
X140188452Y-81345909D01*
X140217023Y-81331623D01*
X140231309Y-81317337D01*
X140245594Y-81288766D01*
D15*
X136848477Y-90791095D02*
X136848477Y-90541095D01*
X136908001Y-90541095D01*
X136943715Y-90553000D01*
X136967524Y-90576810D01*
X136979429Y-90600619D01*
X136991334Y-90648238D01*
X136991334Y-90683952D01*
X136979429Y-90731571D01*
X136967524Y-90755381D01*
X136943715Y-90779190D01*
X136908001Y-90791095D01*
X136848477Y-90791095D01*
X137217524Y-90541095D02*
X137098477Y-90541095D01*
X137086572Y-90660143D01*
X137098477Y-90648238D01*
X137122286Y-90636333D01*
X137181810Y-90636333D01*
X137205620Y-90648238D01*
X137217524Y-90660143D01*
X137229429Y-90683952D01*
X137229429Y-90743476D01*
X137217524Y-90767286D01*
X137205620Y-90779190D01*
X137181810Y-90791095D01*
X137122286Y-90791095D01*
X137098477Y-90779190D01*
X137086572Y-90767286D01*
X136848477Y-94093095D02*
X136848477Y-93843095D01*
X136908001Y-93843095D01*
X136943715Y-93855000D01*
X136967524Y-93878810D01*
X136979429Y-93902619D01*
X136991334Y-93950238D01*
X136991334Y-93985952D01*
X136979429Y-94033571D01*
X136967524Y-94057381D01*
X136943715Y-94081190D01*
X136908001Y-94093095D01*
X136848477Y-94093095D01*
X137205620Y-93843095D02*
X137158001Y-93843095D01*
X137134191Y-93855000D01*
X137122286Y-93866905D01*
X137098477Y-93902619D01*
X137086572Y-93950238D01*
X137086572Y-94045476D01*
X137098477Y-94069286D01*
X137110382Y-94081190D01*
X137134191Y-94093095D01*
X137181810Y-94093095D01*
X137205620Y-94081190D01*
X137217524Y-94069286D01*
X137229429Y-94045476D01*
X137229429Y-93985952D01*
X137217524Y-93962143D01*
X137205620Y-93950238D01*
X137181810Y-93938333D01*
X137134191Y-93938333D01*
X137110382Y-93950238D01*
X137098477Y-93962143D01*
X137086572Y-93985952D01*
X136848477Y-97395095D02*
X136848477Y-97145095D01*
X136908001Y-97145095D01*
X136943715Y-97157000D01*
X136967524Y-97180810D01*
X136979429Y-97204619D01*
X136991334Y-97252238D01*
X136991334Y-97287952D01*
X136979429Y-97335571D01*
X136967524Y-97359381D01*
X136943715Y-97383190D01*
X136908001Y-97395095D01*
X136848477Y-97395095D01*
X137074667Y-97145095D02*
X137241334Y-97145095D01*
X137134191Y-97395095D01*
X140658477Y-100062095D02*
X140658477Y-99812095D01*
X140718001Y-99812095D01*
X140753715Y-99824000D01*
X140777524Y-99847810D01*
X140789429Y-99871619D01*
X140801334Y-99919238D01*
X140801334Y-99954952D01*
X140789429Y-100002571D01*
X140777524Y-100026381D01*
X140753715Y-100050190D01*
X140718001Y-100062095D01*
X140658477Y-100062095D01*
X140944191Y-99919238D02*
X140920382Y-99907333D01*
X140908477Y-99895429D01*
X140896572Y-99871619D01*
X140896572Y-99859714D01*
X140908477Y-99835905D01*
X140920382Y-99824000D01*
X140944191Y-99812095D01*
X140991810Y-99812095D01*
X141015620Y-99824000D01*
X141027524Y-99835905D01*
X141039429Y-99859714D01*
X141039429Y-99871619D01*
X141027524Y-99895429D01*
X141015620Y-99907333D01*
X140991810Y-99919238D01*
X140944191Y-99919238D01*
X140920382Y-99931143D01*
X140908477Y-99943048D01*
X140896572Y-99966857D01*
X140896572Y-100014476D01*
X140908477Y-100038286D01*
X140920382Y-100050190D01*
X140944191Y-100062095D01*
X140991810Y-100062095D01*
X141015620Y-100050190D01*
X141027524Y-100038286D01*
X141039429Y-100014476D01*
X141039429Y-99966857D01*
X141027524Y-99943048D01*
X141015620Y-99931143D01*
X140991810Y-99919238D01*
X143452477Y-95998095D02*
X143452477Y-95748095D01*
X143512001Y-95748095D01*
X143547715Y-95760000D01*
X143571524Y-95783810D01*
X143583429Y-95807619D01*
X143595334Y-95855238D01*
X143595334Y-95890952D01*
X143583429Y-95938571D01*
X143571524Y-95962381D01*
X143547715Y-95986190D01*
X143512001Y-95998095D01*
X143452477Y-95998095D01*
X143714382Y-95998095D02*
X143762001Y-95998095D01*
X143785810Y-95986190D01*
X143797715Y-95974286D01*
X143821524Y-95938571D01*
X143833429Y-95890952D01*
X143833429Y-95795714D01*
X143821524Y-95771905D01*
X143809620Y-95760000D01*
X143785810Y-95748095D01*
X143738191Y-95748095D01*
X143714382Y-95760000D01*
X143702477Y-95771905D01*
X143690572Y-95795714D01*
X143690572Y-95855238D01*
X143702477Y-95879048D01*
X143714382Y-95890952D01*
X143738191Y-95902857D01*
X143785810Y-95902857D01*
X143809620Y-95890952D01*
X143821524Y-95879048D01*
X143833429Y-95855238D01*
X141428429Y-93204095D02*
X141428429Y-92954095D01*
X141487953Y-92954095D01*
X141523667Y-92966000D01*
X141547476Y-92989810D01*
X141559381Y-93013619D01*
X141571286Y-93061238D01*
X141571286Y-93096952D01*
X141559381Y-93144571D01*
X141547476Y-93168381D01*
X141523667Y-93192190D01*
X141487953Y-93204095D01*
X141428429Y-93204095D01*
X141809381Y-93204095D02*
X141666524Y-93204095D01*
X141737953Y-93204095D02*
X141737953Y-92954095D01*
X141714143Y-92989810D01*
X141690334Y-93013619D01*
X141666524Y-93025524D01*
X141964143Y-92954095D02*
X141987952Y-92954095D01*
X142011762Y-92966000D01*
X142023667Y-92977905D01*
X142035571Y-93001714D01*
X142047476Y-93049333D01*
X142047476Y-93108857D01*
X142035571Y-93156476D01*
X142023667Y-93180286D01*
X142011762Y-93192190D01*
X141987952Y-93204095D01*
X141964143Y-93204095D01*
X141940333Y-93192190D01*
X141928429Y-93180286D01*
X141916524Y-93156476D01*
X141904619Y-93108857D01*
X141904619Y-93049333D01*
X141916524Y-93001714D01*
X141928429Y-92977905D01*
X141940333Y-92966000D01*
X141964143Y-92954095D01*
X136729429Y-89140095D02*
X136729429Y-88890095D01*
X136788953Y-88890095D01*
X136824667Y-88902000D01*
X136848476Y-88925810D01*
X136860381Y-88949619D01*
X136872286Y-88997238D01*
X136872286Y-89032952D01*
X136860381Y-89080571D01*
X136848476Y-89104381D01*
X136824667Y-89128190D01*
X136788953Y-89140095D01*
X136729429Y-89140095D01*
X137110381Y-89140095D02*
X136967524Y-89140095D01*
X137038953Y-89140095D02*
X137038953Y-88890095D01*
X137015143Y-88925810D01*
X136991334Y-88949619D01*
X136967524Y-88961524D01*
X137348476Y-89140095D02*
X137205619Y-89140095D01*
X137277048Y-89140095D02*
X137277048Y-88890095D01*
X137253238Y-88925810D01*
X137229429Y-88949619D01*
X137205619Y-88961524D01*
X136729429Y-95744095D02*
X136729429Y-95494095D01*
X136788953Y-95494095D01*
X136824667Y-95506000D01*
X136848476Y-95529810D01*
X136860381Y-95553619D01*
X136872286Y-95601238D01*
X136872286Y-95636952D01*
X136860381Y-95684571D01*
X136848476Y-95708381D01*
X136824667Y-95732190D01*
X136788953Y-95744095D01*
X136729429Y-95744095D01*
X137110381Y-95744095D02*
X136967524Y-95744095D01*
X137038953Y-95744095D02*
X137038953Y-95494095D01*
X137015143Y-95529810D01*
X136991334Y-95553619D01*
X136967524Y-95565524D01*
X137193714Y-95494095D02*
X137348476Y-95494095D01*
X137265143Y-95589333D01*
X137300857Y-95589333D01*
X137324667Y-95601238D01*
X137336571Y-95613143D01*
X137348476Y-95636952D01*
X137348476Y-95696476D01*
X137336571Y-95720286D01*
X137324667Y-95732190D01*
X137300857Y-95744095D01*
X137229429Y-95744095D01*
X137205619Y-95732190D01*
X137193714Y-95720286D01*
X138380429Y-98411095D02*
X138380429Y-98161095D01*
X138439953Y-98161095D01*
X138475667Y-98173000D01*
X138499476Y-98196810D01*
X138511381Y-98220619D01*
X138523286Y-98268238D01*
X138523286Y-98303952D01*
X138511381Y-98351571D01*
X138499476Y-98375381D01*
X138475667Y-98399190D01*
X138439953Y-98411095D01*
X138380429Y-98411095D01*
X138761381Y-98411095D02*
X138618524Y-98411095D01*
X138689953Y-98411095D02*
X138689953Y-98161095D01*
X138666143Y-98196810D01*
X138642334Y-98220619D01*
X138618524Y-98232524D01*
X138975667Y-98244429D02*
X138975667Y-98411095D01*
X138916143Y-98149190D02*
X138856619Y-98327762D01*
X139011381Y-98327762D01*
X141936429Y-98792095D02*
X141936429Y-98542095D01*
X141995953Y-98542095D01*
X142031667Y-98554000D01*
X142055476Y-98577810D01*
X142067381Y-98601619D01*
X142079286Y-98649238D01*
X142079286Y-98684952D01*
X142067381Y-98732571D01*
X142055476Y-98756381D01*
X142031667Y-98780190D01*
X141995953Y-98792095D01*
X141936429Y-98792095D01*
X142317381Y-98792095D02*
X142174524Y-98792095D01*
X142245953Y-98792095D02*
X142245953Y-98542095D01*
X142222143Y-98577810D01*
X142198334Y-98601619D01*
X142174524Y-98613524D01*
X142543571Y-98542095D02*
X142424524Y-98542095D01*
X142412619Y-98661143D01*
X142424524Y-98649238D01*
X142448333Y-98637333D01*
X142507857Y-98637333D01*
X142531667Y-98649238D01*
X142543571Y-98661143D01*
X142555476Y-98684952D01*
X142555476Y-98744476D01*
X142543571Y-98768286D01*
X142531667Y-98780190D01*
X142507857Y-98792095D01*
X142448333Y-98792095D01*
X142424524Y-98780190D01*
X142412619Y-98768286D01*
X142698429Y-94474095D02*
X142698429Y-94224095D01*
X142757953Y-94224095D01*
X142793667Y-94236000D01*
X142817476Y-94259810D01*
X142829381Y-94283619D01*
X142841286Y-94331238D01*
X142841286Y-94366952D01*
X142829381Y-94414571D01*
X142817476Y-94438381D01*
X142793667Y-94462190D01*
X142757953Y-94474095D01*
X142698429Y-94474095D01*
X143079381Y-94474095D02*
X142936524Y-94474095D01*
X143007953Y-94474095D02*
X143007953Y-94224095D01*
X142984143Y-94259810D01*
X142960334Y-94283619D01*
X142936524Y-94295524D01*
X143293667Y-94224095D02*
X143246048Y-94224095D01*
X143222238Y-94236000D01*
X143210333Y-94247905D01*
X143186524Y-94283619D01*
X143174619Y-94331238D01*
X143174619Y-94426476D01*
X143186524Y-94450286D01*
X143198429Y-94462190D01*
X143222238Y-94474095D01*
X143269857Y-94474095D01*
X143293667Y-94462190D01*
X143305571Y-94450286D01*
X143317476Y-94426476D01*
X143317476Y-94366952D01*
X143305571Y-94343143D01*
X143293667Y-94331238D01*
X143269857Y-94319333D01*
X143222238Y-94319333D01*
X143198429Y-94331238D01*
X143186524Y-94343143D01*
X143174619Y-94366952D01*
X138888429Y-94220095D02*
X138888429Y-93970095D01*
X138947953Y-93970095D01*
X138983667Y-93982000D01*
X139007476Y-94005810D01*
X139019381Y-94029619D01*
X139031286Y-94077238D01*
X139031286Y-94112952D01*
X139019381Y-94160571D01*
X139007476Y-94184381D01*
X138983667Y-94208190D01*
X138947953Y-94220095D01*
X138888429Y-94220095D01*
X139269381Y-94220095D02*
X139126524Y-94220095D01*
X139197953Y-94220095D02*
X139197953Y-93970095D01*
X139174143Y-94005810D01*
X139150334Y-94029619D01*
X139126524Y-94041524D01*
X139352714Y-93970095D02*
X139519381Y-93970095D01*
X139412238Y-94220095D01*
M02*
