G04 #@! TF.FileFunction,Copper,L3,Inr,Plane*
%FSLAX46Y46*%
G04 Gerber Fmt 4.6, Leading zero omitted, Abs format (unit mm)*
G04 Created by KiCad (PCBNEW 4.0.5) date 07/06/17 21:13:05*
%MOMM*%
%LPD*%
G01*
G04 APERTURE LIST*
%ADD10C,0.100000*%
%ADD11O,1.250000X0.950000*%
%ADD12O,1.000000X1.550000*%
%ADD13C,0.355600*%
%ADD14C,0.304800*%
%ADD15C,0.304800*%
%ADD16C,0.152400*%
%ADD17C,0.254000*%
%ADD18C,0.203200*%
G04 APERTURE END LIST*
D10*
D11*
X137200000Y-102409000D03*
X142200000Y-102409000D03*
D12*
X136200000Y-105109000D03*
X143200000Y-105109000D03*
D13*
X136067800Y-71704200D03*
X135153400Y-71323200D03*
X135610600Y-77749400D03*
X135102600Y-80060800D03*
X139141200Y-100482400D03*
X136271000Y-100126800D03*
X135915400Y-92329000D03*
X139496800Y-96723200D03*
X140970000Y-91694000D03*
X134874000Y-81229200D03*
X141071600Y-81305400D03*
X141071600Y-80238600D03*
X138938000Y-82448400D03*
X139662799Y-91668600D03*
X138277600Y-81508600D03*
X144729200Y-77851000D03*
X143408400Y-82016600D03*
X135940800Y-74142600D03*
X144703800Y-71374000D03*
X137134600Y-67437000D03*
X135585200Y-77012800D03*
X141135382Y-90527782D03*
X143103600Y-99212400D03*
X141478000Y-100914200D03*
X134772400Y-79222600D03*
X134518400Y-82118200D03*
X142163800Y-78460600D03*
X138202199Y-83413438D03*
X143367362Y-89311540D03*
X139649200Y-90195400D03*
X134366000Y-67335400D03*
D14*
X141605000Y-105521760D03*
D13*
X135204200Y-86842600D03*
X139344400Y-97256600D03*
X145745200Y-91033600D03*
X135255000Y-67132200D03*
X144780000Y-81051400D03*
X133959600Y-81432400D03*
X144653000Y-76809600D03*
X137939499Y-78413842D03*
X140614400Y-78486000D03*
X139573000Y-78460600D03*
X138430000Y-100965000D03*
X141478000Y-92862400D03*
X142240000Y-89382600D03*
X138531600Y-96926400D03*
X144932400Y-87934800D03*
X141986000Y-99161600D03*
X145313400Y-94818200D03*
X144932400Y-86664800D03*
X144983200Y-85318600D03*
X143306800Y-93853001D03*
X139395200Y-98298000D03*
X142900400Y-89433400D03*
X142951200Y-97307400D03*
X144399000Y-89382600D03*
X143713200Y-95072200D03*
X145059400Y-85953600D03*
X140614400Y-92989400D03*
X145008600Y-84734400D03*
X138506200Y-90855800D03*
X134239000Y-90144600D03*
X143078200Y-79451200D03*
X144907000Y-72161400D03*
X142707808Y-79999392D03*
X144678400Y-76047600D03*
X145694400Y-93497400D03*
X145719800Y-89636600D03*
X143891000Y-92913200D03*
X136829800Y-89001600D03*
D15*
X139344400Y-97256600D02*
X139039599Y-96951799D01*
X139039599Y-96951799D02*
X139039599Y-96503743D01*
X139039599Y-96503743D02*
X135204200Y-92668344D01*
X135204200Y-92668344D02*
X135204200Y-86842600D01*
X140529059Y-97307400D02*
X139395200Y-97307400D01*
X139395200Y-97307400D02*
X139344400Y-97256600D01*
X145745200Y-91033600D02*
X145745200Y-92091259D01*
X145745200Y-92091259D02*
X140529059Y-97307400D01*
D16*
X140614400Y-92603318D02*
X140614400Y-92989400D01*
X145008600Y-84734400D02*
X144170400Y-85572600D01*
X144170400Y-85572600D02*
X144170400Y-89047318D01*
X144170400Y-89047318D02*
X140614400Y-92603318D01*
D17*
X143382999Y-93421201D02*
X143891000Y-92913200D01*
X136829800Y-89001600D02*
X136829800Y-89843866D01*
X136829800Y-89843866D02*
X140407135Y-93421201D01*
X140407135Y-93421201D02*
X143382999Y-93421201D01*
D18*
G36*
X134846110Y-66858472D02*
X134772484Y-67035784D01*
X134772463Y-67059477D01*
X134639728Y-66926510D01*
X134462416Y-66852884D01*
X134270426Y-66852716D01*
X134092986Y-66926033D01*
X133957110Y-67061672D01*
X133883484Y-67238984D01*
X133883316Y-67430974D01*
X133956633Y-67608414D01*
X134092272Y-67744290D01*
X134269584Y-67817916D01*
X134461574Y-67818084D01*
X134639014Y-67744767D01*
X134774890Y-67609128D01*
X134848516Y-67431816D01*
X134848537Y-67408123D01*
X134981272Y-67541090D01*
X135158584Y-67614716D01*
X135350574Y-67614884D01*
X135528014Y-67541567D01*
X135537022Y-67532574D01*
X136651916Y-67532574D01*
X136725233Y-67710014D01*
X136860872Y-67845890D01*
X137038184Y-67919516D01*
X137230174Y-67919684D01*
X137407614Y-67846367D01*
X137543490Y-67710728D01*
X137617116Y-67533416D01*
X137617284Y-67341426D01*
X137543967Y-67163986D01*
X137408328Y-67028110D01*
X137231016Y-66954484D01*
X137039026Y-66954316D01*
X136861586Y-67027633D01*
X136725710Y-67163272D01*
X136652084Y-67340584D01*
X136651916Y-67532574D01*
X135537022Y-67532574D01*
X135663890Y-67405928D01*
X135737516Y-67228616D01*
X135737684Y-67036626D01*
X135664367Y-66859186D01*
X135531214Y-66725800D01*
X145768200Y-66725800D01*
X145768200Y-89154042D01*
X145624226Y-89153916D01*
X145446786Y-89227233D01*
X145310910Y-89362872D01*
X145237284Y-89540184D01*
X145237116Y-89732174D01*
X145310433Y-89909614D01*
X145446072Y-90045490D01*
X145623384Y-90119116D01*
X145768200Y-90119243D01*
X145768200Y-90551020D01*
X145649626Y-90550916D01*
X145472186Y-90624233D01*
X145336310Y-90759872D01*
X145262684Y-90937184D01*
X145262516Y-91129174D01*
X145288000Y-91190850D01*
X145288000Y-91901881D01*
X144373266Y-92816615D01*
X144300367Y-92640186D01*
X144164728Y-92504310D01*
X143987416Y-92430684D01*
X143795426Y-92430516D01*
X143617986Y-92503833D01*
X143482110Y-92639472D01*
X143431012Y-92762530D01*
X143204141Y-92989401D01*
X141947816Y-92989401D01*
X141960516Y-92958816D01*
X141960684Y-92766826D01*
X141887367Y-92589386D01*
X141751728Y-92453510D01*
X141574416Y-92379884D01*
X141382426Y-92379716D01*
X141372869Y-92383665D01*
X144045227Y-89711306D01*
X144125272Y-89791490D01*
X144302584Y-89865116D01*
X144494574Y-89865284D01*
X144672014Y-89791967D01*
X144807890Y-89656328D01*
X144881516Y-89479016D01*
X144881684Y-89287026D01*
X144808367Y-89109586D01*
X144672728Y-88973710D01*
X144551400Y-88923330D01*
X144551400Y-88236231D01*
X144658672Y-88343690D01*
X144835984Y-88417316D01*
X145027974Y-88417484D01*
X145205414Y-88344167D01*
X145341290Y-88208528D01*
X145414916Y-88031216D01*
X145415084Y-87839226D01*
X145341767Y-87661786D01*
X145206128Y-87525910D01*
X145028816Y-87452284D01*
X144836826Y-87452116D01*
X144659386Y-87525433D01*
X144551400Y-87633231D01*
X144551400Y-86966231D01*
X144658672Y-87073690D01*
X144835984Y-87147316D01*
X145027974Y-87147484D01*
X145205414Y-87074167D01*
X145341290Y-86938528D01*
X145414916Y-86761216D01*
X145415084Y-86569226D01*
X145341767Y-86391786D01*
X145318668Y-86368647D01*
X145332414Y-86362967D01*
X145468290Y-86227328D01*
X145541916Y-86050016D01*
X145542084Y-85858026D01*
X145468767Y-85680586D01*
X145386366Y-85598042D01*
X145392090Y-85592328D01*
X145465716Y-85415016D01*
X145465884Y-85223026D01*
X145392567Y-85045586D01*
X145386278Y-85039286D01*
X145417490Y-85008128D01*
X145491116Y-84830816D01*
X145491284Y-84638826D01*
X145417967Y-84461386D01*
X145282328Y-84325510D01*
X145105016Y-84251884D01*
X144913026Y-84251716D01*
X144735586Y-84325033D01*
X144599710Y-84460672D01*
X144526084Y-84637984D01*
X144526049Y-84678135D01*
X143900992Y-85303192D01*
X143818402Y-85426797D01*
X143818402Y-85426798D01*
X143789400Y-85572600D01*
X143789400Y-88889503D01*
X143708612Y-88970290D01*
X143641090Y-88902650D01*
X143463778Y-88829024D01*
X143271788Y-88828856D01*
X143094348Y-88902173D01*
X143031235Y-88965176D01*
X142996816Y-88950884D01*
X142804826Y-88950716D01*
X142627386Y-89024033D01*
X142595619Y-89055744D01*
X142513728Y-88973710D01*
X142336416Y-88900084D01*
X142144426Y-88899916D01*
X141966986Y-88973233D01*
X141831110Y-89108872D01*
X141757484Y-89286184D01*
X141757316Y-89478174D01*
X141830633Y-89655614D01*
X141966272Y-89791490D01*
X142143584Y-89865116D01*
X142335574Y-89865284D01*
X142513014Y-89791967D01*
X142544781Y-89760256D01*
X142626672Y-89842290D01*
X142775015Y-89903887D01*
X140344992Y-92333910D01*
X140262402Y-92457515D01*
X140262402Y-92457516D01*
X140233400Y-92603318D01*
X140233400Y-92636809D01*
X138820522Y-91223931D01*
X138915090Y-91129528D01*
X138988716Y-90952216D01*
X138988884Y-90760226D01*
X138915567Y-90582786D01*
X138779928Y-90446910D01*
X138602616Y-90373284D01*
X138410626Y-90373116D01*
X138233186Y-90446433D01*
X138138022Y-90541431D01*
X137887566Y-90290974D01*
X139166516Y-90290974D01*
X139239833Y-90468414D01*
X139375472Y-90604290D01*
X139552784Y-90677916D01*
X139744774Y-90678084D01*
X139877225Y-90623356D01*
X140652698Y-90623356D01*
X140726015Y-90800796D01*
X140861654Y-90936672D01*
X141038966Y-91010298D01*
X141230956Y-91010466D01*
X141408396Y-90937149D01*
X141544272Y-90801510D01*
X141617898Y-90624198D01*
X141618066Y-90432208D01*
X141544749Y-90254768D01*
X141409110Y-90118892D01*
X141231798Y-90045266D01*
X141039808Y-90045098D01*
X140862368Y-90118415D01*
X140726492Y-90254054D01*
X140652866Y-90431366D01*
X140652698Y-90623356D01*
X139877225Y-90623356D01*
X139922214Y-90604767D01*
X140058090Y-90469128D01*
X140131716Y-90291816D01*
X140131884Y-90099826D01*
X140058567Y-89922386D01*
X139922928Y-89786510D01*
X139745616Y-89712884D01*
X139553626Y-89712716D01*
X139376186Y-89786033D01*
X139240310Y-89921672D01*
X139166684Y-90098984D01*
X139166516Y-90290974D01*
X137887566Y-90290974D01*
X137261600Y-89665008D01*
X137261600Y-89220154D01*
X137312316Y-89098016D01*
X137312484Y-88906026D01*
X137239167Y-88728586D01*
X137103528Y-88592710D01*
X136926216Y-88519084D01*
X136734226Y-88518916D01*
X136556786Y-88592233D01*
X136420910Y-88727872D01*
X136347284Y-88905184D01*
X136347116Y-89097174D01*
X136398000Y-89220322D01*
X136398000Y-89843866D01*
X136430869Y-90009109D01*
X136455178Y-90045490D01*
X136524471Y-90149195D01*
X140101804Y-93726527D01*
X140101806Y-93726530D01*
X140241892Y-93820132D01*
X140269308Y-93825586D01*
X140407135Y-93853002D01*
X140407140Y-93853001D01*
X142824200Y-93853001D01*
X142824116Y-93948575D01*
X142897433Y-94126015D01*
X142980577Y-94209304D01*
X140339681Y-96850200D01*
X139620614Y-96850200D01*
X139618128Y-96847710D01*
X139556496Y-96822118D01*
X139496799Y-96762421D01*
X139496799Y-96503743D01*
X139461997Y-96328780D01*
X139362888Y-96180454D01*
X135661400Y-92478966D01*
X135661400Y-86999984D01*
X135686716Y-86939016D01*
X135686884Y-86747026D01*
X135613567Y-86569586D01*
X135477928Y-86433710D01*
X135300616Y-86360084D01*
X135108626Y-86359916D01*
X134931186Y-86433233D01*
X134795310Y-86568872D01*
X134721684Y-86746184D01*
X134721516Y-86938174D01*
X134747000Y-86999850D01*
X134747000Y-92668344D01*
X134781802Y-92843307D01*
X134880911Y-92991633D01*
X138363119Y-96473841D01*
X138258586Y-96517033D01*
X138122710Y-96652672D01*
X138049084Y-96829984D01*
X138048916Y-97021974D01*
X138122233Y-97199414D01*
X138257872Y-97335290D01*
X138435184Y-97408916D01*
X138627174Y-97409084D01*
X138785066Y-97343844D01*
X138909823Y-97468601D01*
X138935033Y-97529614D01*
X139070672Y-97665490D01*
X139211526Y-97723977D01*
X139220237Y-97729798D01*
X139230423Y-97731824D01*
X139247984Y-97739116D01*
X139267167Y-97739133D01*
X139395200Y-97764600D01*
X140529059Y-97764600D01*
X140704022Y-97729798D01*
X140852348Y-97630689D01*
X141080063Y-97402974D01*
X142468516Y-97402974D01*
X142541833Y-97580414D01*
X142677472Y-97716290D01*
X142854784Y-97789916D01*
X143046774Y-97790084D01*
X143224214Y-97716767D01*
X143360090Y-97581128D01*
X143433716Y-97403816D01*
X143433884Y-97211826D01*
X143360567Y-97034386D01*
X143224928Y-96898510D01*
X143047616Y-96824884D01*
X142855626Y-96824716D01*
X142678186Y-96898033D01*
X142542310Y-97033672D01*
X142468684Y-97210984D01*
X142468516Y-97402974D01*
X141080063Y-97402974D01*
X143255295Y-95227742D01*
X143303833Y-95345214D01*
X143439472Y-95481090D01*
X143616784Y-95554716D01*
X143808774Y-95554884D01*
X143986214Y-95481567D01*
X144122090Y-95345928D01*
X144195716Y-95168616D01*
X144195884Y-94976626D01*
X144122567Y-94799186D01*
X143986928Y-94663310D01*
X143868784Y-94614253D01*
X145768200Y-92714837D01*
X145768200Y-93014864D01*
X145598826Y-93014716D01*
X145421386Y-93088033D01*
X145285510Y-93223672D01*
X145211884Y-93400984D01*
X145211716Y-93592974D01*
X145285033Y-93770414D01*
X145420672Y-93906290D01*
X145597984Y-93979916D01*
X145768200Y-93980065D01*
X145768200Y-94655142D01*
X145722767Y-94545186D01*
X145587128Y-94409310D01*
X145409816Y-94335684D01*
X145217826Y-94335516D01*
X145040386Y-94408833D01*
X144904510Y-94544472D01*
X144830884Y-94721784D01*
X144830716Y-94913774D01*
X144904033Y-95091214D01*
X145039672Y-95227090D01*
X145216984Y-95300716D01*
X145408974Y-95300884D01*
X145586414Y-95227567D01*
X145722290Y-95091928D01*
X145768200Y-94981364D01*
X145768200Y-107518200D01*
X133631800Y-107518200D01*
X133631800Y-104812845D01*
X135395200Y-104812845D01*
X135395200Y-105405155D01*
X135456462Y-105713139D01*
X135630920Y-105974235D01*
X135892016Y-106148693D01*
X136200000Y-106209955D01*
X136507984Y-106148693D01*
X136769080Y-105974235D01*
X136943538Y-105713139D01*
X136963595Y-105612304D01*
X141147721Y-105612304D01*
X141217179Y-105780405D01*
X141345679Y-105909129D01*
X141513658Y-105978880D01*
X141695544Y-105979039D01*
X141863645Y-105909581D01*
X141992369Y-105781081D01*
X142062120Y-105613102D01*
X142062279Y-105431216D01*
X141992821Y-105263115D01*
X141864321Y-105134391D01*
X141696342Y-105064640D01*
X141514456Y-105064481D01*
X141346355Y-105133939D01*
X141217631Y-105262439D01*
X141147880Y-105430418D01*
X141147721Y-105612304D01*
X136963595Y-105612304D01*
X137004800Y-105405155D01*
X137004800Y-104812845D01*
X142395200Y-104812845D01*
X142395200Y-105405155D01*
X142456462Y-105713139D01*
X142630920Y-105974235D01*
X142892016Y-106148693D01*
X143200000Y-106209955D01*
X143507984Y-106148693D01*
X143769080Y-105974235D01*
X143943538Y-105713139D01*
X144004800Y-105405155D01*
X144004800Y-104812845D01*
X143943538Y-104504861D01*
X143769080Y-104243765D01*
X143507984Y-104069307D01*
X143200000Y-104008045D01*
X142892016Y-104069307D01*
X142630920Y-104243765D01*
X142456462Y-104504861D01*
X142395200Y-104812845D01*
X137004800Y-104812845D01*
X136943538Y-104504861D01*
X136769080Y-104243765D01*
X136507984Y-104069307D01*
X136200000Y-104008045D01*
X135892016Y-104069307D01*
X135630920Y-104243765D01*
X135456462Y-104504861D01*
X135395200Y-104812845D01*
X133631800Y-104812845D01*
X133631800Y-102409000D01*
X136251984Y-102409000D01*
X136311343Y-102707417D01*
X136480382Y-102960402D01*
X136733367Y-103129441D01*
X137031784Y-103188800D01*
X137368216Y-103188800D01*
X137666633Y-103129441D01*
X137919618Y-102960402D01*
X138088657Y-102707417D01*
X138148016Y-102409000D01*
X141251984Y-102409000D01*
X141311343Y-102707417D01*
X141480382Y-102960402D01*
X141733367Y-103129441D01*
X142031784Y-103188800D01*
X142368216Y-103188800D01*
X142666633Y-103129441D01*
X142919618Y-102960402D01*
X143088657Y-102707417D01*
X143148016Y-102409000D01*
X143088657Y-102110583D01*
X142919618Y-101857598D01*
X142666633Y-101688559D01*
X142368216Y-101629200D01*
X142031784Y-101629200D01*
X141733367Y-101688559D01*
X141480382Y-101857598D01*
X141311343Y-102110583D01*
X141251984Y-102409000D01*
X138148016Y-102409000D01*
X138088657Y-102110583D01*
X137919618Y-101857598D01*
X137666633Y-101688559D01*
X137368216Y-101629200D01*
X137031784Y-101629200D01*
X136733367Y-101688559D01*
X136480382Y-101857598D01*
X136311343Y-102110583D01*
X136251984Y-102409000D01*
X133631800Y-102409000D01*
X133631800Y-101060574D01*
X137947316Y-101060574D01*
X138020633Y-101238014D01*
X138156272Y-101373890D01*
X138333584Y-101447516D01*
X138525574Y-101447684D01*
X138703014Y-101374367D01*
X138838890Y-101238728D01*
X138912516Y-101061416D01*
X138912561Y-101009774D01*
X140995316Y-101009774D01*
X141068633Y-101187214D01*
X141204272Y-101323090D01*
X141381584Y-101396716D01*
X141573574Y-101396884D01*
X141751014Y-101323567D01*
X141886890Y-101187928D01*
X141960516Y-101010616D01*
X141960684Y-100818626D01*
X141887367Y-100641186D01*
X141751728Y-100505310D01*
X141574416Y-100431684D01*
X141382426Y-100431516D01*
X141204986Y-100504833D01*
X141069110Y-100640472D01*
X140995484Y-100817784D01*
X140995316Y-101009774D01*
X138912561Y-101009774D01*
X138912684Y-100869426D01*
X138839367Y-100691986D01*
X138703728Y-100556110D01*
X138526416Y-100482484D01*
X138334426Y-100482316D01*
X138156986Y-100555633D01*
X138021110Y-100691272D01*
X137947484Y-100868584D01*
X137947316Y-101060574D01*
X133631800Y-101060574D01*
X133631800Y-99257174D01*
X141503316Y-99257174D01*
X141576633Y-99434614D01*
X141712272Y-99570490D01*
X141889584Y-99644116D01*
X142081574Y-99644284D01*
X142259014Y-99570967D01*
X142394890Y-99435328D01*
X142447771Y-99307974D01*
X142620916Y-99307974D01*
X142694233Y-99485414D01*
X142829872Y-99621290D01*
X143007184Y-99694916D01*
X143199174Y-99695084D01*
X143376614Y-99621767D01*
X143512490Y-99486128D01*
X143586116Y-99308816D01*
X143586284Y-99116826D01*
X143512967Y-98939386D01*
X143377328Y-98803510D01*
X143200016Y-98729884D01*
X143008026Y-98729716D01*
X142830586Y-98803033D01*
X142694710Y-98938672D01*
X142621084Y-99115984D01*
X142620916Y-99307974D01*
X142447771Y-99307974D01*
X142468516Y-99258016D01*
X142468684Y-99066026D01*
X142395367Y-98888586D01*
X142259728Y-98752710D01*
X142082416Y-98679084D01*
X141890426Y-98678916D01*
X141712986Y-98752233D01*
X141577110Y-98887872D01*
X141503484Y-99065184D01*
X141503316Y-99257174D01*
X133631800Y-99257174D01*
X133631800Y-98393574D01*
X138912516Y-98393574D01*
X138985833Y-98571014D01*
X139121472Y-98706890D01*
X139298784Y-98780516D01*
X139490774Y-98780684D01*
X139668214Y-98707367D01*
X139804090Y-98571728D01*
X139877716Y-98394416D01*
X139877884Y-98202426D01*
X139804567Y-98024986D01*
X139668928Y-97889110D01*
X139491616Y-97815484D01*
X139299626Y-97815316D01*
X139122186Y-97888633D01*
X138986310Y-98024272D01*
X138912684Y-98201584D01*
X138912516Y-98393574D01*
X133631800Y-98393574D01*
X133631800Y-90240174D01*
X133756316Y-90240174D01*
X133829633Y-90417614D01*
X133965272Y-90553490D01*
X134142584Y-90627116D01*
X134334574Y-90627284D01*
X134512014Y-90553967D01*
X134647890Y-90418328D01*
X134721516Y-90241016D01*
X134721684Y-90049026D01*
X134648367Y-89871586D01*
X134512728Y-89735710D01*
X134335416Y-89662084D01*
X134143426Y-89661916D01*
X133965986Y-89735233D01*
X133830110Y-89870872D01*
X133756484Y-90048184D01*
X133756316Y-90240174D01*
X133631800Y-90240174D01*
X133631800Y-83509012D01*
X137719515Y-83509012D01*
X137792832Y-83686452D01*
X137928471Y-83822328D01*
X138105783Y-83895954D01*
X138297773Y-83896122D01*
X138475213Y-83822805D01*
X138611089Y-83687166D01*
X138684715Y-83509854D01*
X138684883Y-83317864D01*
X138611566Y-83140424D01*
X138475927Y-83004548D01*
X138298615Y-82930922D01*
X138106625Y-82930754D01*
X137929185Y-83004071D01*
X137793309Y-83139710D01*
X137719683Y-83317022D01*
X137719515Y-83509012D01*
X133631800Y-83509012D01*
X133631800Y-81787124D01*
X133685872Y-81841290D01*
X133863184Y-81914916D01*
X134055174Y-81915084D01*
X134085370Y-81902607D01*
X134035884Y-82021784D01*
X134035716Y-82213774D01*
X134109033Y-82391214D01*
X134244672Y-82527090D01*
X134421984Y-82600716D01*
X134613974Y-82600884D01*
X134791414Y-82527567D01*
X134927290Y-82391928D01*
X135000916Y-82214616D01*
X135001005Y-82112174D01*
X142925716Y-82112174D01*
X142999033Y-82289614D01*
X143134672Y-82425490D01*
X143311984Y-82499116D01*
X143503974Y-82499284D01*
X143681414Y-82425967D01*
X143817290Y-82290328D01*
X143890916Y-82113016D01*
X143891084Y-81921026D01*
X143817767Y-81743586D01*
X143682128Y-81607710D01*
X143504816Y-81534084D01*
X143312826Y-81533916D01*
X143135386Y-81607233D01*
X142999510Y-81742872D01*
X142925884Y-81920184D01*
X142925716Y-82112174D01*
X135001005Y-82112174D01*
X135001084Y-82022626D01*
X134927767Y-81845186D01*
X134792128Y-81709310D01*
X134614816Y-81635684D01*
X134422826Y-81635516D01*
X134392630Y-81647993D01*
X134410825Y-81604174D01*
X137794916Y-81604174D01*
X137868233Y-81781614D01*
X138003872Y-81917490D01*
X138181184Y-81991116D01*
X138373174Y-81991284D01*
X138550614Y-81917967D01*
X138686490Y-81782328D01*
X138760116Y-81605016D01*
X138760284Y-81413026D01*
X138686967Y-81235586D01*
X138598510Y-81146974D01*
X144297316Y-81146974D01*
X144370633Y-81324414D01*
X144506272Y-81460290D01*
X144683584Y-81533916D01*
X144875574Y-81534084D01*
X145053014Y-81460767D01*
X145188890Y-81325128D01*
X145262516Y-81147816D01*
X145262684Y-80955826D01*
X145189367Y-80778386D01*
X145053728Y-80642510D01*
X144876416Y-80568884D01*
X144684426Y-80568716D01*
X144506986Y-80642033D01*
X144371110Y-80777672D01*
X144297484Y-80954984D01*
X144297316Y-81146974D01*
X138598510Y-81146974D01*
X138551328Y-81099710D01*
X138374016Y-81026084D01*
X138182026Y-81025916D01*
X138004586Y-81099233D01*
X137868710Y-81234872D01*
X137795084Y-81412184D01*
X137794916Y-81604174D01*
X134410825Y-81604174D01*
X134442116Y-81528816D01*
X134442284Y-81336826D01*
X134368967Y-81159386D01*
X134233328Y-81023510D01*
X134056016Y-80949884D01*
X133864026Y-80949716D01*
X133686586Y-81023033D01*
X133631800Y-81077723D01*
X133631800Y-80094966D01*
X142225124Y-80094966D01*
X142298441Y-80272406D01*
X142434080Y-80408282D01*
X142611392Y-80481908D01*
X142803382Y-80482076D01*
X142980822Y-80408759D01*
X143116698Y-80273120D01*
X143190324Y-80095808D01*
X143190472Y-79926985D01*
X143351214Y-79860567D01*
X143487090Y-79724928D01*
X143560716Y-79547616D01*
X143560884Y-79355626D01*
X143487567Y-79178186D01*
X143351928Y-79042310D01*
X143174616Y-78968684D01*
X142982626Y-78968516D01*
X142805186Y-79041833D01*
X142669310Y-79177472D01*
X142595684Y-79354784D01*
X142595536Y-79523607D01*
X142434794Y-79590025D01*
X142298918Y-79725664D01*
X142225292Y-79902976D01*
X142225124Y-80094966D01*
X133631800Y-80094966D01*
X133631800Y-79318174D01*
X134289716Y-79318174D01*
X134363033Y-79495614D01*
X134498672Y-79631490D01*
X134675984Y-79705116D01*
X134867974Y-79705284D01*
X135045414Y-79631967D01*
X135181290Y-79496328D01*
X135254916Y-79319016D01*
X135255084Y-79127026D01*
X135181767Y-78949586D01*
X135046128Y-78813710D01*
X134868816Y-78740084D01*
X134676826Y-78739916D01*
X134499386Y-78813233D01*
X134363510Y-78948872D01*
X134289884Y-79126184D01*
X134289716Y-79318174D01*
X133631800Y-79318174D01*
X133631800Y-78509416D01*
X137456815Y-78509416D01*
X137530132Y-78686856D01*
X137665771Y-78822732D01*
X137843083Y-78896358D01*
X138035073Y-78896526D01*
X138212513Y-78823209D01*
X138348389Y-78687570D01*
X138402949Y-78556174D01*
X139090316Y-78556174D01*
X139163633Y-78733614D01*
X139299272Y-78869490D01*
X139476584Y-78943116D01*
X139668574Y-78943284D01*
X139846014Y-78869967D01*
X139981890Y-78734328D01*
X140045318Y-78581574D01*
X140131716Y-78581574D01*
X140205033Y-78759014D01*
X140340672Y-78894890D01*
X140517984Y-78968516D01*
X140709974Y-78968684D01*
X140887414Y-78895367D01*
X141023290Y-78759728D01*
X141096916Y-78582416D01*
X141096938Y-78556174D01*
X141681116Y-78556174D01*
X141754433Y-78733614D01*
X141890072Y-78869490D01*
X142067384Y-78943116D01*
X142259374Y-78943284D01*
X142436814Y-78869967D01*
X142572690Y-78734328D01*
X142646316Y-78557016D01*
X142646484Y-78365026D01*
X142573167Y-78187586D01*
X142437528Y-78051710D01*
X142260216Y-77978084D01*
X142068226Y-77977916D01*
X141890786Y-78051233D01*
X141754910Y-78186872D01*
X141681284Y-78364184D01*
X141681116Y-78556174D01*
X141096938Y-78556174D01*
X141097084Y-78390426D01*
X141023767Y-78212986D01*
X140888128Y-78077110D01*
X140710816Y-78003484D01*
X140518826Y-78003316D01*
X140341386Y-78076633D01*
X140205510Y-78212272D01*
X140131884Y-78389584D01*
X140131716Y-78581574D01*
X140045318Y-78581574D01*
X140055516Y-78557016D01*
X140055684Y-78365026D01*
X139982367Y-78187586D01*
X139846728Y-78051710D01*
X139669416Y-77978084D01*
X139477426Y-77977916D01*
X139299986Y-78051233D01*
X139164110Y-78186872D01*
X139090484Y-78364184D01*
X139090316Y-78556174D01*
X138402949Y-78556174D01*
X138422015Y-78510258D01*
X138422183Y-78318268D01*
X138348866Y-78140828D01*
X138213227Y-78004952D01*
X138072637Y-77946574D01*
X144246516Y-77946574D01*
X144319833Y-78124014D01*
X144455472Y-78259890D01*
X144632784Y-78333516D01*
X144824774Y-78333684D01*
X145002214Y-78260367D01*
X145138090Y-78124728D01*
X145211716Y-77947416D01*
X145211884Y-77755426D01*
X145138567Y-77577986D01*
X145002928Y-77442110D01*
X144825616Y-77368484D01*
X144633626Y-77368316D01*
X144456186Y-77441633D01*
X144320310Y-77577272D01*
X144246684Y-77754584D01*
X144246516Y-77946574D01*
X138072637Y-77946574D01*
X138035915Y-77931326D01*
X137843925Y-77931158D01*
X137666485Y-78004475D01*
X137530609Y-78140114D01*
X137456983Y-78317426D01*
X137456815Y-78509416D01*
X133631800Y-78509416D01*
X133631800Y-77108374D01*
X135102516Y-77108374D01*
X135175833Y-77285814D01*
X135311472Y-77421690D01*
X135488784Y-77495316D01*
X135680774Y-77495484D01*
X135858214Y-77422167D01*
X135994090Y-77286528D01*
X136067716Y-77109216D01*
X136067884Y-76917226D01*
X136062905Y-76905174D01*
X144170316Y-76905174D01*
X144243633Y-77082614D01*
X144379272Y-77218490D01*
X144556584Y-77292116D01*
X144748574Y-77292284D01*
X144926014Y-77218967D01*
X145061890Y-77083328D01*
X145135516Y-76906016D01*
X145135684Y-76714026D01*
X145062367Y-76536586D01*
X144967178Y-76441231D01*
X145087290Y-76321328D01*
X145160916Y-76144016D01*
X145161084Y-75952026D01*
X145087767Y-75774586D01*
X144952128Y-75638710D01*
X144774816Y-75565084D01*
X144582826Y-75564916D01*
X144405386Y-75638233D01*
X144269510Y-75773872D01*
X144195884Y-75951184D01*
X144195716Y-76143174D01*
X144269033Y-76320614D01*
X144364222Y-76415969D01*
X144244110Y-76535872D01*
X144170484Y-76713184D01*
X144170316Y-76905174D01*
X136062905Y-76905174D01*
X135994567Y-76739786D01*
X135858928Y-76603910D01*
X135681616Y-76530284D01*
X135489626Y-76530116D01*
X135312186Y-76603433D01*
X135176310Y-76739072D01*
X135102684Y-76916384D01*
X135102516Y-77108374D01*
X133631800Y-77108374D01*
X133631800Y-74238174D01*
X135458116Y-74238174D01*
X135531433Y-74415614D01*
X135667072Y-74551490D01*
X135844384Y-74625116D01*
X136036374Y-74625284D01*
X136213814Y-74551967D01*
X136349690Y-74416328D01*
X136423316Y-74239016D01*
X136423484Y-74047026D01*
X136350167Y-73869586D01*
X136214528Y-73733710D01*
X136037216Y-73660084D01*
X135845226Y-73659916D01*
X135667786Y-73733233D01*
X135531910Y-73868872D01*
X135458284Y-74046184D01*
X135458116Y-74238174D01*
X133631800Y-74238174D01*
X133631800Y-71469574D01*
X144221116Y-71469574D01*
X144294433Y-71647014D01*
X144430072Y-71782890D01*
X144552253Y-71833624D01*
X144498110Y-71887672D01*
X144424484Y-72064984D01*
X144424316Y-72256974D01*
X144497633Y-72434414D01*
X144633272Y-72570290D01*
X144810584Y-72643916D01*
X145002574Y-72644084D01*
X145180014Y-72570767D01*
X145315890Y-72435128D01*
X145389516Y-72257816D01*
X145389684Y-72065826D01*
X145316367Y-71888386D01*
X145180728Y-71752510D01*
X145058547Y-71701776D01*
X145112690Y-71647728D01*
X145186316Y-71470416D01*
X145186484Y-71278426D01*
X145113167Y-71100986D01*
X144977528Y-70965110D01*
X144800216Y-70891484D01*
X144608226Y-70891316D01*
X144430786Y-70964633D01*
X144294910Y-71100272D01*
X144221284Y-71277584D01*
X144221116Y-71469574D01*
X133631800Y-71469574D01*
X133631800Y-66725800D01*
X134979014Y-66725800D01*
X134846110Y-66858472D01*
X134846110Y-66858472D01*
G37*
X134846110Y-66858472D02*
X134772484Y-67035784D01*
X134772463Y-67059477D01*
X134639728Y-66926510D01*
X134462416Y-66852884D01*
X134270426Y-66852716D01*
X134092986Y-66926033D01*
X133957110Y-67061672D01*
X133883484Y-67238984D01*
X133883316Y-67430974D01*
X133956633Y-67608414D01*
X134092272Y-67744290D01*
X134269584Y-67817916D01*
X134461574Y-67818084D01*
X134639014Y-67744767D01*
X134774890Y-67609128D01*
X134848516Y-67431816D01*
X134848537Y-67408123D01*
X134981272Y-67541090D01*
X135158584Y-67614716D01*
X135350574Y-67614884D01*
X135528014Y-67541567D01*
X135537022Y-67532574D01*
X136651916Y-67532574D01*
X136725233Y-67710014D01*
X136860872Y-67845890D01*
X137038184Y-67919516D01*
X137230174Y-67919684D01*
X137407614Y-67846367D01*
X137543490Y-67710728D01*
X137617116Y-67533416D01*
X137617284Y-67341426D01*
X137543967Y-67163986D01*
X137408328Y-67028110D01*
X137231016Y-66954484D01*
X137039026Y-66954316D01*
X136861586Y-67027633D01*
X136725710Y-67163272D01*
X136652084Y-67340584D01*
X136651916Y-67532574D01*
X135537022Y-67532574D01*
X135663890Y-67405928D01*
X135737516Y-67228616D01*
X135737684Y-67036626D01*
X135664367Y-66859186D01*
X135531214Y-66725800D01*
X145768200Y-66725800D01*
X145768200Y-89154042D01*
X145624226Y-89153916D01*
X145446786Y-89227233D01*
X145310910Y-89362872D01*
X145237284Y-89540184D01*
X145237116Y-89732174D01*
X145310433Y-89909614D01*
X145446072Y-90045490D01*
X145623384Y-90119116D01*
X145768200Y-90119243D01*
X145768200Y-90551020D01*
X145649626Y-90550916D01*
X145472186Y-90624233D01*
X145336310Y-90759872D01*
X145262684Y-90937184D01*
X145262516Y-91129174D01*
X145288000Y-91190850D01*
X145288000Y-91901881D01*
X144373266Y-92816615D01*
X144300367Y-92640186D01*
X144164728Y-92504310D01*
X143987416Y-92430684D01*
X143795426Y-92430516D01*
X143617986Y-92503833D01*
X143482110Y-92639472D01*
X143431012Y-92762530D01*
X143204141Y-92989401D01*
X141947816Y-92989401D01*
X141960516Y-92958816D01*
X141960684Y-92766826D01*
X141887367Y-92589386D01*
X141751728Y-92453510D01*
X141574416Y-92379884D01*
X141382426Y-92379716D01*
X141372869Y-92383665D01*
X144045227Y-89711306D01*
X144125272Y-89791490D01*
X144302584Y-89865116D01*
X144494574Y-89865284D01*
X144672014Y-89791967D01*
X144807890Y-89656328D01*
X144881516Y-89479016D01*
X144881684Y-89287026D01*
X144808367Y-89109586D01*
X144672728Y-88973710D01*
X144551400Y-88923330D01*
X144551400Y-88236231D01*
X144658672Y-88343690D01*
X144835984Y-88417316D01*
X145027974Y-88417484D01*
X145205414Y-88344167D01*
X145341290Y-88208528D01*
X145414916Y-88031216D01*
X145415084Y-87839226D01*
X145341767Y-87661786D01*
X145206128Y-87525910D01*
X145028816Y-87452284D01*
X144836826Y-87452116D01*
X144659386Y-87525433D01*
X144551400Y-87633231D01*
X144551400Y-86966231D01*
X144658672Y-87073690D01*
X144835984Y-87147316D01*
X145027974Y-87147484D01*
X145205414Y-87074167D01*
X145341290Y-86938528D01*
X145414916Y-86761216D01*
X145415084Y-86569226D01*
X145341767Y-86391786D01*
X145318668Y-86368647D01*
X145332414Y-86362967D01*
X145468290Y-86227328D01*
X145541916Y-86050016D01*
X145542084Y-85858026D01*
X145468767Y-85680586D01*
X145386366Y-85598042D01*
X145392090Y-85592328D01*
X145465716Y-85415016D01*
X145465884Y-85223026D01*
X145392567Y-85045586D01*
X145386278Y-85039286D01*
X145417490Y-85008128D01*
X145491116Y-84830816D01*
X145491284Y-84638826D01*
X145417967Y-84461386D01*
X145282328Y-84325510D01*
X145105016Y-84251884D01*
X144913026Y-84251716D01*
X144735586Y-84325033D01*
X144599710Y-84460672D01*
X144526084Y-84637984D01*
X144526049Y-84678135D01*
X143900992Y-85303192D01*
X143818402Y-85426797D01*
X143818402Y-85426798D01*
X143789400Y-85572600D01*
X143789400Y-88889503D01*
X143708612Y-88970290D01*
X143641090Y-88902650D01*
X143463778Y-88829024D01*
X143271788Y-88828856D01*
X143094348Y-88902173D01*
X143031235Y-88965176D01*
X142996816Y-88950884D01*
X142804826Y-88950716D01*
X142627386Y-89024033D01*
X142595619Y-89055744D01*
X142513728Y-88973710D01*
X142336416Y-88900084D01*
X142144426Y-88899916D01*
X141966986Y-88973233D01*
X141831110Y-89108872D01*
X141757484Y-89286184D01*
X141757316Y-89478174D01*
X141830633Y-89655614D01*
X141966272Y-89791490D01*
X142143584Y-89865116D01*
X142335574Y-89865284D01*
X142513014Y-89791967D01*
X142544781Y-89760256D01*
X142626672Y-89842290D01*
X142775015Y-89903887D01*
X140344992Y-92333910D01*
X140262402Y-92457515D01*
X140262402Y-92457516D01*
X140233400Y-92603318D01*
X140233400Y-92636809D01*
X138820522Y-91223931D01*
X138915090Y-91129528D01*
X138988716Y-90952216D01*
X138988884Y-90760226D01*
X138915567Y-90582786D01*
X138779928Y-90446910D01*
X138602616Y-90373284D01*
X138410626Y-90373116D01*
X138233186Y-90446433D01*
X138138022Y-90541431D01*
X137887566Y-90290974D01*
X139166516Y-90290974D01*
X139239833Y-90468414D01*
X139375472Y-90604290D01*
X139552784Y-90677916D01*
X139744774Y-90678084D01*
X139877225Y-90623356D01*
X140652698Y-90623356D01*
X140726015Y-90800796D01*
X140861654Y-90936672D01*
X141038966Y-91010298D01*
X141230956Y-91010466D01*
X141408396Y-90937149D01*
X141544272Y-90801510D01*
X141617898Y-90624198D01*
X141618066Y-90432208D01*
X141544749Y-90254768D01*
X141409110Y-90118892D01*
X141231798Y-90045266D01*
X141039808Y-90045098D01*
X140862368Y-90118415D01*
X140726492Y-90254054D01*
X140652866Y-90431366D01*
X140652698Y-90623356D01*
X139877225Y-90623356D01*
X139922214Y-90604767D01*
X140058090Y-90469128D01*
X140131716Y-90291816D01*
X140131884Y-90099826D01*
X140058567Y-89922386D01*
X139922928Y-89786510D01*
X139745616Y-89712884D01*
X139553626Y-89712716D01*
X139376186Y-89786033D01*
X139240310Y-89921672D01*
X139166684Y-90098984D01*
X139166516Y-90290974D01*
X137887566Y-90290974D01*
X137261600Y-89665008D01*
X137261600Y-89220154D01*
X137312316Y-89098016D01*
X137312484Y-88906026D01*
X137239167Y-88728586D01*
X137103528Y-88592710D01*
X136926216Y-88519084D01*
X136734226Y-88518916D01*
X136556786Y-88592233D01*
X136420910Y-88727872D01*
X136347284Y-88905184D01*
X136347116Y-89097174D01*
X136398000Y-89220322D01*
X136398000Y-89843866D01*
X136430869Y-90009109D01*
X136455178Y-90045490D01*
X136524471Y-90149195D01*
X140101804Y-93726527D01*
X140101806Y-93726530D01*
X140241892Y-93820132D01*
X140269308Y-93825586D01*
X140407135Y-93853002D01*
X140407140Y-93853001D01*
X142824200Y-93853001D01*
X142824116Y-93948575D01*
X142897433Y-94126015D01*
X142980577Y-94209304D01*
X140339681Y-96850200D01*
X139620614Y-96850200D01*
X139618128Y-96847710D01*
X139556496Y-96822118D01*
X139496799Y-96762421D01*
X139496799Y-96503743D01*
X139461997Y-96328780D01*
X139362888Y-96180454D01*
X135661400Y-92478966D01*
X135661400Y-86999984D01*
X135686716Y-86939016D01*
X135686884Y-86747026D01*
X135613567Y-86569586D01*
X135477928Y-86433710D01*
X135300616Y-86360084D01*
X135108626Y-86359916D01*
X134931186Y-86433233D01*
X134795310Y-86568872D01*
X134721684Y-86746184D01*
X134721516Y-86938174D01*
X134747000Y-86999850D01*
X134747000Y-92668344D01*
X134781802Y-92843307D01*
X134880911Y-92991633D01*
X138363119Y-96473841D01*
X138258586Y-96517033D01*
X138122710Y-96652672D01*
X138049084Y-96829984D01*
X138048916Y-97021974D01*
X138122233Y-97199414D01*
X138257872Y-97335290D01*
X138435184Y-97408916D01*
X138627174Y-97409084D01*
X138785066Y-97343844D01*
X138909823Y-97468601D01*
X138935033Y-97529614D01*
X139070672Y-97665490D01*
X139211526Y-97723977D01*
X139220237Y-97729798D01*
X139230423Y-97731824D01*
X139247984Y-97739116D01*
X139267167Y-97739133D01*
X139395200Y-97764600D01*
X140529059Y-97764600D01*
X140704022Y-97729798D01*
X140852348Y-97630689D01*
X141080063Y-97402974D01*
X142468516Y-97402974D01*
X142541833Y-97580414D01*
X142677472Y-97716290D01*
X142854784Y-97789916D01*
X143046774Y-97790084D01*
X143224214Y-97716767D01*
X143360090Y-97581128D01*
X143433716Y-97403816D01*
X143433884Y-97211826D01*
X143360567Y-97034386D01*
X143224928Y-96898510D01*
X143047616Y-96824884D01*
X142855626Y-96824716D01*
X142678186Y-96898033D01*
X142542310Y-97033672D01*
X142468684Y-97210984D01*
X142468516Y-97402974D01*
X141080063Y-97402974D01*
X143255295Y-95227742D01*
X143303833Y-95345214D01*
X143439472Y-95481090D01*
X143616784Y-95554716D01*
X143808774Y-95554884D01*
X143986214Y-95481567D01*
X144122090Y-95345928D01*
X144195716Y-95168616D01*
X144195884Y-94976626D01*
X144122567Y-94799186D01*
X143986928Y-94663310D01*
X143868784Y-94614253D01*
X145768200Y-92714837D01*
X145768200Y-93014864D01*
X145598826Y-93014716D01*
X145421386Y-93088033D01*
X145285510Y-93223672D01*
X145211884Y-93400984D01*
X145211716Y-93592974D01*
X145285033Y-93770414D01*
X145420672Y-93906290D01*
X145597984Y-93979916D01*
X145768200Y-93980065D01*
X145768200Y-94655142D01*
X145722767Y-94545186D01*
X145587128Y-94409310D01*
X145409816Y-94335684D01*
X145217826Y-94335516D01*
X145040386Y-94408833D01*
X144904510Y-94544472D01*
X144830884Y-94721784D01*
X144830716Y-94913774D01*
X144904033Y-95091214D01*
X145039672Y-95227090D01*
X145216984Y-95300716D01*
X145408974Y-95300884D01*
X145586414Y-95227567D01*
X145722290Y-95091928D01*
X145768200Y-94981364D01*
X145768200Y-107518200D01*
X133631800Y-107518200D01*
X133631800Y-104812845D01*
X135395200Y-104812845D01*
X135395200Y-105405155D01*
X135456462Y-105713139D01*
X135630920Y-105974235D01*
X135892016Y-106148693D01*
X136200000Y-106209955D01*
X136507984Y-106148693D01*
X136769080Y-105974235D01*
X136943538Y-105713139D01*
X136963595Y-105612304D01*
X141147721Y-105612304D01*
X141217179Y-105780405D01*
X141345679Y-105909129D01*
X141513658Y-105978880D01*
X141695544Y-105979039D01*
X141863645Y-105909581D01*
X141992369Y-105781081D01*
X142062120Y-105613102D01*
X142062279Y-105431216D01*
X141992821Y-105263115D01*
X141864321Y-105134391D01*
X141696342Y-105064640D01*
X141514456Y-105064481D01*
X141346355Y-105133939D01*
X141217631Y-105262439D01*
X141147880Y-105430418D01*
X141147721Y-105612304D01*
X136963595Y-105612304D01*
X137004800Y-105405155D01*
X137004800Y-104812845D01*
X142395200Y-104812845D01*
X142395200Y-105405155D01*
X142456462Y-105713139D01*
X142630920Y-105974235D01*
X142892016Y-106148693D01*
X143200000Y-106209955D01*
X143507984Y-106148693D01*
X143769080Y-105974235D01*
X143943538Y-105713139D01*
X144004800Y-105405155D01*
X144004800Y-104812845D01*
X143943538Y-104504861D01*
X143769080Y-104243765D01*
X143507984Y-104069307D01*
X143200000Y-104008045D01*
X142892016Y-104069307D01*
X142630920Y-104243765D01*
X142456462Y-104504861D01*
X142395200Y-104812845D01*
X137004800Y-104812845D01*
X136943538Y-104504861D01*
X136769080Y-104243765D01*
X136507984Y-104069307D01*
X136200000Y-104008045D01*
X135892016Y-104069307D01*
X135630920Y-104243765D01*
X135456462Y-104504861D01*
X135395200Y-104812845D01*
X133631800Y-104812845D01*
X133631800Y-102409000D01*
X136251984Y-102409000D01*
X136311343Y-102707417D01*
X136480382Y-102960402D01*
X136733367Y-103129441D01*
X137031784Y-103188800D01*
X137368216Y-103188800D01*
X137666633Y-103129441D01*
X137919618Y-102960402D01*
X138088657Y-102707417D01*
X138148016Y-102409000D01*
X141251984Y-102409000D01*
X141311343Y-102707417D01*
X141480382Y-102960402D01*
X141733367Y-103129441D01*
X142031784Y-103188800D01*
X142368216Y-103188800D01*
X142666633Y-103129441D01*
X142919618Y-102960402D01*
X143088657Y-102707417D01*
X143148016Y-102409000D01*
X143088657Y-102110583D01*
X142919618Y-101857598D01*
X142666633Y-101688559D01*
X142368216Y-101629200D01*
X142031784Y-101629200D01*
X141733367Y-101688559D01*
X141480382Y-101857598D01*
X141311343Y-102110583D01*
X141251984Y-102409000D01*
X138148016Y-102409000D01*
X138088657Y-102110583D01*
X137919618Y-101857598D01*
X137666633Y-101688559D01*
X137368216Y-101629200D01*
X137031784Y-101629200D01*
X136733367Y-101688559D01*
X136480382Y-101857598D01*
X136311343Y-102110583D01*
X136251984Y-102409000D01*
X133631800Y-102409000D01*
X133631800Y-101060574D01*
X137947316Y-101060574D01*
X138020633Y-101238014D01*
X138156272Y-101373890D01*
X138333584Y-101447516D01*
X138525574Y-101447684D01*
X138703014Y-101374367D01*
X138838890Y-101238728D01*
X138912516Y-101061416D01*
X138912561Y-101009774D01*
X140995316Y-101009774D01*
X141068633Y-101187214D01*
X141204272Y-101323090D01*
X141381584Y-101396716D01*
X141573574Y-101396884D01*
X141751014Y-101323567D01*
X141886890Y-101187928D01*
X141960516Y-101010616D01*
X141960684Y-100818626D01*
X141887367Y-100641186D01*
X141751728Y-100505310D01*
X141574416Y-100431684D01*
X141382426Y-100431516D01*
X141204986Y-100504833D01*
X141069110Y-100640472D01*
X140995484Y-100817784D01*
X140995316Y-101009774D01*
X138912561Y-101009774D01*
X138912684Y-100869426D01*
X138839367Y-100691986D01*
X138703728Y-100556110D01*
X138526416Y-100482484D01*
X138334426Y-100482316D01*
X138156986Y-100555633D01*
X138021110Y-100691272D01*
X137947484Y-100868584D01*
X137947316Y-101060574D01*
X133631800Y-101060574D01*
X133631800Y-99257174D01*
X141503316Y-99257174D01*
X141576633Y-99434614D01*
X141712272Y-99570490D01*
X141889584Y-99644116D01*
X142081574Y-99644284D01*
X142259014Y-99570967D01*
X142394890Y-99435328D01*
X142447771Y-99307974D01*
X142620916Y-99307974D01*
X142694233Y-99485414D01*
X142829872Y-99621290D01*
X143007184Y-99694916D01*
X143199174Y-99695084D01*
X143376614Y-99621767D01*
X143512490Y-99486128D01*
X143586116Y-99308816D01*
X143586284Y-99116826D01*
X143512967Y-98939386D01*
X143377328Y-98803510D01*
X143200016Y-98729884D01*
X143008026Y-98729716D01*
X142830586Y-98803033D01*
X142694710Y-98938672D01*
X142621084Y-99115984D01*
X142620916Y-99307974D01*
X142447771Y-99307974D01*
X142468516Y-99258016D01*
X142468684Y-99066026D01*
X142395367Y-98888586D01*
X142259728Y-98752710D01*
X142082416Y-98679084D01*
X141890426Y-98678916D01*
X141712986Y-98752233D01*
X141577110Y-98887872D01*
X141503484Y-99065184D01*
X141503316Y-99257174D01*
X133631800Y-99257174D01*
X133631800Y-98393574D01*
X138912516Y-98393574D01*
X138985833Y-98571014D01*
X139121472Y-98706890D01*
X139298784Y-98780516D01*
X139490774Y-98780684D01*
X139668214Y-98707367D01*
X139804090Y-98571728D01*
X139877716Y-98394416D01*
X139877884Y-98202426D01*
X139804567Y-98024986D01*
X139668928Y-97889110D01*
X139491616Y-97815484D01*
X139299626Y-97815316D01*
X139122186Y-97888633D01*
X138986310Y-98024272D01*
X138912684Y-98201584D01*
X138912516Y-98393574D01*
X133631800Y-98393574D01*
X133631800Y-90240174D01*
X133756316Y-90240174D01*
X133829633Y-90417614D01*
X133965272Y-90553490D01*
X134142584Y-90627116D01*
X134334574Y-90627284D01*
X134512014Y-90553967D01*
X134647890Y-90418328D01*
X134721516Y-90241016D01*
X134721684Y-90049026D01*
X134648367Y-89871586D01*
X134512728Y-89735710D01*
X134335416Y-89662084D01*
X134143426Y-89661916D01*
X133965986Y-89735233D01*
X133830110Y-89870872D01*
X133756484Y-90048184D01*
X133756316Y-90240174D01*
X133631800Y-90240174D01*
X133631800Y-83509012D01*
X137719515Y-83509012D01*
X137792832Y-83686452D01*
X137928471Y-83822328D01*
X138105783Y-83895954D01*
X138297773Y-83896122D01*
X138475213Y-83822805D01*
X138611089Y-83687166D01*
X138684715Y-83509854D01*
X138684883Y-83317864D01*
X138611566Y-83140424D01*
X138475927Y-83004548D01*
X138298615Y-82930922D01*
X138106625Y-82930754D01*
X137929185Y-83004071D01*
X137793309Y-83139710D01*
X137719683Y-83317022D01*
X137719515Y-83509012D01*
X133631800Y-83509012D01*
X133631800Y-81787124D01*
X133685872Y-81841290D01*
X133863184Y-81914916D01*
X134055174Y-81915084D01*
X134085370Y-81902607D01*
X134035884Y-82021784D01*
X134035716Y-82213774D01*
X134109033Y-82391214D01*
X134244672Y-82527090D01*
X134421984Y-82600716D01*
X134613974Y-82600884D01*
X134791414Y-82527567D01*
X134927290Y-82391928D01*
X135000916Y-82214616D01*
X135001005Y-82112174D01*
X142925716Y-82112174D01*
X142999033Y-82289614D01*
X143134672Y-82425490D01*
X143311984Y-82499116D01*
X143503974Y-82499284D01*
X143681414Y-82425967D01*
X143817290Y-82290328D01*
X143890916Y-82113016D01*
X143891084Y-81921026D01*
X143817767Y-81743586D01*
X143682128Y-81607710D01*
X143504816Y-81534084D01*
X143312826Y-81533916D01*
X143135386Y-81607233D01*
X142999510Y-81742872D01*
X142925884Y-81920184D01*
X142925716Y-82112174D01*
X135001005Y-82112174D01*
X135001084Y-82022626D01*
X134927767Y-81845186D01*
X134792128Y-81709310D01*
X134614816Y-81635684D01*
X134422826Y-81635516D01*
X134392630Y-81647993D01*
X134410825Y-81604174D01*
X137794916Y-81604174D01*
X137868233Y-81781614D01*
X138003872Y-81917490D01*
X138181184Y-81991116D01*
X138373174Y-81991284D01*
X138550614Y-81917967D01*
X138686490Y-81782328D01*
X138760116Y-81605016D01*
X138760284Y-81413026D01*
X138686967Y-81235586D01*
X138598510Y-81146974D01*
X144297316Y-81146974D01*
X144370633Y-81324414D01*
X144506272Y-81460290D01*
X144683584Y-81533916D01*
X144875574Y-81534084D01*
X145053014Y-81460767D01*
X145188890Y-81325128D01*
X145262516Y-81147816D01*
X145262684Y-80955826D01*
X145189367Y-80778386D01*
X145053728Y-80642510D01*
X144876416Y-80568884D01*
X144684426Y-80568716D01*
X144506986Y-80642033D01*
X144371110Y-80777672D01*
X144297484Y-80954984D01*
X144297316Y-81146974D01*
X138598510Y-81146974D01*
X138551328Y-81099710D01*
X138374016Y-81026084D01*
X138182026Y-81025916D01*
X138004586Y-81099233D01*
X137868710Y-81234872D01*
X137795084Y-81412184D01*
X137794916Y-81604174D01*
X134410825Y-81604174D01*
X134442116Y-81528816D01*
X134442284Y-81336826D01*
X134368967Y-81159386D01*
X134233328Y-81023510D01*
X134056016Y-80949884D01*
X133864026Y-80949716D01*
X133686586Y-81023033D01*
X133631800Y-81077723D01*
X133631800Y-80094966D01*
X142225124Y-80094966D01*
X142298441Y-80272406D01*
X142434080Y-80408282D01*
X142611392Y-80481908D01*
X142803382Y-80482076D01*
X142980822Y-80408759D01*
X143116698Y-80273120D01*
X143190324Y-80095808D01*
X143190472Y-79926985D01*
X143351214Y-79860567D01*
X143487090Y-79724928D01*
X143560716Y-79547616D01*
X143560884Y-79355626D01*
X143487567Y-79178186D01*
X143351928Y-79042310D01*
X143174616Y-78968684D01*
X142982626Y-78968516D01*
X142805186Y-79041833D01*
X142669310Y-79177472D01*
X142595684Y-79354784D01*
X142595536Y-79523607D01*
X142434794Y-79590025D01*
X142298918Y-79725664D01*
X142225292Y-79902976D01*
X142225124Y-80094966D01*
X133631800Y-80094966D01*
X133631800Y-79318174D01*
X134289716Y-79318174D01*
X134363033Y-79495614D01*
X134498672Y-79631490D01*
X134675984Y-79705116D01*
X134867974Y-79705284D01*
X135045414Y-79631967D01*
X135181290Y-79496328D01*
X135254916Y-79319016D01*
X135255084Y-79127026D01*
X135181767Y-78949586D01*
X135046128Y-78813710D01*
X134868816Y-78740084D01*
X134676826Y-78739916D01*
X134499386Y-78813233D01*
X134363510Y-78948872D01*
X134289884Y-79126184D01*
X134289716Y-79318174D01*
X133631800Y-79318174D01*
X133631800Y-78509416D01*
X137456815Y-78509416D01*
X137530132Y-78686856D01*
X137665771Y-78822732D01*
X137843083Y-78896358D01*
X138035073Y-78896526D01*
X138212513Y-78823209D01*
X138348389Y-78687570D01*
X138402949Y-78556174D01*
X139090316Y-78556174D01*
X139163633Y-78733614D01*
X139299272Y-78869490D01*
X139476584Y-78943116D01*
X139668574Y-78943284D01*
X139846014Y-78869967D01*
X139981890Y-78734328D01*
X140045318Y-78581574D01*
X140131716Y-78581574D01*
X140205033Y-78759014D01*
X140340672Y-78894890D01*
X140517984Y-78968516D01*
X140709974Y-78968684D01*
X140887414Y-78895367D01*
X141023290Y-78759728D01*
X141096916Y-78582416D01*
X141096938Y-78556174D01*
X141681116Y-78556174D01*
X141754433Y-78733614D01*
X141890072Y-78869490D01*
X142067384Y-78943116D01*
X142259374Y-78943284D01*
X142436814Y-78869967D01*
X142572690Y-78734328D01*
X142646316Y-78557016D01*
X142646484Y-78365026D01*
X142573167Y-78187586D01*
X142437528Y-78051710D01*
X142260216Y-77978084D01*
X142068226Y-77977916D01*
X141890786Y-78051233D01*
X141754910Y-78186872D01*
X141681284Y-78364184D01*
X141681116Y-78556174D01*
X141096938Y-78556174D01*
X141097084Y-78390426D01*
X141023767Y-78212986D01*
X140888128Y-78077110D01*
X140710816Y-78003484D01*
X140518826Y-78003316D01*
X140341386Y-78076633D01*
X140205510Y-78212272D01*
X140131884Y-78389584D01*
X140131716Y-78581574D01*
X140045318Y-78581574D01*
X140055516Y-78557016D01*
X140055684Y-78365026D01*
X139982367Y-78187586D01*
X139846728Y-78051710D01*
X139669416Y-77978084D01*
X139477426Y-77977916D01*
X139299986Y-78051233D01*
X139164110Y-78186872D01*
X139090484Y-78364184D01*
X139090316Y-78556174D01*
X138402949Y-78556174D01*
X138422015Y-78510258D01*
X138422183Y-78318268D01*
X138348866Y-78140828D01*
X138213227Y-78004952D01*
X138072637Y-77946574D01*
X144246516Y-77946574D01*
X144319833Y-78124014D01*
X144455472Y-78259890D01*
X144632784Y-78333516D01*
X144824774Y-78333684D01*
X145002214Y-78260367D01*
X145138090Y-78124728D01*
X145211716Y-77947416D01*
X145211884Y-77755426D01*
X145138567Y-77577986D01*
X145002928Y-77442110D01*
X144825616Y-77368484D01*
X144633626Y-77368316D01*
X144456186Y-77441633D01*
X144320310Y-77577272D01*
X144246684Y-77754584D01*
X144246516Y-77946574D01*
X138072637Y-77946574D01*
X138035915Y-77931326D01*
X137843925Y-77931158D01*
X137666485Y-78004475D01*
X137530609Y-78140114D01*
X137456983Y-78317426D01*
X137456815Y-78509416D01*
X133631800Y-78509416D01*
X133631800Y-77108374D01*
X135102516Y-77108374D01*
X135175833Y-77285814D01*
X135311472Y-77421690D01*
X135488784Y-77495316D01*
X135680774Y-77495484D01*
X135858214Y-77422167D01*
X135994090Y-77286528D01*
X136067716Y-77109216D01*
X136067884Y-76917226D01*
X136062905Y-76905174D01*
X144170316Y-76905174D01*
X144243633Y-77082614D01*
X144379272Y-77218490D01*
X144556584Y-77292116D01*
X144748574Y-77292284D01*
X144926014Y-77218967D01*
X145061890Y-77083328D01*
X145135516Y-76906016D01*
X145135684Y-76714026D01*
X145062367Y-76536586D01*
X144967178Y-76441231D01*
X145087290Y-76321328D01*
X145160916Y-76144016D01*
X145161084Y-75952026D01*
X145087767Y-75774586D01*
X144952128Y-75638710D01*
X144774816Y-75565084D01*
X144582826Y-75564916D01*
X144405386Y-75638233D01*
X144269510Y-75773872D01*
X144195884Y-75951184D01*
X144195716Y-76143174D01*
X144269033Y-76320614D01*
X144364222Y-76415969D01*
X144244110Y-76535872D01*
X144170484Y-76713184D01*
X144170316Y-76905174D01*
X136062905Y-76905174D01*
X135994567Y-76739786D01*
X135858928Y-76603910D01*
X135681616Y-76530284D01*
X135489626Y-76530116D01*
X135312186Y-76603433D01*
X135176310Y-76739072D01*
X135102684Y-76916384D01*
X135102516Y-77108374D01*
X133631800Y-77108374D01*
X133631800Y-74238174D01*
X135458116Y-74238174D01*
X135531433Y-74415614D01*
X135667072Y-74551490D01*
X135844384Y-74625116D01*
X136036374Y-74625284D01*
X136213814Y-74551967D01*
X136349690Y-74416328D01*
X136423316Y-74239016D01*
X136423484Y-74047026D01*
X136350167Y-73869586D01*
X136214528Y-73733710D01*
X136037216Y-73660084D01*
X135845226Y-73659916D01*
X135667786Y-73733233D01*
X135531910Y-73868872D01*
X135458284Y-74046184D01*
X135458116Y-74238174D01*
X133631800Y-74238174D01*
X133631800Y-71469574D01*
X144221116Y-71469574D01*
X144294433Y-71647014D01*
X144430072Y-71782890D01*
X144552253Y-71833624D01*
X144498110Y-71887672D01*
X144424484Y-72064984D01*
X144424316Y-72256974D01*
X144497633Y-72434414D01*
X144633272Y-72570290D01*
X144810584Y-72643916D01*
X145002574Y-72644084D01*
X145180014Y-72570767D01*
X145315890Y-72435128D01*
X145389516Y-72257816D01*
X145389684Y-72065826D01*
X145316367Y-71888386D01*
X145180728Y-71752510D01*
X145058547Y-71701776D01*
X145112690Y-71647728D01*
X145186316Y-71470416D01*
X145186484Y-71278426D01*
X145113167Y-71100986D01*
X144977528Y-70965110D01*
X144800216Y-70891484D01*
X144608226Y-70891316D01*
X144430786Y-70964633D01*
X144294910Y-71100272D01*
X144221284Y-71277584D01*
X144221116Y-71469574D01*
X133631800Y-71469574D01*
X133631800Y-66725800D01*
X134979014Y-66725800D01*
X134846110Y-66858472D01*
M02*
