G04 #@! TF.FileFunction,Copper,L2,Inr,Plane*
%FSLAX46Y46*%
G04 Gerber Fmt 4.6, Leading zero omitted, Abs format (unit mm)*
G04 Created by KiCad (PCBNEW 4.0.5) date 07/06/17 21:13:05*
%MOMM*%
%LPD*%
G01*
G04 APERTURE LIST*
%ADD10C,0.100000*%
%ADD11O,1.250000X0.950000*%
%ADD12O,1.000000X1.550000*%
%ADD13C,0.355600*%
%ADD14C,0.304800*%
%ADD15C,0.381000*%
%ADD16C,0.152400*%
%ADD17C,0.304800*%
%ADD18C,0.203200*%
G04 APERTURE END LIST*
D10*
D11*
X137200000Y-102409000D03*
X142200000Y-102409000D03*
D12*
X136200000Y-105109000D03*
X143200000Y-105109000D03*
D13*
X136067800Y-71704200D03*
X135153400Y-71323200D03*
X135610600Y-77749400D03*
X135102600Y-80060800D03*
X139141200Y-100482400D03*
X136271000Y-100126800D03*
X135915400Y-92329000D03*
X139496800Y-96723200D03*
X140970000Y-91694000D03*
X134874000Y-81229200D03*
X141071600Y-81305400D03*
X141071600Y-80238600D03*
X138938000Y-82448400D03*
X139662799Y-91668600D03*
X138277600Y-81508600D03*
X144729200Y-77851000D03*
X143408400Y-82016600D03*
X135940800Y-74142600D03*
X144703800Y-71374000D03*
X137134600Y-67437000D03*
X135585200Y-77012800D03*
X141135382Y-90527782D03*
X143103600Y-99212400D03*
X141478000Y-100914200D03*
X134772400Y-79222600D03*
X134518400Y-82118200D03*
X142163800Y-78460600D03*
X138202199Y-83413438D03*
X143367362Y-89311540D03*
X139649200Y-90195400D03*
X134366000Y-67335400D03*
D14*
X141605000Y-105521760D03*
D13*
X135204200Y-86842600D03*
X139344400Y-97256600D03*
X145745200Y-91033600D03*
X135255000Y-67132200D03*
X144780000Y-81051400D03*
X133959600Y-81432400D03*
X144653000Y-76809600D03*
X137939499Y-78413842D03*
X140614400Y-78486000D03*
X139573000Y-78460600D03*
X138430000Y-100965000D03*
X141478000Y-92862400D03*
X142240000Y-89382600D03*
X138531600Y-96926400D03*
X144932400Y-87934800D03*
X141986000Y-99161600D03*
X145313400Y-94818200D03*
X144932400Y-86664800D03*
X144983200Y-85318600D03*
X143306800Y-93853001D03*
X139395200Y-98298000D03*
X142900400Y-89433400D03*
X142951200Y-97307400D03*
X144399000Y-89382600D03*
X143713200Y-95072200D03*
X145059400Y-85953600D03*
X140614400Y-92989400D03*
X145008600Y-84734400D03*
X138506200Y-90855800D03*
X134239000Y-90144600D03*
X143078200Y-79451200D03*
X144907000Y-72161400D03*
X142707808Y-79999392D03*
X144678400Y-76047600D03*
X145694400Y-93497400D03*
X145719800Y-89636600D03*
X143891000Y-92913200D03*
X136829800Y-89001600D03*
D15*
X138036299Y-100571299D02*
X138430000Y-100965000D01*
X141478000Y-92862400D02*
X138036299Y-96304101D01*
X138036299Y-96304101D02*
X138036299Y-100571299D01*
D16*
X138531600Y-96926400D02*
X142240000Y-93218000D01*
X142240000Y-93218000D02*
X142240000Y-89382600D01*
X141986000Y-99161600D02*
X144932400Y-96215200D01*
X144932400Y-96215200D02*
X144932400Y-87934800D01*
X142900400Y-89433400D02*
X142900400Y-94792800D01*
X142900400Y-94792800D02*
X139395200Y-98298000D01*
X144399000Y-89382600D02*
X144399000Y-95859600D01*
X144399000Y-95859600D02*
X142951200Y-97307400D01*
D17*
X144907000Y-72161400D02*
X143078200Y-73990200D01*
X143078200Y-73990200D02*
X143078200Y-79451200D01*
X144678400Y-76047600D02*
X143535401Y-77190599D01*
X143535401Y-77190599D02*
X143535401Y-79670657D01*
X143535401Y-79670657D02*
X143206666Y-79999392D01*
X143206666Y-79999392D02*
X142707808Y-79999392D01*
D16*
X145364199Y-93090999D02*
X145694400Y-93421200D01*
X145694400Y-93421200D02*
X145694400Y-93497400D01*
X145719800Y-89636600D02*
X145364199Y-89992201D01*
X145364199Y-89992201D02*
X145364199Y-93090999D01*
D18*
G36*
X145819000Y-89210246D02*
X145806067Y-89204876D01*
X145634287Y-89204726D01*
X145475525Y-89270325D01*
X145353952Y-89391686D01*
X145288076Y-89550333D01*
X145288031Y-89601395D01*
X145262600Y-89626826D01*
X145262600Y-88215300D01*
X145298248Y-88179714D01*
X145364124Y-88021067D01*
X145364274Y-87849287D01*
X145298675Y-87690525D01*
X145177314Y-87568952D01*
X145018667Y-87503076D01*
X144846887Y-87502926D01*
X144688125Y-87568525D01*
X144566552Y-87689886D01*
X144500676Y-87848533D01*
X144500526Y-88020313D01*
X144566125Y-88179075D01*
X144602200Y-88215213D01*
X144602200Y-88999431D01*
X144485267Y-88950876D01*
X144313487Y-88950726D01*
X144154725Y-89016325D01*
X144033152Y-89137686D01*
X143967276Y-89296333D01*
X143967126Y-89468113D01*
X144032725Y-89626875D01*
X144068800Y-89663013D01*
X144068800Y-92519484D01*
X143977267Y-92481476D01*
X143805487Y-92481326D01*
X143646725Y-92546925D01*
X143525152Y-92668286D01*
X143459276Y-92826933D01*
X143459126Y-92998713D01*
X143524725Y-93157475D01*
X143646086Y-93279048D01*
X143804733Y-93344924D01*
X143976513Y-93345074D01*
X144068800Y-93306942D01*
X144068800Y-94817231D01*
X143958114Y-94706352D01*
X143799467Y-94640476D01*
X143627687Y-94640326D01*
X143468925Y-94705925D01*
X143347352Y-94827286D01*
X143281476Y-94985933D01*
X143281326Y-95157713D01*
X143346925Y-95316475D01*
X143468286Y-95438048D01*
X143626933Y-95503924D01*
X143798713Y-95504074D01*
X143957475Y-95438475D01*
X144068800Y-95327344D01*
X144068800Y-95722827D01*
X142916056Y-96875570D01*
X142865687Y-96875526D01*
X142706925Y-96941125D01*
X142585352Y-97062486D01*
X142519476Y-97221133D01*
X142519326Y-97392913D01*
X142584925Y-97551675D01*
X142706286Y-97673248D01*
X142864933Y-97739124D01*
X142941435Y-97739191D01*
X141950856Y-98729770D01*
X141900487Y-98729726D01*
X141741725Y-98795325D01*
X141620152Y-98916686D01*
X141554276Y-99075333D01*
X141554126Y-99247113D01*
X141619725Y-99405875D01*
X141741086Y-99527448D01*
X141899733Y-99593324D01*
X142071513Y-99593474D01*
X142230275Y-99527875D01*
X142351848Y-99406514D01*
X142417724Y-99247867D01*
X142417769Y-99196805D01*
X145165887Y-96448687D01*
X145237465Y-96341562D01*
X145262601Y-96215200D01*
X145262600Y-96215195D01*
X145262600Y-95249955D01*
X145398913Y-95250074D01*
X145557675Y-95184475D01*
X145679248Y-95063114D01*
X145745124Y-94904467D01*
X145745274Y-94732687D01*
X145679675Y-94573925D01*
X145558314Y-94452352D01*
X145399667Y-94386476D01*
X145262600Y-94386356D01*
X145262600Y-93583092D01*
X145328125Y-93741675D01*
X145449486Y-93863248D01*
X145608133Y-93929124D01*
X145779913Y-93929274D01*
X145819000Y-93913124D01*
X145819000Y-107569000D01*
X133581000Y-107569000D01*
X133581000Y-104813841D01*
X135446000Y-104813841D01*
X135446000Y-105404159D01*
X135503395Y-105692702D01*
X135666841Y-105937318D01*
X135911457Y-106100764D01*
X136200000Y-106158159D01*
X136488543Y-106100764D01*
X136733159Y-105937318D01*
X136896605Y-105692702D01*
X136954000Y-105404159D01*
X136954000Y-104813841D01*
X142446000Y-104813841D01*
X142446000Y-105404159D01*
X142503395Y-105692702D01*
X142666841Y-105937318D01*
X142911457Y-106100764D01*
X143200000Y-106158159D01*
X143488543Y-106100764D01*
X143733159Y-105937318D01*
X143896605Y-105692702D01*
X143954000Y-105404159D01*
X143954000Y-104813841D01*
X143896605Y-104525298D01*
X143733159Y-104280682D01*
X143488543Y-104117236D01*
X143200000Y-104059841D01*
X142911457Y-104117236D01*
X142666841Y-104280682D01*
X142503395Y-104525298D01*
X142446000Y-104813841D01*
X136954000Y-104813841D01*
X136896605Y-104525298D01*
X136733159Y-104280682D01*
X136488543Y-104117236D01*
X136200000Y-104059841D01*
X135911457Y-104117236D01*
X135666841Y-104280682D01*
X135503395Y-104525298D01*
X135446000Y-104813841D01*
X133581000Y-104813841D01*
X133581000Y-102409000D01*
X136303779Y-102409000D01*
X136359271Y-102687976D01*
X136517298Y-102924481D01*
X136753803Y-103082508D01*
X137032779Y-103138000D01*
X137367221Y-103138000D01*
X137646197Y-103082508D01*
X137882702Y-102924481D01*
X138040729Y-102687976D01*
X138096221Y-102409000D01*
X141303779Y-102409000D01*
X141359271Y-102687976D01*
X141517298Y-102924481D01*
X141753803Y-103082508D01*
X142032779Y-103138000D01*
X142367221Y-103138000D01*
X142646197Y-103082508D01*
X142882702Y-102924481D01*
X143040729Y-102687976D01*
X143096221Y-102409000D01*
X143040729Y-102130024D01*
X142882702Y-101893519D01*
X142646197Y-101735492D01*
X142367221Y-101680000D01*
X142032779Y-101680000D01*
X141753803Y-101735492D01*
X141517298Y-101893519D01*
X141359271Y-102130024D01*
X141303779Y-102409000D01*
X138096221Y-102409000D01*
X138040729Y-102130024D01*
X137882702Y-101893519D01*
X137646197Y-101735492D01*
X137367221Y-101680000D01*
X137032779Y-101680000D01*
X136753803Y-101735492D01*
X136517298Y-101893519D01*
X136359271Y-102130024D01*
X136303779Y-102409000D01*
X133581000Y-102409000D01*
X133581000Y-100212313D01*
X135839126Y-100212313D01*
X135904725Y-100371075D01*
X136026086Y-100492648D01*
X136184733Y-100558524D01*
X136356513Y-100558674D01*
X136515275Y-100493075D01*
X136636848Y-100371714D01*
X136702724Y-100213067D01*
X136702874Y-100041287D01*
X136637275Y-99882525D01*
X136515914Y-99760952D01*
X136357267Y-99695076D01*
X136185487Y-99694926D01*
X136026725Y-99760525D01*
X135905152Y-99881886D01*
X135839276Y-100040533D01*
X135839126Y-100212313D01*
X133581000Y-100212313D01*
X133581000Y-96304101D01*
X137591799Y-96304101D01*
X137591799Y-100571299D01*
X137625635Y-100741402D01*
X137661379Y-100794897D01*
X137721990Y-100885608D01*
X138115691Y-101279309D01*
X138169584Y-101315319D01*
X138185086Y-101330848D01*
X138205529Y-101339337D01*
X138259897Y-101375664D01*
X138323468Y-101388309D01*
X138343733Y-101396724D01*
X138365869Y-101396743D01*
X138430000Y-101409500D01*
X138493570Y-101396855D01*
X138515513Y-101396874D01*
X138535972Y-101388420D01*
X138600102Y-101375664D01*
X138653994Y-101339655D01*
X138674275Y-101331275D01*
X138689942Y-101315636D01*
X138744309Y-101279309D01*
X138780318Y-101225416D01*
X138795848Y-101209914D01*
X138804337Y-101189469D01*
X138840664Y-101135102D01*
X138853309Y-101071533D01*
X138861724Y-101051267D01*
X138861743Y-101029131D01*
X138874500Y-100965000D01*
X138861855Y-100901429D01*
X138861874Y-100879487D01*
X138853421Y-100859028D01*
X138840664Y-100794897D01*
X138835879Y-100787735D01*
X138896286Y-100848248D01*
X139054933Y-100914124D01*
X139226713Y-100914274D01*
X139385475Y-100848675D01*
X139507048Y-100727314D01*
X139572924Y-100568667D01*
X139573074Y-100396887D01*
X139507475Y-100238125D01*
X139386114Y-100116552D01*
X139227467Y-100050676D01*
X139055687Y-100050526D01*
X138896925Y-100116125D01*
X138775352Y-100237486D01*
X138709476Y-100396133D01*
X138709326Y-100567913D01*
X138742980Y-100649362D01*
X138480799Y-100387181D01*
X138480799Y-97358155D01*
X138617113Y-97358274D01*
X138775875Y-97292675D01*
X138897448Y-97171314D01*
X138963324Y-97012667D01*
X138963369Y-96961605D01*
X139079935Y-96845039D01*
X139099079Y-96891369D01*
X138978552Y-97011686D01*
X138912676Y-97170333D01*
X138912526Y-97342113D01*
X138978125Y-97500875D01*
X139099486Y-97622448D01*
X139258133Y-97688324D01*
X139429913Y-97688474D01*
X139588675Y-97622875D01*
X139710248Y-97501514D01*
X139776124Y-97342867D01*
X139776274Y-97171087D01*
X139742121Y-97088431D01*
X139862648Y-96968114D01*
X139928524Y-96809467D01*
X139928674Y-96637687D01*
X139863075Y-96478925D01*
X139741714Y-96357352D01*
X139618701Y-96306273D01*
X142473484Y-93451489D01*
X142473487Y-93451487D01*
X142545065Y-93344362D01*
X142554916Y-93294838D01*
X142570200Y-93218005D01*
X142570200Y-94656027D01*
X139360056Y-97866170D01*
X139309687Y-97866126D01*
X139150925Y-97931725D01*
X139029352Y-98053086D01*
X138963476Y-98211733D01*
X138963326Y-98383513D01*
X139028925Y-98542275D01*
X139150286Y-98663848D01*
X139308933Y-98729724D01*
X139480713Y-98729874D01*
X139639475Y-98664275D01*
X139761048Y-98542914D01*
X139826924Y-98384267D01*
X139826969Y-98333205D01*
X143133884Y-95026289D01*
X143133887Y-95026287D01*
X143205465Y-94919162D01*
X143230600Y-94792800D01*
X143230600Y-94284734D01*
X143392313Y-94284875D01*
X143551075Y-94219276D01*
X143672648Y-94097915D01*
X143738524Y-93939268D01*
X143738674Y-93767488D01*
X143673075Y-93608726D01*
X143551714Y-93487153D01*
X143393067Y-93421277D01*
X143230600Y-93421135D01*
X143230600Y-89713900D01*
X143266248Y-89678314D01*
X143332124Y-89519667D01*
X143332274Y-89347887D01*
X143266675Y-89189125D01*
X143145314Y-89067552D01*
X142986667Y-89001676D01*
X142814887Y-89001526D01*
X142656125Y-89067125D01*
X142595557Y-89127588D01*
X142484914Y-89016752D01*
X142326267Y-88950876D01*
X142154487Y-88950726D01*
X141995725Y-89016325D01*
X141874152Y-89137686D01*
X141808276Y-89296333D01*
X141808126Y-89468113D01*
X141873725Y-89626875D01*
X141909800Y-89663013D01*
X141909800Y-92776708D01*
X141901420Y-92756428D01*
X141888664Y-92692298D01*
X141852655Y-92638406D01*
X141844275Y-92618125D01*
X141828636Y-92602458D01*
X141792309Y-92548091D01*
X141738416Y-92512082D01*
X141722914Y-92496552D01*
X141702469Y-92488063D01*
X141648102Y-92451736D01*
X141584533Y-92439091D01*
X141564267Y-92430676D01*
X141542131Y-92430657D01*
X141478000Y-92417900D01*
X141414430Y-92430545D01*
X141392487Y-92430526D01*
X141372028Y-92438980D01*
X141307898Y-92451736D01*
X141254006Y-92487745D01*
X141233725Y-92496125D01*
X141218058Y-92511764D01*
X141163691Y-92548091D01*
X140973672Y-92738110D01*
X140859314Y-92623552D01*
X140700667Y-92557676D01*
X140528887Y-92557526D01*
X140370125Y-92623125D01*
X140248552Y-92744486D01*
X140182676Y-92903133D01*
X140182526Y-93074913D01*
X140248125Y-93233675D01*
X140363016Y-93348766D01*
X137721990Y-95989792D01*
X137625635Y-96133998D01*
X137591799Y-96304101D01*
X133581000Y-96304101D01*
X133581000Y-92414513D01*
X135483526Y-92414513D01*
X135549125Y-92573275D01*
X135670486Y-92694848D01*
X135829133Y-92760724D01*
X136000913Y-92760874D01*
X136159675Y-92695275D01*
X136281248Y-92573914D01*
X136347124Y-92415267D01*
X136347274Y-92243487D01*
X136281675Y-92084725D01*
X136160314Y-91963152D01*
X136001667Y-91897276D01*
X135829887Y-91897126D01*
X135671125Y-91962725D01*
X135549552Y-92084086D01*
X135483676Y-92242733D01*
X135483526Y-92414513D01*
X133581000Y-92414513D01*
X133581000Y-91754113D01*
X139230925Y-91754113D01*
X139296524Y-91912875D01*
X139417885Y-92034448D01*
X139576532Y-92100324D01*
X139748312Y-92100474D01*
X139907074Y-92034875D01*
X140028647Y-91913514D01*
X140084289Y-91779513D01*
X140538126Y-91779513D01*
X140603725Y-91938275D01*
X140725086Y-92059848D01*
X140883733Y-92125724D01*
X141055513Y-92125874D01*
X141214275Y-92060275D01*
X141335848Y-91938914D01*
X141401724Y-91780267D01*
X141401874Y-91608487D01*
X141336275Y-91449725D01*
X141214914Y-91328152D01*
X141056267Y-91262276D01*
X140884487Y-91262126D01*
X140725725Y-91327725D01*
X140604152Y-91449086D01*
X140538276Y-91607733D01*
X140538126Y-91779513D01*
X140084289Y-91779513D01*
X140094523Y-91754867D01*
X140094673Y-91583087D01*
X140029074Y-91424325D01*
X139907713Y-91302752D01*
X139749066Y-91236876D01*
X139577286Y-91236726D01*
X139418524Y-91302325D01*
X139296951Y-91423686D01*
X139231075Y-91582333D01*
X139230925Y-91754113D01*
X133581000Y-91754113D01*
X133581000Y-90941313D01*
X138074326Y-90941313D01*
X138139925Y-91100075D01*
X138261286Y-91221648D01*
X138419933Y-91287524D01*
X138591713Y-91287674D01*
X138750475Y-91222075D01*
X138872048Y-91100714D01*
X138937924Y-90942067D01*
X138938074Y-90770287D01*
X138872475Y-90611525D01*
X138751114Y-90489952D01*
X138592467Y-90424076D01*
X138420687Y-90423926D01*
X138261925Y-90489525D01*
X138140352Y-90610886D01*
X138074476Y-90769533D01*
X138074326Y-90941313D01*
X133581000Y-90941313D01*
X133581000Y-90230113D01*
X133807126Y-90230113D01*
X133872725Y-90388875D01*
X133994086Y-90510448D01*
X134152733Y-90576324D01*
X134324513Y-90576474D01*
X134483275Y-90510875D01*
X134604848Y-90389514D01*
X134670724Y-90230867D01*
X134670874Y-90059087D01*
X134605275Y-89900325D01*
X134483914Y-89778752D01*
X134325267Y-89712876D01*
X134153487Y-89712726D01*
X133994725Y-89778325D01*
X133873152Y-89899686D01*
X133807276Y-90058333D01*
X133807126Y-90230113D01*
X133581000Y-90230113D01*
X133581000Y-89087113D01*
X136397926Y-89087113D01*
X136463525Y-89245875D01*
X136584886Y-89367448D01*
X136743533Y-89433324D01*
X136915313Y-89433474D01*
X137074075Y-89367875D01*
X137195648Y-89246514D01*
X137261524Y-89087867D01*
X137261674Y-88916087D01*
X137196075Y-88757325D01*
X137074714Y-88635752D01*
X136916067Y-88569876D01*
X136744287Y-88569726D01*
X136585525Y-88635325D01*
X136463952Y-88756686D01*
X136398076Y-88915333D01*
X136397926Y-89087113D01*
X133581000Y-89087113D01*
X133581000Y-86928113D01*
X134772326Y-86928113D01*
X134837925Y-87086875D01*
X134959286Y-87208448D01*
X135117933Y-87274324D01*
X135289713Y-87274474D01*
X135448475Y-87208875D01*
X135570048Y-87087514D01*
X135635924Y-86928867D01*
X135636074Y-86757087D01*
X135633276Y-86750313D01*
X144500526Y-86750313D01*
X144566125Y-86909075D01*
X144687486Y-87030648D01*
X144846133Y-87096524D01*
X145017913Y-87096674D01*
X145176675Y-87031075D01*
X145298248Y-86909714D01*
X145364124Y-86751067D01*
X145364274Y-86579287D01*
X145298675Y-86420525D01*
X145229001Y-86350730D01*
X145303675Y-86319875D01*
X145425248Y-86198514D01*
X145491124Y-86039867D01*
X145491274Y-85868087D01*
X145425675Y-85709325D01*
X145314523Y-85597979D01*
X145349048Y-85563514D01*
X145414924Y-85404867D01*
X145415074Y-85233087D01*
X145349475Y-85074325D01*
X145314434Y-85039223D01*
X145374448Y-84979314D01*
X145440324Y-84820667D01*
X145440474Y-84648887D01*
X145374875Y-84490125D01*
X145253514Y-84368552D01*
X145094867Y-84302676D01*
X144923087Y-84302526D01*
X144764325Y-84368125D01*
X144642752Y-84489486D01*
X144576876Y-84648133D01*
X144576726Y-84819913D01*
X144642325Y-84978675D01*
X144677366Y-85013777D01*
X144617352Y-85073686D01*
X144551476Y-85232333D01*
X144551326Y-85404113D01*
X144616925Y-85562875D01*
X144728077Y-85674221D01*
X144693552Y-85708686D01*
X144627676Y-85867333D01*
X144627526Y-86039113D01*
X144693125Y-86197875D01*
X144762799Y-86267670D01*
X144688125Y-86298525D01*
X144566552Y-86419886D01*
X144500676Y-86578533D01*
X144500526Y-86750313D01*
X135633276Y-86750313D01*
X135570475Y-86598325D01*
X135449114Y-86476752D01*
X135290467Y-86410876D01*
X135118687Y-86410726D01*
X134959925Y-86476325D01*
X134838352Y-86597686D01*
X134772476Y-86756333D01*
X134772326Y-86928113D01*
X133581000Y-86928113D01*
X133581000Y-82533913D01*
X138506126Y-82533913D01*
X138571725Y-82692675D01*
X138693086Y-82814248D01*
X138851733Y-82880124D01*
X139023513Y-82880274D01*
X139182275Y-82814675D01*
X139303848Y-82693314D01*
X139369724Y-82534667D01*
X139369874Y-82362887D01*
X139304275Y-82204125D01*
X139182914Y-82082552D01*
X139024267Y-82016676D01*
X138852487Y-82016526D01*
X138693725Y-82082125D01*
X138572152Y-82203486D01*
X138506276Y-82362133D01*
X138506126Y-82533913D01*
X133581000Y-82533913D01*
X133581000Y-81646846D01*
X133593325Y-81676675D01*
X133714686Y-81798248D01*
X133873333Y-81864124D01*
X134045113Y-81864274D01*
X134203875Y-81798675D01*
X134325448Y-81677314D01*
X134391324Y-81518667D01*
X134391474Y-81346887D01*
X134378180Y-81314713D01*
X134442126Y-81314713D01*
X134507725Y-81473475D01*
X134629086Y-81595048D01*
X134787733Y-81660924D01*
X134959513Y-81661074D01*
X135118275Y-81595475D01*
X135239848Y-81474114D01*
X135274396Y-81390913D01*
X140639726Y-81390913D01*
X140705325Y-81549675D01*
X140826686Y-81671248D01*
X140985333Y-81737124D01*
X141157113Y-81737274D01*
X141315875Y-81671675D01*
X141437448Y-81550314D01*
X141503324Y-81391667D01*
X141503474Y-81219887D01*
X141469190Y-81136913D01*
X144348126Y-81136913D01*
X144413725Y-81295675D01*
X144535086Y-81417248D01*
X144693733Y-81483124D01*
X144865513Y-81483274D01*
X145024275Y-81417675D01*
X145145848Y-81296314D01*
X145211724Y-81137667D01*
X145211874Y-80965887D01*
X145146275Y-80807125D01*
X145024914Y-80685552D01*
X144866267Y-80619676D01*
X144694487Y-80619526D01*
X144535725Y-80685125D01*
X144414152Y-80806486D01*
X144348276Y-80965133D01*
X144348126Y-81136913D01*
X141469190Y-81136913D01*
X141437875Y-81061125D01*
X141316514Y-80939552D01*
X141157867Y-80873676D01*
X140986087Y-80873526D01*
X140827325Y-80939125D01*
X140705752Y-81060486D01*
X140639876Y-81219133D01*
X140639726Y-81390913D01*
X135274396Y-81390913D01*
X135305724Y-81315467D01*
X135305874Y-81143687D01*
X135240275Y-80984925D01*
X135118914Y-80863352D01*
X134960267Y-80797476D01*
X134788487Y-80797326D01*
X134629725Y-80862925D01*
X134508152Y-80984286D01*
X134442276Y-81142933D01*
X134442126Y-81314713D01*
X134378180Y-81314713D01*
X134325875Y-81188125D01*
X134204514Y-81066552D01*
X134045867Y-81000676D01*
X133874087Y-81000526D01*
X133715325Y-81066125D01*
X133593752Y-81187486D01*
X133581000Y-81218196D01*
X133581000Y-80146313D01*
X134670726Y-80146313D01*
X134736325Y-80305075D01*
X134857686Y-80426648D01*
X135016333Y-80492524D01*
X135188113Y-80492674D01*
X135346875Y-80427075D01*
X135450016Y-80324113D01*
X140639726Y-80324113D01*
X140705325Y-80482875D01*
X140826686Y-80604448D01*
X140985333Y-80670324D01*
X141157113Y-80670474D01*
X141315875Y-80604875D01*
X141437448Y-80483514D01*
X141503324Y-80324867D01*
X141503474Y-80153087D01*
X141475302Y-80084905D01*
X142275934Y-80084905D01*
X142341533Y-80243667D01*
X142462894Y-80365240D01*
X142621541Y-80431116D01*
X142793321Y-80431266D01*
X142854973Y-80405792D01*
X143206666Y-80405792D01*
X143362189Y-80374857D01*
X143494034Y-80286760D01*
X143822769Y-79958026D01*
X143910866Y-79826180D01*
X143941801Y-79670657D01*
X143941801Y-77358935D01*
X144275070Y-77025666D01*
X144286725Y-77053875D01*
X144408086Y-77175448D01*
X144566733Y-77241324D01*
X144738513Y-77241474D01*
X144897275Y-77175875D01*
X145018848Y-77054514D01*
X145084724Y-76895867D01*
X145084874Y-76724087D01*
X145019275Y-76565325D01*
X144897914Y-76443752D01*
X144874199Y-76433905D01*
X144922675Y-76413875D01*
X145044248Y-76292514D01*
X145110124Y-76133867D01*
X145110274Y-75962087D01*
X145044675Y-75803325D01*
X144923314Y-75681752D01*
X144764667Y-75615876D01*
X144592887Y-75615726D01*
X144434125Y-75681325D01*
X144312552Y-75802686D01*
X144286970Y-75864294D01*
X143484600Y-76666664D01*
X143484600Y-74158536D01*
X145090243Y-72552893D01*
X145151275Y-72527675D01*
X145272848Y-72406314D01*
X145338724Y-72247667D01*
X145338874Y-72075887D01*
X145273275Y-71917125D01*
X145151914Y-71795552D01*
X144993267Y-71729676D01*
X144821487Y-71729526D01*
X144662725Y-71795125D01*
X144541152Y-71916486D01*
X144515570Y-71978094D01*
X142790832Y-73702832D01*
X142702735Y-73834677D01*
X142671800Y-73990200D01*
X142671800Y-79303946D01*
X142646476Y-79364933D01*
X142646326Y-79536713D01*
X142659068Y-79567550D01*
X142622295Y-79567518D01*
X142463533Y-79633117D01*
X142341960Y-79754478D01*
X142276084Y-79913125D01*
X142275934Y-80084905D01*
X141475302Y-80084905D01*
X141437875Y-79994325D01*
X141316514Y-79872752D01*
X141157867Y-79806876D01*
X140986087Y-79806726D01*
X140827325Y-79872325D01*
X140705752Y-79993686D01*
X140639876Y-80152333D01*
X140639726Y-80324113D01*
X135450016Y-80324113D01*
X135468448Y-80305714D01*
X135534324Y-80147067D01*
X135534474Y-79975287D01*
X135468875Y-79816525D01*
X135347514Y-79694952D01*
X135188867Y-79629076D01*
X135017087Y-79628926D01*
X134858325Y-79694525D01*
X134736752Y-79815886D01*
X134670876Y-79974533D01*
X134670726Y-80146313D01*
X133581000Y-80146313D01*
X133581000Y-78499355D01*
X137507625Y-78499355D01*
X137573224Y-78658117D01*
X137694585Y-78779690D01*
X137853232Y-78845566D01*
X138025012Y-78845716D01*
X138183774Y-78780117D01*
X138305347Y-78658756D01*
X138352120Y-78546113D01*
X139141126Y-78546113D01*
X139206725Y-78704875D01*
X139328086Y-78826448D01*
X139486733Y-78892324D01*
X139658513Y-78892474D01*
X139817275Y-78826875D01*
X139938848Y-78705514D01*
X139994490Y-78571513D01*
X140182526Y-78571513D01*
X140248125Y-78730275D01*
X140369486Y-78851848D01*
X140528133Y-78917724D01*
X140699913Y-78917874D01*
X140858675Y-78852275D01*
X140980248Y-78730914D01*
X141046124Y-78572267D01*
X141046274Y-78400487D01*
X140980675Y-78241725D01*
X140859314Y-78120152D01*
X140700667Y-78054276D01*
X140528887Y-78054126D01*
X140370125Y-78119725D01*
X140248552Y-78241086D01*
X140182676Y-78399733D01*
X140182526Y-78571513D01*
X139994490Y-78571513D01*
X140004724Y-78546867D01*
X140004874Y-78375087D01*
X139939275Y-78216325D01*
X139817914Y-78094752D01*
X139659267Y-78028876D01*
X139487487Y-78028726D01*
X139328725Y-78094325D01*
X139207152Y-78215686D01*
X139141276Y-78374333D01*
X139141126Y-78546113D01*
X138352120Y-78546113D01*
X138371223Y-78500109D01*
X138371373Y-78328329D01*
X138305774Y-78169567D01*
X138184413Y-78047994D01*
X138025766Y-77982118D01*
X137853986Y-77981968D01*
X137695224Y-78047567D01*
X137573651Y-78168928D01*
X137507775Y-78327575D01*
X137507625Y-78499355D01*
X133581000Y-78499355D01*
X133581000Y-77834913D01*
X135178726Y-77834913D01*
X135244325Y-77993675D01*
X135365686Y-78115248D01*
X135524333Y-78181124D01*
X135696113Y-78181274D01*
X135854875Y-78115675D01*
X135976448Y-77994314D01*
X136042324Y-77835667D01*
X136042474Y-77663887D01*
X135976875Y-77505125D01*
X135855514Y-77383552D01*
X135696867Y-77317676D01*
X135525087Y-77317526D01*
X135366325Y-77383125D01*
X135244752Y-77504486D01*
X135178876Y-77663133D01*
X135178726Y-77834913D01*
X133581000Y-77834913D01*
X133581000Y-71789713D01*
X135635926Y-71789713D01*
X135701525Y-71948475D01*
X135822886Y-72070048D01*
X135981533Y-72135924D01*
X136153313Y-72136074D01*
X136312075Y-72070475D01*
X136433648Y-71949114D01*
X136499524Y-71790467D01*
X136499674Y-71618687D01*
X136434075Y-71459925D01*
X136312714Y-71338352D01*
X136154067Y-71272476D01*
X135982287Y-71272326D01*
X135823525Y-71337925D01*
X135701952Y-71459286D01*
X135636076Y-71617933D01*
X135635926Y-71789713D01*
X133581000Y-71789713D01*
X133581000Y-71408713D01*
X134721526Y-71408713D01*
X134787125Y-71567475D01*
X134908486Y-71689048D01*
X135067133Y-71754924D01*
X135238913Y-71755074D01*
X135397675Y-71689475D01*
X135519248Y-71568114D01*
X135585124Y-71409467D01*
X135585274Y-71237687D01*
X135519675Y-71078925D01*
X135398314Y-70957352D01*
X135239667Y-70891476D01*
X135067887Y-70891326D01*
X134909125Y-70956925D01*
X134787552Y-71078286D01*
X134721676Y-71236933D01*
X134721526Y-71408713D01*
X133581000Y-71408713D01*
X133581000Y-67217713D01*
X134823126Y-67217713D01*
X134888725Y-67376475D01*
X135010086Y-67498048D01*
X135168733Y-67563924D01*
X135340513Y-67564074D01*
X135499275Y-67498475D01*
X135620848Y-67377114D01*
X135686724Y-67218467D01*
X135686874Y-67046687D01*
X135621275Y-66887925D01*
X135499914Y-66766352D01*
X135341267Y-66700476D01*
X135169487Y-66700326D01*
X135010725Y-66765925D01*
X134889152Y-66887286D01*
X134823276Y-67045933D01*
X134823126Y-67217713D01*
X133581000Y-67217713D01*
X133581000Y-66675000D01*
X145819000Y-66675000D01*
X145819000Y-89210246D01*
X145819000Y-89210246D01*
G37*
X145819000Y-89210246D02*
X145806067Y-89204876D01*
X145634287Y-89204726D01*
X145475525Y-89270325D01*
X145353952Y-89391686D01*
X145288076Y-89550333D01*
X145288031Y-89601395D01*
X145262600Y-89626826D01*
X145262600Y-88215300D01*
X145298248Y-88179714D01*
X145364124Y-88021067D01*
X145364274Y-87849287D01*
X145298675Y-87690525D01*
X145177314Y-87568952D01*
X145018667Y-87503076D01*
X144846887Y-87502926D01*
X144688125Y-87568525D01*
X144566552Y-87689886D01*
X144500676Y-87848533D01*
X144500526Y-88020313D01*
X144566125Y-88179075D01*
X144602200Y-88215213D01*
X144602200Y-88999431D01*
X144485267Y-88950876D01*
X144313487Y-88950726D01*
X144154725Y-89016325D01*
X144033152Y-89137686D01*
X143967276Y-89296333D01*
X143967126Y-89468113D01*
X144032725Y-89626875D01*
X144068800Y-89663013D01*
X144068800Y-92519484D01*
X143977267Y-92481476D01*
X143805487Y-92481326D01*
X143646725Y-92546925D01*
X143525152Y-92668286D01*
X143459276Y-92826933D01*
X143459126Y-92998713D01*
X143524725Y-93157475D01*
X143646086Y-93279048D01*
X143804733Y-93344924D01*
X143976513Y-93345074D01*
X144068800Y-93306942D01*
X144068800Y-94817231D01*
X143958114Y-94706352D01*
X143799467Y-94640476D01*
X143627687Y-94640326D01*
X143468925Y-94705925D01*
X143347352Y-94827286D01*
X143281476Y-94985933D01*
X143281326Y-95157713D01*
X143346925Y-95316475D01*
X143468286Y-95438048D01*
X143626933Y-95503924D01*
X143798713Y-95504074D01*
X143957475Y-95438475D01*
X144068800Y-95327344D01*
X144068800Y-95722827D01*
X142916056Y-96875570D01*
X142865687Y-96875526D01*
X142706925Y-96941125D01*
X142585352Y-97062486D01*
X142519476Y-97221133D01*
X142519326Y-97392913D01*
X142584925Y-97551675D01*
X142706286Y-97673248D01*
X142864933Y-97739124D01*
X142941435Y-97739191D01*
X141950856Y-98729770D01*
X141900487Y-98729726D01*
X141741725Y-98795325D01*
X141620152Y-98916686D01*
X141554276Y-99075333D01*
X141554126Y-99247113D01*
X141619725Y-99405875D01*
X141741086Y-99527448D01*
X141899733Y-99593324D01*
X142071513Y-99593474D01*
X142230275Y-99527875D01*
X142351848Y-99406514D01*
X142417724Y-99247867D01*
X142417769Y-99196805D01*
X145165887Y-96448687D01*
X145237465Y-96341562D01*
X145262601Y-96215200D01*
X145262600Y-96215195D01*
X145262600Y-95249955D01*
X145398913Y-95250074D01*
X145557675Y-95184475D01*
X145679248Y-95063114D01*
X145745124Y-94904467D01*
X145745274Y-94732687D01*
X145679675Y-94573925D01*
X145558314Y-94452352D01*
X145399667Y-94386476D01*
X145262600Y-94386356D01*
X145262600Y-93583092D01*
X145328125Y-93741675D01*
X145449486Y-93863248D01*
X145608133Y-93929124D01*
X145779913Y-93929274D01*
X145819000Y-93913124D01*
X145819000Y-107569000D01*
X133581000Y-107569000D01*
X133581000Y-104813841D01*
X135446000Y-104813841D01*
X135446000Y-105404159D01*
X135503395Y-105692702D01*
X135666841Y-105937318D01*
X135911457Y-106100764D01*
X136200000Y-106158159D01*
X136488543Y-106100764D01*
X136733159Y-105937318D01*
X136896605Y-105692702D01*
X136954000Y-105404159D01*
X136954000Y-104813841D01*
X142446000Y-104813841D01*
X142446000Y-105404159D01*
X142503395Y-105692702D01*
X142666841Y-105937318D01*
X142911457Y-106100764D01*
X143200000Y-106158159D01*
X143488543Y-106100764D01*
X143733159Y-105937318D01*
X143896605Y-105692702D01*
X143954000Y-105404159D01*
X143954000Y-104813841D01*
X143896605Y-104525298D01*
X143733159Y-104280682D01*
X143488543Y-104117236D01*
X143200000Y-104059841D01*
X142911457Y-104117236D01*
X142666841Y-104280682D01*
X142503395Y-104525298D01*
X142446000Y-104813841D01*
X136954000Y-104813841D01*
X136896605Y-104525298D01*
X136733159Y-104280682D01*
X136488543Y-104117236D01*
X136200000Y-104059841D01*
X135911457Y-104117236D01*
X135666841Y-104280682D01*
X135503395Y-104525298D01*
X135446000Y-104813841D01*
X133581000Y-104813841D01*
X133581000Y-102409000D01*
X136303779Y-102409000D01*
X136359271Y-102687976D01*
X136517298Y-102924481D01*
X136753803Y-103082508D01*
X137032779Y-103138000D01*
X137367221Y-103138000D01*
X137646197Y-103082508D01*
X137882702Y-102924481D01*
X138040729Y-102687976D01*
X138096221Y-102409000D01*
X141303779Y-102409000D01*
X141359271Y-102687976D01*
X141517298Y-102924481D01*
X141753803Y-103082508D01*
X142032779Y-103138000D01*
X142367221Y-103138000D01*
X142646197Y-103082508D01*
X142882702Y-102924481D01*
X143040729Y-102687976D01*
X143096221Y-102409000D01*
X143040729Y-102130024D01*
X142882702Y-101893519D01*
X142646197Y-101735492D01*
X142367221Y-101680000D01*
X142032779Y-101680000D01*
X141753803Y-101735492D01*
X141517298Y-101893519D01*
X141359271Y-102130024D01*
X141303779Y-102409000D01*
X138096221Y-102409000D01*
X138040729Y-102130024D01*
X137882702Y-101893519D01*
X137646197Y-101735492D01*
X137367221Y-101680000D01*
X137032779Y-101680000D01*
X136753803Y-101735492D01*
X136517298Y-101893519D01*
X136359271Y-102130024D01*
X136303779Y-102409000D01*
X133581000Y-102409000D01*
X133581000Y-100212313D01*
X135839126Y-100212313D01*
X135904725Y-100371075D01*
X136026086Y-100492648D01*
X136184733Y-100558524D01*
X136356513Y-100558674D01*
X136515275Y-100493075D01*
X136636848Y-100371714D01*
X136702724Y-100213067D01*
X136702874Y-100041287D01*
X136637275Y-99882525D01*
X136515914Y-99760952D01*
X136357267Y-99695076D01*
X136185487Y-99694926D01*
X136026725Y-99760525D01*
X135905152Y-99881886D01*
X135839276Y-100040533D01*
X135839126Y-100212313D01*
X133581000Y-100212313D01*
X133581000Y-96304101D01*
X137591799Y-96304101D01*
X137591799Y-100571299D01*
X137625635Y-100741402D01*
X137661379Y-100794897D01*
X137721990Y-100885608D01*
X138115691Y-101279309D01*
X138169584Y-101315319D01*
X138185086Y-101330848D01*
X138205529Y-101339337D01*
X138259897Y-101375664D01*
X138323468Y-101388309D01*
X138343733Y-101396724D01*
X138365869Y-101396743D01*
X138430000Y-101409500D01*
X138493570Y-101396855D01*
X138515513Y-101396874D01*
X138535972Y-101388420D01*
X138600102Y-101375664D01*
X138653994Y-101339655D01*
X138674275Y-101331275D01*
X138689942Y-101315636D01*
X138744309Y-101279309D01*
X138780318Y-101225416D01*
X138795848Y-101209914D01*
X138804337Y-101189469D01*
X138840664Y-101135102D01*
X138853309Y-101071533D01*
X138861724Y-101051267D01*
X138861743Y-101029131D01*
X138874500Y-100965000D01*
X138861855Y-100901429D01*
X138861874Y-100879487D01*
X138853421Y-100859028D01*
X138840664Y-100794897D01*
X138835879Y-100787735D01*
X138896286Y-100848248D01*
X139054933Y-100914124D01*
X139226713Y-100914274D01*
X139385475Y-100848675D01*
X139507048Y-100727314D01*
X139572924Y-100568667D01*
X139573074Y-100396887D01*
X139507475Y-100238125D01*
X139386114Y-100116552D01*
X139227467Y-100050676D01*
X139055687Y-100050526D01*
X138896925Y-100116125D01*
X138775352Y-100237486D01*
X138709476Y-100396133D01*
X138709326Y-100567913D01*
X138742980Y-100649362D01*
X138480799Y-100387181D01*
X138480799Y-97358155D01*
X138617113Y-97358274D01*
X138775875Y-97292675D01*
X138897448Y-97171314D01*
X138963324Y-97012667D01*
X138963369Y-96961605D01*
X139079935Y-96845039D01*
X139099079Y-96891369D01*
X138978552Y-97011686D01*
X138912676Y-97170333D01*
X138912526Y-97342113D01*
X138978125Y-97500875D01*
X139099486Y-97622448D01*
X139258133Y-97688324D01*
X139429913Y-97688474D01*
X139588675Y-97622875D01*
X139710248Y-97501514D01*
X139776124Y-97342867D01*
X139776274Y-97171087D01*
X139742121Y-97088431D01*
X139862648Y-96968114D01*
X139928524Y-96809467D01*
X139928674Y-96637687D01*
X139863075Y-96478925D01*
X139741714Y-96357352D01*
X139618701Y-96306273D01*
X142473484Y-93451489D01*
X142473487Y-93451487D01*
X142545065Y-93344362D01*
X142554916Y-93294838D01*
X142570200Y-93218005D01*
X142570200Y-94656027D01*
X139360056Y-97866170D01*
X139309687Y-97866126D01*
X139150925Y-97931725D01*
X139029352Y-98053086D01*
X138963476Y-98211733D01*
X138963326Y-98383513D01*
X139028925Y-98542275D01*
X139150286Y-98663848D01*
X139308933Y-98729724D01*
X139480713Y-98729874D01*
X139639475Y-98664275D01*
X139761048Y-98542914D01*
X139826924Y-98384267D01*
X139826969Y-98333205D01*
X143133884Y-95026289D01*
X143133887Y-95026287D01*
X143205465Y-94919162D01*
X143230600Y-94792800D01*
X143230600Y-94284734D01*
X143392313Y-94284875D01*
X143551075Y-94219276D01*
X143672648Y-94097915D01*
X143738524Y-93939268D01*
X143738674Y-93767488D01*
X143673075Y-93608726D01*
X143551714Y-93487153D01*
X143393067Y-93421277D01*
X143230600Y-93421135D01*
X143230600Y-89713900D01*
X143266248Y-89678314D01*
X143332124Y-89519667D01*
X143332274Y-89347887D01*
X143266675Y-89189125D01*
X143145314Y-89067552D01*
X142986667Y-89001676D01*
X142814887Y-89001526D01*
X142656125Y-89067125D01*
X142595557Y-89127588D01*
X142484914Y-89016752D01*
X142326267Y-88950876D01*
X142154487Y-88950726D01*
X141995725Y-89016325D01*
X141874152Y-89137686D01*
X141808276Y-89296333D01*
X141808126Y-89468113D01*
X141873725Y-89626875D01*
X141909800Y-89663013D01*
X141909800Y-92776708D01*
X141901420Y-92756428D01*
X141888664Y-92692298D01*
X141852655Y-92638406D01*
X141844275Y-92618125D01*
X141828636Y-92602458D01*
X141792309Y-92548091D01*
X141738416Y-92512082D01*
X141722914Y-92496552D01*
X141702469Y-92488063D01*
X141648102Y-92451736D01*
X141584533Y-92439091D01*
X141564267Y-92430676D01*
X141542131Y-92430657D01*
X141478000Y-92417900D01*
X141414430Y-92430545D01*
X141392487Y-92430526D01*
X141372028Y-92438980D01*
X141307898Y-92451736D01*
X141254006Y-92487745D01*
X141233725Y-92496125D01*
X141218058Y-92511764D01*
X141163691Y-92548091D01*
X140973672Y-92738110D01*
X140859314Y-92623552D01*
X140700667Y-92557676D01*
X140528887Y-92557526D01*
X140370125Y-92623125D01*
X140248552Y-92744486D01*
X140182676Y-92903133D01*
X140182526Y-93074913D01*
X140248125Y-93233675D01*
X140363016Y-93348766D01*
X137721990Y-95989792D01*
X137625635Y-96133998D01*
X137591799Y-96304101D01*
X133581000Y-96304101D01*
X133581000Y-92414513D01*
X135483526Y-92414513D01*
X135549125Y-92573275D01*
X135670486Y-92694848D01*
X135829133Y-92760724D01*
X136000913Y-92760874D01*
X136159675Y-92695275D01*
X136281248Y-92573914D01*
X136347124Y-92415267D01*
X136347274Y-92243487D01*
X136281675Y-92084725D01*
X136160314Y-91963152D01*
X136001667Y-91897276D01*
X135829887Y-91897126D01*
X135671125Y-91962725D01*
X135549552Y-92084086D01*
X135483676Y-92242733D01*
X135483526Y-92414513D01*
X133581000Y-92414513D01*
X133581000Y-91754113D01*
X139230925Y-91754113D01*
X139296524Y-91912875D01*
X139417885Y-92034448D01*
X139576532Y-92100324D01*
X139748312Y-92100474D01*
X139907074Y-92034875D01*
X140028647Y-91913514D01*
X140084289Y-91779513D01*
X140538126Y-91779513D01*
X140603725Y-91938275D01*
X140725086Y-92059848D01*
X140883733Y-92125724D01*
X141055513Y-92125874D01*
X141214275Y-92060275D01*
X141335848Y-91938914D01*
X141401724Y-91780267D01*
X141401874Y-91608487D01*
X141336275Y-91449725D01*
X141214914Y-91328152D01*
X141056267Y-91262276D01*
X140884487Y-91262126D01*
X140725725Y-91327725D01*
X140604152Y-91449086D01*
X140538276Y-91607733D01*
X140538126Y-91779513D01*
X140084289Y-91779513D01*
X140094523Y-91754867D01*
X140094673Y-91583087D01*
X140029074Y-91424325D01*
X139907713Y-91302752D01*
X139749066Y-91236876D01*
X139577286Y-91236726D01*
X139418524Y-91302325D01*
X139296951Y-91423686D01*
X139231075Y-91582333D01*
X139230925Y-91754113D01*
X133581000Y-91754113D01*
X133581000Y-90941313D01*
X138074326Y-90941313D01*
X138139925Y-91100075D01*
X138261286Y-91221648D01*
X138419933Y-91287524D01*
X138591713Y-91287674D01*
X138750475Y-91222075D01*
X138872048Y-91100714D01*
X138937924Y-90942067D01*
X138938074Y-90770287D01*
X138872475Y-90611525D01*
X138751114Y-90489952D01*
X138592467Y-90424076D01*
X138420687Y-90423926D01*
X138261925Y-90489525D01*
X138140352Y-90610886D01*
X138074476Y-90769533D01*
X138074326Y-90941313D01*
X133581000Y-90941313D01*
X133581000Y-90230113D01*
X133807126Y-90230113D01*
X133872725Y-90388875D01*
X133994086Y-90510448D01*
X134152733Y-90576324D01*
X134324513Y-90576474D01*
X134483275Y-90510875D01*
X134604848Y-90389514D01*
X134670724Y-90230867D01*
X134670874Y-90059087D01*
X134605275Y-89900325D01*
X134483914Y-89778752D01*
X134325267Y-89712876D01*
X134153487Y-89712726D01*
X133994725Y-89778325D01*
X133873152Y-89899686D01*
X133807276Y-90058333D01*
X133807126Y-90230113D01*
X133581000Y-90230113D01*
X133581000Y-89087113D01*
X136397926Y-89087113D01*
X136463525Y-89245875D01*
X136584886Y-89367448D01*
X136743533Y-89433324D01*
X136915313Y-89433474D01*
X137074075Y-89367875D01*
X137195648Y-89246514D01*
X137261524Y-89087867D01*
X137261674Y-88916087D01*
X137196075Y-88757325D01*
X137074714Y-88635752D01*
X136916067Y-88569876D01*
X136744287Y-88569726D01*
X136585525Y-88635325D01*
X136463952Y-88756686D01*
X136398076Y-88915333D01*
X136397926Y-89087113D01*
X133581000Y-89087113D01*
X133581000Y-86928113D01*
X134772326Y-86928113D01*
X134837925Y-87086875D01*
X134959286Y-87208448D01*
X135117933Y-87274324D01*
X135289713Y-87274474D01*
X135448475Y-87208875D01*
X135570048Y-87087514D01*
X135635924Y-86928867D01*
X135636074Y-86757087D01*
X135633276Y-86750313D01*
X144500526Y-86750313D01*
X144566125Y-86909075D01*
X144687486Y-87030648D01*
X144846133Y-87096524D01*
X145017913Y-87096674D01*
X145176675Y-87031075D01*
X145298248Y-86909714D01*
X145364124Y-86751067D01*
X145364274Y-86579287D01*
X145298675Y-86420525D01*
X145229001Y-86350730D01*
X145303675Y-86319875D01*
X145425248Y-86198514D01*
X145491124Y-86039867D01*
X145491274Y-85868087D01*
X145425675Y-85709325D01*
X145314523Y-85597979D01*
X145349048Y-85563514D01*
X145414924Y-85404867D01*
X145415074Y-85233087D01*
X145349475Y-85074325D01*
X145314434Y-85039223D01*
X145374448Y-84979314D01*
X145440324Y-84820667D01*
X145440474Y-84648887D01*
X145374875Y-84490125D01*
X145253514Y-84368552D01*
X145094867Y-84302676D01*
X144923087Y-84302526D01*
X144764325Y-84368125D01*
X144642752Y-84489486D01*
X144576876Y-84648133D01*
X144576726Y-84819913D01*
X144642325Y-84978675D01*
X144677366Y-85013777D01*
X144617352Y-85073686D01*
X144551476Y-85232333D01*
X144551326Y-85404113D01*
X144616925Y-85562875D01*
X144728077Y-85674221D01*
X144693552Y-85708686D01*
X144627676Y-85867333D01*
X144627526Y-86039113D01*
X144693125Y-86197875D01*
X144762799Y-86267670D01*
X144688125Y-86298525D01*
X144566552Y-86419886D01*
X144500676Y-86578533D01*
X144500526Y-86750313D01*
X135633276Y-86750313D01*
X135570475Y-86598325D01*
X135449114Y-86476752D01*
X135290467Y-86410876D01*
X135118687Y-86410726D01*
X134959925Y-86476325D01*
X134838352Y-86597686D01*
X134772476Y-86756333D01*
X134772326Y-86928113D01*
X133581000Y-86928113D01*
X133581000Y-82533913D01*
X138506126Y-82533913D01*
X138571725Y-82692675D01*
X138693086Y-82814248D01*
X138851733Y-82880124D01*
X139023513Y-82880274D01*
X139182275Y-82814675D01*
X139303848Y-82693314D01*
X139369724Y-82534667D01*
X139369874Y-82362887D01*
X139304275Y-82204125D01*
X139182914Y-82082552D01*
X139024267Y-82016676D01*
X138852487Y-82016526D01*
X138693725Y-82082125D01*
X138572152Y-82203486D01*
X138506276Y-82362133D01*
X138506126Y-82533913D01*
X133581000Y-82533913D01*
X133581000Y-81646846D01*
X133593325Y-81676675D01*
X133714686Y-81798248D01*
X133873333Y-81864124D01*
X134045113Y-81864274D01*
X134203875Y-81798675D01*
X134325448Y-81677314D01*
X134391324Y-81518667D01*
X134391474Y-81346887D01*
X134378180Y-81314713D01*
X134442126Y-81314713D01*
X134507725Y-81473475D01*
X134629086Y-81595048D01*
X134787733Y-81660924D01*
X134959513Y-81661074D01*
X135118275Y-81595475D01*
X135239848Y-81474114D01*
X135274396Y-81390913D01*
X140639726Y-81390913D01*
X140705325Y-81549675D01*
X140826686Y-81671248D01*
X140985333Y-81737124D01*
X141157113Y-81737274D01*
X141315875Y-81671675D01*
X141437448Y-81550314D01*
X141503324Y-81391667D01*
X141503474Y-81219887D01*
X141469190Y-81136913D01*
X144348126Y-81136913D01*
X144413725Y-81295675D01*
X144535086Y-81417248D01*
X144693733Y-81483124D01*
X144865513Y-81483274D01*
X145024275Y-81417675D01*
X145145848Y-81296314D01*
X145211724Y-81137667D01*
X145211874Y-80965887D01*
X145146275Y-80807125D01*
X145024914Y-80685552D01*
X144866267Y-80619676D01*
X144694487Y-80619526D01*
X144535725Y-80685125D01*
X144414152Y-80806486D01*
X144348276Y-80965133D01*
X144348126Y-81136913D01*
X141469190Y-81136913D01*
X141437875Y-81061125D01*
X141316514Y-80939552D01*
X141157867Y-80873676D01*
X140986087Y-80873526D01*
X140827325Y-80939125D01*
X140705752Y-81060486D01*
X140639876Y-81219133D01*
X140639726Y-81390913D01*
X135274396Y-81390913D01*
X135305724Y-81315467D01*
X135305874Y-81143687D01*
X135240275Y-80984925D01*
X135118914Y-80863352D01*
X134960267Y-80797476D01*
X134788487Y-80797326D01*
X134629725Y-80862925D01*
X134508152Y-80984286D01*
X134442276Y-81142933D01*
X134442126Y-81314713D01*
X134378180Y-81314713D01*
X134325875Y-81188125D01*
X134204514Y-81066552D01*
X134045867Y-81000676D01*
X133874087Y-81000526D01*
X133715325Y-81066125D01*
X133593752Y-81187486D01*
X133581000Y-81218196D01*
X133581000Y-80146313D01*
X134670726Y-80146313D01*
X134736325Y-80305075D01*
X134857686Y-80426648D01*
X135016333Y-80492524D01*
X135188113Y-80492674D01*
X135346875Y-80427075D01*
X135450016Y-80324113D01*
X140639726Y-80324113D01*
X140705325Y-80482875D01*
X140826686Y-80604448D01*
X140985333Y-80670324D01*
X141157113Y-80670474D01*
X141315875Y-80604875D01*
X141437448Y-80483514D01*
X141503324Y-80324867D01*
X141503474Y-80153087D01*
X141475302Y-80084905D01*
X142275934Y-80084905D01*
X142341533Y-80243667D01*
X142462894Y-80365240D01*
X142621541Y-80431116D01*
X142793321Y-80431266D01*
X142854973Y-80405792D01*
X143206666Y-80405792D01*
X143362189Y-80374857D01*
X143494034Y-80286760D01*
X143822769Y-79958026D01*
X143910866Y-79826180D01*
X143941801Y-79670657D01*
X143941801Y-77358935D01*
X144275070Y-77025666D01*
X144286725Y-77053875D01*
X144408086Y-77175448D01*
X144566733Y-77241324D01*
X144738513Y-77241474D01*
X144897275Y-77175875D01*
X145018848Y-77054514D01*
X145084724Y-76895867D01*
X145084874Y-76724087D01*
X145019275Y-76565325D01*
X144897914Y-76443752D01*
X144874199Y-76433905D01*
X144922675Y-76413875D01*
X145044248Y-76292514D01*
X145110124Y-76133867D01*
X145110274Y-75962087D01*
X145044675Y-75803325D01*
X144923314Y-75681752D01*
X144764667Y-75615876D01*
X144592887Y-75615726D01*
X144434125Y-75681325D01*
X144312552Y-75802686D01*
X144286970Y-75864294D01*
X143484600Y-76666664D01*
X143484600Y-74158536D01*
X145090243Y-72552893D01*
X145151275Y-72527675D01*
X145272848Y-72406314D01*
X145338724Y-72247667D01*
X145338874Y-72075887D01*
X145273275Y-71917125D01*
X145151914Y-71795552D01*
X144993267Y-71729676D01*
X144821487Y-71729526D01*
X144662725Y-71795125D01*
X144541152Y-71916486D01*
X144515570Y-71978094D01*
X142790832Y-73702832D01*
X142702735Y-73834677D01*
X142671800Y-73990200D01*
X142671800Y-79303946D01*
X142646476Y-79364933D01*
X142646326Y-79536713D01*
X142659068Y-79567550D01*
X142622295Y-79567518D01*
X142463533Y-79633117D01*
X142341960Y-79754478D01*
X142276084Y-79913125D01*
X142275934Y-80084905D01*
X141475302Y-80084905D01*
X141437875Y-79994325D01*
X141316514Y-79872752D01*
X141157867Y-79806876D01*
X140986087Y-79806726D01*
X140827325Y-79872325D01*
X140705752Y-79993686D01*
X140639876Y-80152333D01*
X140639726Y-80324113D01*
X135450016Y-80324113D01*
X135468448Y-80305714D01*
X135534324Y-80147067D01*
X135534474Y-79975287D01*
X135468875Y-79816525D01*
X135347514Y-79694952D01*
X135188867Y-79629076D01*
X135017087Y-79628926D01*
X134858325Y-79694525D01*
X134736752Y-79815886D01*
X134670876Y-79974533D01*
X134670726Y-80146313D01*
X133581000Y-80146313D01*
X133581000Y-78499355D01*
X137507625Y-78499355D01*
X137573224Y-78658117D01*
X137694585Y-78779690D01*
X137853232Y-78845566D01*
X138025012Y-78845716D01*
X138183774Y-78780117D01*
X138305347Y-78658756D01*
X138352120Y-78546113D01*
X139141126Y-78546113D01*
X139206725Y-78704875D01*
X139328086Y-78826448D01*
X139486733Y-78892324D01*
X139658513Y-78892474D01*
X139817275Y-78826875D01*
X139938848Y-78705514D01*
X139994490Y-78571513D01*
X140182526Y-78571513D01*
X140248125Y-78730275D01*
X140369486Y-78851848D01*
X140528133Y-78917724D01*
X140699913Y-78917874D01*
X140858675Y-78852275D01*
X140980248Y-78730914D01*
X141046124Y-78572267D01*
X141046274Y-78400487D01*
X140980675Y-78241725D01*
X140859314Y-78120152D01*
X140700667Y-78054276D01*
X140528887Y-78054126D01*
X140370125Y-78119725D01*
X140248552Y-78241086D01*
X140182676Y-78399733D01*
X140182526Y-78571513D01*
X139994490Y-78571513D01*
X140004724Y-78546867D01*
X140004874Y-78375087D01*
X139939275Y-78216325D01*
X139817914Y-78094752D01*
X139659267Y-78028876D01*
X139487487Y-78028726D01*
X139328725Y-78094325D01*
X139207152Y-78215686D01*
X139141276Y-78374333D01*
X139141126Y-78546113D01*
X138352120Y-78546113D01*
X138371223Y-78500109D01*
X138371373Y-78328329D01*
X138305774Y-78169567D01*
X138184413Y-78047994D01*
X138025766Y-77982118D01*
X137853986Y-77981968D01*
X137695224Y-78047567D01*
X137573651Y-78168928D01*
X137507775Y-78327575D01*
X137507625Y-78499355D01*
X133581000Y-78499355D01*
X133581000Y-77834913D01*
X135178726Y-77834913D01*
X135244325Y-77993675D01*
X135365686Y-78115248D01*
X135524333Y-78181124D01*
X135696113Y-78181274D01*
X135854875Y-78115675D01*
X135976448Y-77994314D01*
X136042324Y-77835667D01*
X136042474Y-77663887D01*
X135976875Y-77505125D01*
X135855514Y-77383552D01*
X135696867Y-77317676D01*
X135525087Y-77317526D01*
X135366325Y-77383125D01*
X135244752Y-77504486D01*
X135178876Y-77663133D01*
X135178726Y-77834913D01*
X133581000Y-77834913D01*
X133581000Y-71789713D01*
X135635926Y-71789713D01*
X135701525Y-71948475D01*
X135822886Y-72070048D01*
X135981533Y-72135924D01*
X136153313Y-72136074D01*
X136312075Y-72070475D01*
X136433648Y-71949114D01*
X136499524Y-71790467D01*
X136499674Y-71618687D01*
X136434075Y-71459925D01*
X136312714Y-71338352D01*
X136154067Y-71272476D01*
X135982287Y-71272326D01*
X135823525Y-71337925D01*
X135701952Y-71459286D01*
X135636076Y-71617933D01*
X135635926Y-71789713D01*
X133581000Y-71789713D01*
X133581000Y-71408713D01*
X134721526Y-71408713D01*
X134787125Y-71567475D01*
X134908486Y-71689048D01*
X135067133Y-71754924D01*
X135238913Y-71755074D01*
X135397675Y-71689475D01*
X135519248Y-71568114D01*
X135585124Y-71409467D01*
X135585274Y-71237687D01*
X135519675Y-71078925D01*
X135398314Y-70957352D01*
X135239667Y-70891476D01*
X135067887Y-70891326D01*
X134909125Y-70956925D01*
X134787552Y-71078286D01*
X134721676Y-71236933D01*
X134721526Y-71408713D01*
X133581000Y-71408713D01*
X133581000Y-67217713D01*
X134823126Y-67217713D01*
X134888725Y-67376475D01*
X135010086Y-67498048D01*
X135168733Y-67563924D01*
X135340513Y-67564074D01*
X135499275Y-67498475D01*
X135620848Y-67377114D01*
X135686724Y-67218467D01*
X135686874Y-67046687D01*
X135621275Y-66887925D01*
X135499914Y-66766352D01*
X135341267Y-66700476D01*
X135169487Y-66700326D01*
X135010725Y-66765925D01*
X134889152Y-66887286D01*
X134823276Y-67045933D01*
X134823126Y-67217713D01*
X133581000Y-67217713D01*
X133581000Y-66675000D01*
X145819000Y-66675000D01*
X145819000Y-89210246D01*
M02*
