G04 #@! TF.FileFunction,Copper,L4,Bot,Signal*
%FSLAX46Y46*%
G04 Gerber Fmt 4.6, Leading zero omitted, Abs format (unit mm)*
G04 Created by KiCad (PCBNEW 4.0.5) date 07/06/17 21:13:05*
%MOMM*%
%LPD*%
G01*
G04 APERTURE LIST*
%ADD10C,0.100000*%
%ADD11O,1.250000X0.950000*%
%ADD12O,1.000000X1.550000*%
%ADD13R,2.000000X2.000000*%
%ADD14C,0.787000*%
%ADD15R,1.500000X1.500000*%
%ADD16R,0.800000X0.900000*%
%ADD17R,0.280000X0.430000*%
%ADD18R,1.100000X0.600000*%
%ADD19R,0.800000X0.600000*%
%ADD20C,0.355600*%
%ADD21C,0.304800*%
%ADD22C,0.203200*%
%ADD23C,0.304800*%
%ADD24C,0.254000*%
%ADD25C,0.381000*%
%ADD26C,0.152400*%
%ADD27C,0.508000*%
G04 APERTURE END LIST*
D10*
D11*
X137200000Y-102409000D03*
X142200000Y-102409000D03*
D12*
X136200000Y-105109000D03*
X143200000Y-105109000D03*
D13*
X138962000Y-72771000D03*
X141962000Y-72771000D03*
D14*
X134569200Y-70637400D03*
X135839200Y-70637400D03*
X134569200Y-69367400D03*
X135839200Y-69367400D03*
X134569200Y-68097400D03*
X135839200Y-68097400D03*
D15*
X141950000Y-106680000D03*
X139700000Y-106680000D03*
X137450000Y-106680000D03*
D16*
X137789960Y-93339160D03*
X135889960Y-93339160D03*
X136839960Y-91339160D03*
D17*
X136717120Y-87797640D03*
X137237120Y-87797640D03*
D13*
X136525000Y-85169000D03*
X136525000Y-82169000D03*
X136525000Y-79169000D03*
D18*
X141045720Y-97820440D03*
X141045720Y-98770440D03*
X141045720Y-99720440D03*
X138445720Y-99720440D03*
X138445720Y-97820440D03*
D13*
X142089000Y-75565000D03*
X138839000Y-75565000D03*
D19*
X134239000Y-94753800D03*
X134239000Y-93053800D03*
X136017000Y-89064200D03*
X136017000Y-87364200D03*
D20*
X136067800Y-71704200D03*
X135153400Y-71323200D03*
X135610600Y-77749400D03*
X135102600Y-80060800D03*
X139141200Y-100482400D03*
X136271000Y-100126800D03*
X135915400Y-92329000D03*
X139496800Y-96723200D03*
X140970000Y-91694000D03*
X134874000Y-81229200D03*
X141071600Y-81305400D03*
X141071600Y-80238600D03*
X138938000Y-82448400D03*
X139662799Y-91668600D03*
X138277600Y-81508600D03*
X144729200Y-77851000D03*
X143408400Y-82016600D03*
X135940800Y-74142600D03*
X144703800Y-71374000D03*
X137134600Y-67437000D03*
X135585200Y-77012800D03*
X141135382Y-90527782D03*
X143103600Y-99212400D03*
X141478000Y-100914200D03*
X134772400Y-79222600D03*
X134518400Y-82118200D03*
X142163800Y-78460600D03*
X138202199Y-83413438D03*
X143367362Y-89311540D03*
X139649200Y-90195400D03*
X134366000Y-67335400D03*
D21*
X141605000Y-105521760D03*
D20*
X135204200Y-86842600D03*
X139344400Y-97256600D03*
X145745200Y-91033600D03*
X135255000Y-67132200D03*
X144780000Y-81051400D03*
X133959600Y-81432400D03*
X144653000Y-76809600D03*
X137939499Y-78413842D03*
X140614400Y-78486000D03*
X139573000Y-78460600D03*
X138430000Y-100965000D03*
X141478000Y-92862400D03*
X142240000Y-89382600D03*
X138531600Y-96926400D03*
X144932400Y-87934800D03*
X141986000Y-99161600D03*
X145313400Y-94818200D03*
X144932400Y-86664800D03*
X144983200Y-85318600D03*
X143306800Y-93853001D03*
X139395200Y-98298000D03*
X142900400Y-89433400D03*
X142951200Y-97307400D03*
X144399000Y-89382600D03*
X143713200Y-95072200D03*
X145059400Y-85953600D03*
X140614400Y-92989400D03*
X145008600Y-84734400D03*
X138506200Y-90855800D03*
X134239000Y-90144600D03*
X143078200Y-79451200D03*
X144907000Y-72161400D03*
X142707808Y-79999392D03*
X144678400Y-76047600D03*
X145694400Y-93497400D03*
X145719800Y-89636600D03*
X143891000Y-92913200D03*
X136829800Y-89001600D03*
D22*
X138962000Y-72771000D02*
X137134600Y-72771000D01*
X137134600Y-72771000D02*
X136067800Y-71704200D01*
D23*
X134569200Y-70637400D02*
X134569200Y-70739000D01*
X134569200Y-70739000D02*
X135153400Y-71323200D01*
X135889960Y-93339160D02*
X135889960Y-92354440D01*
X135889960Y-92354440D02*
X135915400Y-92329000D01*
D24*
X134569200Y-70637400D02*
X134823200Y-70637400D01*
D22*
X136525000Y-79169000D02*
X134826000Y-79169000D01*
X134826000Y-79169000D02*
X134772400Y-79222600D01*
X138839000Y-75565000D02*
X137363200Y-75565000D01*
X137363200Y-75565000D02*
X135940800Y-74142600D01*
D25*
X141045720Y-98770440D02*
X141149861Y-98666299D01*
X141149861Y-98666299D02*
X142557499Y-98666299D01*
X142557499Y-98666299D02*
X143103600Y-99212400D01*
D24*
X134569200Y-68097400D02*
X134569200Y-67538600D01*
X134569200Y-67538600D02*
X134366000Y-67335400D01*
D25*
X141045720Y-98770440D02*
X140601650Y-98770440D01*
D23*
X141950000Y-106680000D02*
X141950000Y-105866760D01*
X141950000Y-105866760D02*
X141605000Y-105521760D01*
X136525000Y-79169000D02*
X135988800Y-79169000D01*
X139344400Y-97256600D02*
X139009560Y-97256600D01*
X139009560Y-97256600D02*
X138445720Y-97820440D01*
X138445720Y-97820440D02*
X138195720Y-97820440D01*
D24*
X135839200Y-68097400D02*
X135839200Y-67716400D01*
X135839200Y-67716400D02*
X135255000Y-67132200D01*
D23*
X133959600Y-81432400D02*
X134620001Y-80771999D01*
X134620001Y-80771999D02*
X144500599Y-80771999D01*
X144500599Y-80771999D02*
X144780000Y-81051400D01*
D24*
X140969999Y-78917801D02*
X142544799Y-78917801D01*
X142544799Y-78917801D02*
X144653000Y-76809600D01*
X137939499Y-78413842D02*
X138887176Y-78413842D01*
X138887176Y-78413842D02*
X139391135Y-78917801D01*
X139391135Y-78917801D02*
X140969999Y-78917801D01*
D22*
X140614400Y-77749400D02*
X140614400Y-78486000D01*
X139658601Y-76793601D02*
X140614400Y-77749400D01*
X137656119Y-76793601D02*
X139658601Y-76793601D01*
X135432800Y-71729600D02*
X135432800Y-74570282D01*
X135432800Y-74570282D02*
X137656119Y-76793601D01*
X135902899Y-71259501D02*
X135432800Y-71729600D01*
X136137809Y-71259501D02*
X135902899Y-71259501D01*
X135839200Y-69367400D02*
X135839200Y-69716690D01*
X135839200Y-69716690D02*
X136461301Y-70338791D01*
X136461301Y-70936009D02*
X136137809Y-71259501D01*
X136461301Y-70338791D02*
X136461301Y-70936009D01*
X139573000Y-78460600D02*
X138236211Y-77123811D01*
X138236211Y-77123811D02*
X137519342Y-77123811D01*
X137519342Y-77123811D02*
X133947099Y-73551568D01*
X133947099Y-73551568D02*
X133947099Y-69989501D01*
X133947099Y-69989501D02*
X134175701Y-69760899D01*
X134175701Y-69760899D02*
X134569200Y-69367400D01*
X142200000Y-104013000D02*
X142200000Y-104812200D01*
X142200000Y-102409000D02*
X142200000Y-104013000D01*
X137200000Y-102409000D02*
X137200000Y-104114600D01*
X137200000Y-104114600D02*
X137200000Y-104812200D01*
X142200000Y-104013000D02*
X137301600Y-104013000D01*
X137301600Y-104013000D02*
X137200000Y-104114600D01*
X142200000Y-104812200D02*
X142496800Y-105109000D01*
X142496800Y-105109000D02*
X143200000Y-105109000D01*
X137200000Y-104812200D02*
X136903200Y-105109000D01*
X136903200Y-105109000D02*
X136200000Y-105109000D01*
D26*
X144932400Y-86664800D02*
X145313400Y-87045800D01*
X145313400Y-87045800D02*
X145313400Y-94818200D01*
X143306800Y-93853001D02*
X143306800Y-89935984D01*
X143306800Y-89935984D02*
X143748363Y-89494421D01*
X143748363Y-89494421D02*
X143748363Y-86553437D01*
X143748363Y-86553437D02*
X144983200Y-85318600D01*
X145059400Y-85953600D02*
X144027773Y-86985227D01*
X144027773Y-86985227D02*
X144027773Y-88447491D01*
X144027773Y-88447491D02*
X144780001Y-89199719D01*
X144780001Y-94005399D02*
X143713200Y-95072200D01*
X144780001Y-89199719D02*
X144780001Y-94005399D01*
D22*
X136839960Y-91339160D02*
X138022840Y-91339160D01*
X138022840Y-91339160D02*
X138506200Y-90855800D01*
D24*
X134239000Y-90144600D02*
X134239000Y-90396047D01*
X134239000Y-90396047D02*
X135182113Y-91339160D01*
X135182113Y-91339160D02*
X136185960Y-91339160D01*
X136185960Y-91339160D02*
X136839960Y-91339160D01*
D23*
X141962000Y-72771000D02*
X144297400Y-72771000D01*
X144297400Y-72771000D02*
X144907000Y-72161400D01*
X142089000Y-75565000D02*
X144195800Y-75565000D01*
X144195800Y-75565000D02*
X144678400Y-76047600D01*
D22*
X136717120Y-87797640D02*
X136717120Y-88215840D01*
X136717120Y-88215840D02*
X138912601Y-90411321D01*
X138912601Y-90411321D02*
X138912601Y-91563319D01*
X138912601Y-91563319D02*
X137789960Y-92685960D01*
X137789960Y-92685960D02*
X137789960Y-93339160D01*
D24*
X137779001Y-83499201D02*
X136601201Y-83499201D01*
X136601201Y-83499201D02*
X136525000Y-83423000D01*
X136525000Y-83423000D02*
X136525000Y-82169000D01*
X137237120Y-87797640D02*
X137237120Y-87328640D01*
X137779001Y-86786759D02*
X137779001Y-83499201D01*
X137237120Y-87328640D02*
X137779001Y-86786759D01*
D25*
X133743699Y-90919299D02*
X134239000Y-91414600D01*
X134239000Y-91414600D02*
X134239000Y-93053800D01*
X136017000Y-87364200D02*
X135917000Y-87364200D01*
X135917000Y-87364200D02*
X133743699Y-89537501D01*
X133743699Y-89537501D02*
X133743699Y-90919299D01*
D27*
X136017000Y-87364200D02*
X136017000Y-85677000D01*
X136017000Y-85677000D02*
X136525000Y-85169000D01*
D25*
X140093640Y-99699360D02*
X140093640Y-98831400D01*
X140093640Y-98831400D02*
X140093640Y-97841520D01*
D23*
X134239000Y-94753800D02*
X134239000Y-95358600D01*
X134239000Y-95358600D02*
X137711800Y-98831400D01*
X137711800Y-98831400D02*
X140093640Y-98831400D01*
D25*
X141045720Y-99720440D02*
X140114720Y-99720440D01*
X140114720Y-99720440D02*
X140093640Y-99699360D01*
X140093640Y-97841520D02*
X140114720Y-97820440D01*
X140114720Y-97820440D02*
X141045720Y-97820440D01*
D26*
X136017000Y-89064200D02*
X136767200Y-89064200D01*
X136767200Y-89064200D02*
X136829800Y-89001600D01*
M02*
