%FSLAX45Y45*%
G04 Gerber Fmt 4.5, Leading zero omitted, Abs format (unit mm)*
G04 Created by KiCad (PCBNEW 4.0.5) date Wednesday, June 21, 2017 'AMt' 10:32:57 AM*
%MOMM*%
%LPD*%
G01*
G04 APERTURE LIST*
%ADD10C,0.127000*%
%ADD11C,0.254000*%
%ADD12C,0.200000*%
%ADD13C,0.300000*%
G04 APERTURE END LIST*
D10*
D11*
X13370000Y-6629400D02*
X13370000Y-10795000D01*
X14569544Y-6629400D02*
X13369544Y-6629400D01*
X14570000Y-10795000D02*
X14570000Y-6629400D01*
X13370000Y-10795000D02*
X14570000Y-10795000D01*
D12*
X13400532Y-6736588D02*
X13420852Y-6756908D01*
X13420852Y-6736588D02*
X13400532Y-6756908D01*
X13406628Y-7133844D02*
X13426948Y-7154164D01*
X13426948Y-7133844D02*
X13406628Y-7154164D01*
X13424916Y-7923784D02*
X13445236Y-7944104D01*
X13445236Y-7923784D02*
X13424916Y-7944104D01*
X13433044Y-8893556D02*
X13453364Y-8913876D01*
X13453364Y-8893556D02*
X13433044Y-8913876D01*
X13441680Y-8814308D02*
X13462000Y-8834628D01*
X13462000Y-8814308D02*
X13441680Y-8834628D01*
X13443712Y-6728968D02*
X13464032Y-6749288D01*
X13464032Y-6728968D02*
X13443712Y-6749288D01*
X13462508Y-8049260D02*
X13482828Y-8069580D01*
X13482828Y-8049260D02*
X13462508Y-8069580D01*
X13464540Y-8179308D02*
X13484860Y-8199628D01*
X13484860Y-8179308D02*
X13464540Y-8199628D01*
X13476732Y-8305800D02*
X13497052Y-8326120D01*
X13497052Y-8305800D02*
X13476732Y-8326120D01*
X13490448Y-7808468D02*
X13510768Y-7828788D01*
X13510768Y-7808468D02*
X13490448Y-7828788D01*
X13510768Y-7909560D02*
X13531088Y-7929880D01*
X13531088Y-7909560D02*
X13510768Y-7929880D01*
X13523468Y-7519924D02*
X13543788Y-7540244D01*
X13543788Y-7519924D02*
X13523468Y-7540244D01*
X13547090Y-9908540D02*
X13567410Y-9928860D01*
X13567410Y-9908540D02*
X13547090Y-9928860D01*
X13554964Y-7720584D02*
X13575284Y-7740904D01*
X13575284Y-7720584D02*
X13554964Y-7740904D01*
X13557504Y-6732016D02*
X13577824Y-6752336D01*
X13577824Y-6732016D02*
X13557504Y-6752336D01*
X13564616Y-9046972D02*
X13584936Y-9067292D01*
X13584936Y-9046972D02*
X13564616Y-9067292D01*
X13605256Y-8334756D02*
X13625576Y-8355076D01*
X13625576Y-8334756D02*
X13605256Y-8355076D01*
X13634720Y-6740144D02*
X13655040Y-6760464D01*
X13655040Y-6740144D02*
X13634720Y-6760464D01*
X13729208Y-6742684D02*
X13749528Y-6763004D01*
X13749528Y-6742684D02*
X13729208Y-6763004D01*
X13735812Y-8349488D02*
X13756132Y-8369808D01*
X13756132Y-8349488D02*
X13735812Y-8369808D01*
X13786612Y-7862824D02*
X13806932Y-7883144D01*
X13806932Y-7862824D02*
X13786612Y-7883144D01*
X13798804Y-7125716D02*
X13819124Y-7146036D01*
X13819124Y-7125716D02*
X13798804Y-7146036D01*
X13813536Y-9425432D02*
X13833856Y-9445752D01*
X13833856Y-9425432D02*
X13813536Y-9445752D01*
X13825220Y-8237220D02*
X13845540Y-8257540D01*
X13845540Y-8237220D02*
X13825220Y-8257540D01*
X13832840Y-9662668D02*
X13853160Y-9682988D01*
X13853160Y-9662668D02*
X13832840Y-9682988D01*
X13843508Y-8119364D02*
X13863828Y-8139684D01*
X13863828Y-8119364D02*
X13843508Y-8139684D01*
X13890244Y-8062976D02*
X13910564Y-8083296D01*
X13910564Y-8062976D02*
X13890244Y-8083296D01*
X13909040Y-9087104D02*
X13929360Y-9107424D01*
X13929360Y-9087104D02*
X13909040Y-9107424D01*
X13921740Y-7990840D02*
X13942060Y-8011160D01*
X13942060Y-7990840D02*
X13921740Y-8011160D01*
X13950188Y-9610852D02*
X13970508Y-9631172D01*
X13970508Y-9610852D02*
X13950188Y-9631172D01*
X13953490Y-9222740D02*
X13973810Y-9243060D01*
X13973810Y-9222740D02*
X13953490Y-9243060D01*
X13959840Y-8079740D02*
X13980160Y-8100060D01*
X13980160Y-8079740D02*
X13959840Y-8100060D01*
X13975080Y-7967980D02*
X13995400Y-7988300D01*
X13995400Y-7967980D02*
X13975080Y-7988300D01*
X13975588Y-10070084D02*
X13995908Y-10090404D01*
X13995908Y-10070084D02*
X13975588Y-10090404D01*
X14023340Y-7978140D02*
X14043660Y-7998460D01*
X14043660Y-7978140D02*
X14023340Y-7998460D01*
X14067244Y-9467027D02*
X14087564Y-9487347D01*
X14087564Y-9467027D02*
X14067244Y-9487347D01*
X14079220Y-7965440D02*
X14099540Y-7985760D01*
X14099540Y-7965440D02*
X14079220Y-7985760D01*
X14087107Y-9149347D02*
X14107427Y-9169667D01*
X14107427Y-9149347D02*
X14087107Y-9169667D01*
X14087348Y-10365232D02*
X14107668Y-10385552D01*
X14107668Y-10365232D02*
X14087348Y-10385552D01*
X14124500Y-9286240D02*
X14144820Y-9306560D01*
X14144820Y-9286240D02*
X14124500Y-9306560D01*
X14124940Y-8079740D02*
X14145260Y-8100060D01*
X14145260Y-8079740D02*
X14124940Y-8100060D01*
X14128496Y-9455404D02*
X14148816Y-9475724D01*
X14148816Y-9455404D02*
X14128496Y-9475724D01*
X14150340Y-10542016D02*
X14170660Y-10562336D01*
X14170660Y-10542016D02*
X14150340Y-10562336D01*
X14164056Y-9588500D02*
X14184376Y-9608820D01*
X14184376Y-9588500D02*
X14164056Y-9608820D01*
X14174724Y-7967980D02*
X14195044Y-7988300D01*
X14195044Y-7967980D02*
X14174724Y-7988300D01*
X14209268Y-10017760D02*
X14229588Y-10038080D01*
X14229588Y-10017760D02*
X14209268Y-10038080D01*
X14232890Y-9438640D02*
X14253210Y-9458960D01*
X14253210Y-9438640D02*
X14232890Y-9458960D01*
X14258290Y-9584690D02*
X14278610Y-9605010D01*
X14278610Y-9584690D02*
X14258290Y-9605010D01*
X14264640Y-8079740D02*
X14284960Y-8100060D01*
X14284960Y-8079740D02*
X14264640Y-8100060D01*
X14270990Y-8562340D02*
X14291310Y-8582660D01*
X14291310Y-8562340D02*
X14270990Y-8582660D01*
X14277340Y-8498840D02*
X14297660Y-8519160D01*
X14297660Y-8498840D02*
X14277340Y-8519160D01*
X14277340Y-8625840D02*
X14297660Y-8646160D01*
X14297660Y-8625840D02*
X14277340Y-8646160D01*
X14281404Y-10073640D02*
X14301724Y-10093960D01*
X14301724Y-10073640D02*
X14281404Y-10093960D01*
X14305280Y-7800848D02*
X14325600Y-7821168D01*
X14325600Y-7800848D02*
X14305280Y-7821168D01*
X14339824Y-10082276D02*
X14360144Y-10102596D01*
X14360144Y-10082276D02*
X14339824Y-10102596D01*
X14354556Y-9394952D02*
X14374876Y-9415272D01*
X14374876Y-9394952D02*
X14354556Y-9415272D01*
X14355572Y-9134856D02*
X14375892Y-9155176D01*
X14375892Y-9134856D02*
X14355572Y-9155176D01*
X14366240Y-9705848D02*
X14386560Y-9726168D01*
X14386560Y-9705848D02*
X14366240Y-9726168D01*
X14376908Y-8981440D02*
X14397228Y-9001760D01*
X14397228Y-8981440D02*
X14376908Y-9001760D01*
X14404340Y-7796784D02*
X14424660Y-7817104D01*
X14424660Y-7796784D02*
X14404340Y-7817104D01*
X14407387Y-9210040D02*
X14427707Y-9230360D01*
X14427707Y-9210040D02*
X14407387Y-9230360D01*
X14417040Y-7851140D02*
X14437360Y-7871460D01*
X14437360Y-7851140D02*
X14417040Y-7871460D01*
X14447012Y-7123176D02*
X14467332Y-7143496D01*
X14467332Y-7123176D02*
X14447012Y-7143496D01*
X14447012Y-10234676D02*
X14467332Y-10254996D01*
X14467332Y-10234676D02*
X14447012Y-10254996D01*
X14450568Y-7963916D02*
X14470888Y-7984236D01*
X14470888Y-7963916D02*
X14450568Y-7984236D01*
X14458188Y-9396476D02*
X14478508Y-9416796D01*
X14478508Y-9396476D02*
X14458188Y-9416796D01*
X14459712Y-8329676D02*
X14480032Y-8349996D01*
X14480032Y-8329676D02*
X14459712Y-8349996D01*
X14463268Y-7913116D02*
X14483588Y-7933436D01*
X14483588Y-7913116D02*
X14463268Y-7933436D01*
X14476984Y-8059420D02*
X14497304Y-8079740D01*
X14497304Y-8059420D02*
X14476984Y-8079740D01*
X14508988Y-7377684D02*
X14529308Y-7398004D01*
X14529308Y-7377684D02*
X14508988Y-7398004D01*
X14510512Y-9714992D02*
X14530832Y-9735312D01*
X14530832Y-9714992D02*
X14510512Y-9735312D01*
X14517116Y-10088372D02*
X14537436Y-10108692D01*
X14537436Y-10088372D02*
X14517116Y-10108692D01*
X13645000Y-10498200D02*
G75*
G03X13645000Y-10498200I-25000J0D01*
G01*
X13635000Y-10530700D02*
X13635000Y-10465700D01*
X13605000Y-10530700D02*
X13605000Y-10465700D01*
X13635000Y-10465700D02*
G75*
G03X13605000Y-10465700I-15000J0D01*
G01*
X13605000Y-10530700D02*
G75*
G03X13635000Y-10530700I15000J0D01*
G01*
X14345000Y-10498200D02*
G75*
G03X14345000Y-10498200I-25000J0D01*
G01*
X14335000Y-10530700D02*
X14335000Y-10465700D01*
X14305000Y-10530700D02*
X14305000Y-10465700D01*
X14335000Y-10465700D02*
G75*
G03X14305000Y-10465700I-15000J0D01*
G01*
X14305000Y-10530700D02*
G75*
G03X14335000Y-10530700I15000J0D01*
G01*
X13720000Y-10200700D02*
X13720000Y-10255700D01*
X13692500Y-10228200D02*
X13747500Y-10228200D01*
X13705000Y-10245700D02*
X13735000Y-10245700D01*
X13705000Y-10210700D02*
X13735000Y-10210700D01*
X13735000Y-10245700D02*
G75*
G03X13735000Y-10210700I0J17500D01*
G01*
X13705000Y-10210700D02*
G75*
G03X13705000Y-10245700I0J-17500D01*
G01*
X14220000Y-10200700D02*
X14220000Y-10255700D01*
X14192500Y-10228200D02*
X14247500Y-10228200D01*
X14205000Y-10245700D02*
X14235000Y-10245700D01*
X14205000Y-10210700D02*
X14235000Y-10210700D01*
X14235000Y-10245700D02*
G75*
G03X14235000Y-10210700I0J17500D01*
G01*
X14205000Y-10210700D02*
G75*
G03X14205000Y-10245700I0J-17500D01*
G01*
D13*
X13628272Y-11273414D02*
X13628272Y-10973414D01*
X13699701Y-10973414D01*
X13742558Y-10987700D01*
X13771130Y-11016272D01*
X13785415Y-11044843D01*
X13799701Y-11101986D01*
X13799701Y-11144843D01*
X13785415Y-11201986D01*
X13771130Y-11230557D01*
X13742558Y-11259129D01*
X13699701Y-11273414D01*
X13628272Y-11273414D01*
X13928272Y-11273414D02*
X13928272Y-11073414D01*
X13928272Y-11130557D02*
X13942558Y-11101986D01*
X13956844Y-11087700D01*
X13985415Y-11073414D01*
X14013987Y-11073414D01*
X14113987Y-11273414D02*
X14113987Y-11073414D01*
X14113987Y-10973414D02*
X14099701Y-10987700D01*
X14113987Y-11001986D01*
X14128272Y-10987700D01*
X14113987Y-10973414D01*
X14113987Y-11001986D01*
X14299701Y-11273414D02*
X14271130Y-11259129D01*
X14256844Y-11230557D01*
X14256844Y-10973414D01*
X14456844Y-11273414D02*
X14428272Y-11259129D01*
X14413987Y-11230557D01*
X14413987Y-10973414D01*
X14799701Y-11273414D02*
X14799701Y-10973414D01*
X14899701Y-11187700D01*
X14999701Y-10973414D01*
X14999701Y-11273414D01*
X15271130Y-11273414D02*
X15271130Y-11116272D01*
X15256844Y-11087700D01*
X15228272Y-11073414D01*
X15171130Y-11073414D01*
X15142558Y-11087700D01*
X15271130Y-11259129D02*
X15242558Y-11273414D01*
X15171130Y-11273414D01*
X15142558Y-11259129D01*
X15128272Y-11230557D01*
X15128272Y-11201986D01*
X15142558Y-11173414D01*
X15171130Y-11159129D01*
X15242558Y-11159129D01*
X15271130Y-11144843D01*
X15413987Y-11073414D02*
X15413987Y-11373414D01*
X15413987Y-11087700D02*
X15442558Y-11073414D01*
X15499701Y-11073414D01*
X15528272Y-11087700D01*
X15542558Y-11101986D01*
X15556844Y-11130557D01*
X15556844Y-11216271D01*
X15542558Y-11244843D01*
X15528272Y-11259129D01*
X15499701Y-11273414D01*
X15442558Y-11273414D01*
X15413987Y-11259129D01*
X15685415Y-11244843D02*
X15699701Y-11259129D01*
X15685415Y-11273414D01*
X15671130Y-11259129D01*
X15685415Y-11244843D01*
X15685415Y-11273414D01*
X15685415Y-11087700D02*
X15699701Y-11101986D01*
X15685415Y-11116272D01*
X15671130Y-11101986D01*
X15685415Y-11087700D01*
X15685415Y-11116272D01*
X13336524Y-11757540D02*
X13356844Y-11777860D01*
X13356844Y-11757540D02*
X13336524Y-11777860D01*
X13685415Y-11603414D02*
X13713987Y-11603414D01*
X13742558Y-11617700D01*
X13756844Y-11631986D01*
X13771130Y-11660557D01*
X13785415Y-11717700D01*
X13785415Y-11789129D01*
X13771130Y-11846271D01*
X13756844Y-11874843D01*
X13742558Y-11889129D01*
X13713987Y-11903414D01*
X13685415Y-11903414D01*
X13656844Y-11889129D01*
X13642558Y-11874843D01*
X13628272Y-11846271D01*
X13613987Y-11789129D01*
X13613987Y-11717700D01*
X13628272Y-11660557D01*
X13642558Y-11631986D01*
X13656844Y-11617700D01*
X13685415Y-11603414D01*
X13913987Y-11874843D02*
X13928272Y-11889129D01*
X13913987Y-11903414D01*
X13899701Y-11889129D01*
X13913987Y-11874843D01*
X13913987Y-11903414D01*
X14042558Y-11631986D02*
X14056844Y-11617700D01*
X14085415Y-11603414D01*
X14156844Y-11603414D01*
X14185415Y-11617700D01*
X14199701Y-11631986D01*
X14213987Y-11660557D01*
X14213987Y-11689129D01*
X14199701Y-11731986D01*
X14028272Y-11903414D01*
X14213987Y-11903414D01*
X14399701Y-11603414D02*
X14428272Y-11603414D01*
X14456844Y-11617700D01*
X14471130Y-11631986D01*
X14485415Y-11660557D01*
X14499701Y-11717700D01*
X14499701Y-11789129D01*
X14485415Y-11846271D01*
X14471130Y-11874843D01*
X14456844Y-11889129D01*
X14428272Y-11903414D01*
X14399701Y-11903414D01*
X14371130Y-11889129D01*
X14356844Y-11874843D01*
X14342558Y-11846271D01*
X14328272Y-11789129D01*
X14328272Y-11717700D01*
X14342558Y-11660557D01*
X14356844Y-11631986D01*
X14371130Y-11617700D01*
X14399701Y-11603414D01*
X14628272Y-11903414D02*
X14628272Y-11703414D01*
X14628272Y-11731986D02*
X14642558Y-11717700D01*
X14671130Y-11703414D01*
X14713987Y-11703414D01*
X14742558Y-11717700D01*
X14756844Y-11746271D01*
X14756844Y-11903414D01*
X14756844Y-11746271D02*
X14771130Y-11717700D01*
X14799701Y-11703414D01*
X14842558Y-11703414D01*
X14871130Y-11717700D01*
X14885415Y-11746271D01*
X14885415Y-11903414D01*
X15028272Y-11903414D02*
X15028272Y-11703414D01*
X15028272Y-11731986D02*
X15042558Y-11717700D01*
X15071130Y-11703414D01*
X15113987Y-11703414D01*
X15142558Y-11717700D01*
X15156844Y-11746271D01*
X15156844Y-11903414D01*
X15156844Y-11746271D02*
X15171130Y-11717700D01*
X15199701Y-11703414D01*
X15242558Y-11703414D01*
X15271130Y-11717700D01*
X15285415Y-11746271D01*
X15285415Y-11903414D01*
X15871130Y-11589129D02*
X15613987Y-11974843D01*
X16256844Y-11603414D02*
X16285415Y-11603414D01*
X16313987Y-11617700D01*
X16328272Y-11631986D01*
X16342558Y-11660557D01*
X16356844Y-11717700D01*
X16356844Y-11789129D01*
X16342558Y-11846271D01*
X16328272Y-11874843D01*
X16313987Y-11889129D01*
X16285415Y-11903414D01*
X16256844Y-11903414D01*
X16228272Y-11889129D01*
X16213987Y-11874843D01*
X16199701Y-11846271D01*
X16185415Y-11789129D01*
X16185415Y-11717700D01*
X16199701Y-11660557D01*
X16213987Y-11631986D01*
X16228272Y-11617700D01*
X16256844Y-11603414D01*
X16485415Y-11874843D02*
X16499701Y-11889129D01*
X16485415Y-11903414D01*
X16471130Y-11889129D01*
X16485415Y-11874843D01*
X16485415Y-11903414D01*
X16685415Y-11603414D02*
X16713987Y-11603414D01*
X16742558Y-11617700D01*
X16756844Y-11631986D01*
X16771129Y-11660557D01*
X16785415Y-11717700D01*
X16785415Y-11789129D01*
X16771129Y-11846271D01*
X16756844Y-11874843D01*
X16742558Y-11889129D01*
X16713987Y-11903414D01*
X16685415Y-11903414D01*
X16656844Y-11889129D01*
X16642558Y-11874843D01*
X16628272Y-11846271D01*
X16613987Y-11789129D01*
X16613987Y-11717700D01*
X16628272Y-11660557D01*
X16642558Y-11631986D01*
X16656844Y-11617700D01*
X16685415Y-11603414D01*
X16971130Y-11603414D02*
X16999701Y-11603414D01*
X17028272Y-11617700D01*
X17042558Y-11631986D01*
X17056844Y-11660557D01*
X17071130Y-11717700D01*
X17071130Y-11789129D01*
X17056844Y-11846271D01*
X17042558Y-11874843D01*
X17028272Y-11889129D01*
X16999701Y-11903414D01*
X16971130Y-11903414D01*
X16942558Y-11889129D01*
X16928272Y-11874843D01*
X16913987Y-11846271D01*
X16899701Y-11789129D01*
X16899701Y-11717700D01*
X16913987Y-11660557D01*
X16928272Y-11631986D01*
X16942558Y-11617700D01*
X16971130Y-11603414D01*
X17242558Y-11731986D02*
X17213987Y-11717700D01*
X17199701Y-11703414D01*
X17185415Y-11674843D01*
X17185415Y-11660557D01*
X17199701Y-11631986D01*
X17213987Y-11617700D01*
X17242558Y-11603414D01*
X17299701Y-11603414D01*
X17328272Y-11617700D01*
X17342558Y-11631986D01*
X17356844Y-11660557D01*
X17356844Y-11674843D01*
X17342558Y-11703414D01*
X17328272Y-11717700D01*
X17299701Y-11731986D01*
X17242558Y-11731986D01*
X17213987Y-11746271D01*
X17199701Y-11760557D01*
X17185415Y-11789129D01*
X17185415Y-11846271D01*
X17199701Y-11874843D01*
X17213987Y-11889129D01*
X17242558Y-11903414D01*
X17299701Y-11903414D01*
X17328272Y-11889129D01*
X17342558Y-11874843D01*
X17356844Y-11846271D01*
X17356844Y-11789129D01*
X17342558Y-11760557D01*
X17328272Y-11746271D01*
X17299701Y-11731986D01*
X17471130Y-11603414D02*
X17471130Y-11660557D01*
X17585415Y-11603414D02*
X17585415Y-11660557D01*
X18028272Y-12017700D02*
X18013987Y-12003414D01*
X17985415Y-11960557D01*
X17971130Y-11931986D01*
X17956844Y-11889129D01*
X17942558Y-11817700D01*
X17942558Y-11760557D01*
X17956844Y-11689129D01*
X17971130Y-11646271D01*
X17985415Y-11617700D01*
X18013987Y-11574843D01*
X18028272Y-11560557D01*
X18113987Y-11603414D02*
X18313987Y-11603414D01*
X18185415Y-11903414D01*
X18413987Y-11631986D02*
X18428272Y-11617700D01*
X18456844Y-11603414D01*
X18528272Y-11603414D01*
X18556844Y-11617700D01*
X18571130Y-11631986D01*
X18585415Y-11660557D01*
X18585415Y-11689129D01*
X18571130Y-11731986D01*
X18399701Y-11903414D01*
X18585415Y-11903414D01*
X18942558Y-11903414D02*
X18942558Y-11603414D01*
X19071130Y-11903414D02*
X19071130Y-11746271D01*
X19056844Y-11717700D01*
X19028272Y-11703414D01*
X18985415Y-11703414D01*
X18956844Y-11717700D01*
X18942558Y-11731986D01*
X19256844Y-11903414D02*
X19228272Y-11889129D01*
X19213987Y-11874843D01*
X19199701Y-11846271D01*
X19199701Y-11760557D01*
X19213987Y-11731986D01*
X19228272Y-11717700D01*
X19256844Y-11703414D01*
X19299701Y-11703414D01*
X19328272Y-11717700D01*
X19342558Y-11731986D01*
X19356844Y-11760557D01*
X19356844Y-11846271D01*
X19342558Y-11874843D01*
X19328272Y-11889129D01*
X19299701Y-11903414D01*
X19256844Y-11903414D01*
X19528272Y-11903414D02*
X19499701Y-11889129D01*
X19485415Y-11860557D01*
X19485415Y-11603414D01*
X19756844Y-11889129D02*
X19728273Y-11903414D01*
X19671130Y-11903414D01*
X19642558Y-11889129D01*
X19628273Y-11860557D01*
X19628273Y-11746271D01*
X19642558Y-11717700D01*
X19671130Y-11703414D01*
X19728273Y-11703414D01*
X19756844Y-11717700D01*
X19771130Y-11746271D01*
X19771130Y-11774843D01*
X19628273Y-11803414D01*
X19885415Y-11889129D02*
X19913987Y-11903414D01*
X19971130Y-11903414D01*
X19999701Y-11889129D01*
X20013987Y-11860557D01*
X20013987Y-11846271D01*
X19999701Y-11817700D01*
X19971130Y-11803414D01*
X19928273Y-11803414D01*
X19899701Y-11789129D01*
X19885415Y-11760557D01*
X19885415Y-11746271D01*
X19899701Y-11717700D01*
X19928273Y-11703414D01*
X19971130Y-11703414D01*
X19999701Y-11717700D01*
X20113987Y-12017700D02*
X20128273Y-12003414D01*
X20156844Y-11960557D01*
X20171130Y-11931986D01*
X20185415Y-11889129D01*
X20199701Y-11817700D01*
X20199701Y-11760557D01*
X20185415Y-11689129D01*
X20171130Y-11646271D01*
X20156844Y-11617700D01*
X20128273Y-11574843D01*
X20113987Y-11560557D01*
X13356844Y-12163700D02*
G75*
G03X13356844Y-12163700I-25000J0D01*
G01*
X13685415Y-11999414D02*
X13713987Y-11999414D01*
X13742558Y-12013700D01*
X13756844Y-12027986D01*
X13771130Y-12056557D01*
X13785415Y-12113700D01*
X13785415Y-12185129D01*
X13771130Y-12242271D01*
X13756844Y-12270843D01*
X13742558Y-12285129D01*
X13713987Y-12299414D01*
X13685415Y-12299414D01*
X13656844Y-12285129D01*
X13642558Y-12270843D01*
X13628272Y-12242271D01*
X13613987Y-12185129D01*
X13613987Y-12113700D01*
X13628272Y-12056557D01*
X13642558Y-12027986D01*
X13656844Y-12013700D01*
X13685415Y-11999414D01*
X13913987Y-12270843D02*
X13928272Y-12285129D01*
X13913987Y-12299414D01*
X13899701Y-12285129D01*
X13913987Y-12270843D01*
X13913987Y-12299414D01*
X14199701Y-11999414D02*
X14056844Y-11999414D01*
X14042558Y-12142271D01*
X14056844Y-12127986D01*
X14085415Y-12113700D01*
X14156844Y-12113700D01*
X14185415Y-12127986D01*
X14199701Y-12142271D01*
X14213987Y-12170843D01*
X14213987Y-12242271D01*
X14199701Y-12270843D01*
X14185415Y-12285129D01*
X14156844Y-12299414D01*
X14085415Y-12299414D01*
X14056844Y-12285129D01*
X14042558Y-12270843D01*
X14399701Y-11999414D02*
X14428272Y-11999414D01*
X14456844Y-12013700D01*
X14471130Y-12027986D01*
X14485415Y-12056557D01*
X14499701Y-12113700D01*
X14499701Y-12185129D01*
X14485415Y-12242271D01*
X14471130Y-12270843D01*
X14456844Y-12285129D01*
X14428272Y-12299414D01*
X14399701Y-12299414D01*
X14371130Y-12285129D01*
X14356844Y-12270843D01*
X14342558Y-12242271D01*
X14328272Y-12185129D01*
X14328272Y-12113700D01*
X14342558Y-12056557D01*
X14356844Y-12027986D01*
X14371130Y-12013700D01*
X14399701Y-11999414D01*
X14628272Y-12299414D02*
X14628272Y-12099414D01*
X14628272Y-12127986D02*
X14642558Y-12113700D01*
X14671130Y-12099414D01*
X14713987Y-12099414D01*
X14742558Y-12113700D01*
X14756844Y-12142271D01*
X14756844Y-12299414D01*
X14756844Y-12142271D02*
X14771130Y-12113700D01*
X14799701Y-12099414D01*
X14842558Y-12099414D01*
X14871130Y-12113700D01*
X14885415Y-12142271D01*
X14885415Y-12299414D01*
X15028272Y-12299414D02*
X15028272Y-12099414D01*
X15028272Y-12127986D02*
X15042558Y-12113700D01*
X15071130Y-12099414D01*
X15113987Y-12099414D01*
X15142558Y-12113700D01*
X15156844Y-12142271D01*
X15156844Y-12299414D01*
X15156844Y-12142271D02*
X15171130Y-12113700D01*
X15199701Y-12099414D01*
X15242558Y-12099414D01*
X15271130Y-12113700D01*
X15285415Y-12142271D01*
X15285415Y-12299414D01*
X15871130Y-11985129D02*
X15613987Y-12370843D01*
X16256844Y-11999414D02*
X16285415Y-11999414D01*
X16313987Y-12013700D01*
X16328272Y-12027986D01*
X16342558Y-12056557D01*
X16356844Y-12113700D01*
X16356844Y-12185129D01*
X16342558Y-12242271D01*
X16328272Y-12270843D01*
X16313987Y-12285129D01*
X16285415Y-12299414D01*
X16256844Y-12299414D01*
X16228272Y-12285129D01*
X16213987Y-12270843D01*
X16199701Y-12242271D01*
X16185415Y-12185129D01*
X16185415Y-12113700D01*
X16199701Y-12056557D01*
X16213987Y-12027986D01*
X16228272Y-12013700D01*
X16256844Y-11999414D01*
X16485415Y-12270843D02*
X16499701Y-12285129D01*
X16485415Y-12299414D01*
X16471130Y-12285129D01*
X16485415Y-12270843D01*
X16485415Y-12299414D01*
X16685415Y-11999414D02*
X16713987Y-11999414D01*
X16742558Y-12013700D01*
X16756844Y-12027986D01*
X16771129Y-12056557D01*
X16785415Y-12113700D01*
X16785415Y-12185129D01*
X16771129Y-12242271D01*
X16756844Y-12270843D01*
X16742558Y-12285129D01*
X16713987Y-12299414D01*
X16685415Y-12299414D01*
X16656844Y-12285129D01*
X16642558Y-12270843D01*
X16628272Y-12242271D01*
X16613987Y-12185129D01*
X16613987Y-12113700D01*
X16628272Y-12056557D01*
X16642558Y-12027986D01*
X16656844Y-12013700D01*
X16685415Y-11999414D01*
X16899701Y-12027986D02*
X16913987Y-12013700D01*
X16942558Y-11999414D01*
X17013987Y-11999414D01*
X17042558Y-12013700D01*
X17056844Y-12027986D01*
X17071130Y-12056557D01*
X17071130Y-12085129D01*
X17056844Y-12127986D01*
X16885415Y-12299414D01*
X17071130Y-12299414D01*
X17256844Y-11999414D02*
X17285415Y-11999414D01*
X17313987Y-12013700D01*
X17328272Y-12027986D01*
X17342558Y-12056557D01*
X17356844Y-12113700D01*
X17356844Y-12185129D01*
X17342558Y-12242271D01*
X17328272Y-12270843D01*
X17313987Y-12285129D01*
X17285415Y-12299414D01*
X17256844Y-12299414D01*
X17228272Y-12285129D01*
X17213987Y-12270843D01*
X17199701Y-12242271D01*
X17185415Y-12185129D01*
X17185415Y-12113700D01*
X17199701Y-12056557D01*
X17213987Y-12027986D01*
X17228272Y-12013700D01*
X17256844Y-11999414D01*
X17471130Y-11999414D02*
X17471130Y-12056557D01*
X17585415Y-11999414D02*
X17585415Y-12056557D01*
X18028272Y-12413700D02*
X18013987Y-12399414D01*
X17985415Y-12356557D01*
X17971130Y-12327986D01*
X17956844Y-12285129D01*
X17942558Y-12213700D01*
X17942558Y-12156557D01*
X17956844Y-12085129D01*
X17971130Y-12042271D01*
X17985415Y-12013700D01*
X18013987Y-11970843D01*
X18028272Y-11956557D01*
X18199701Y-11999414D02*
X18228272Y-11999414D01*
X18256844Y-12013700D01*
X18271130Y-12027986D01*
X18285415Y-12056557D01*
X18299701Y-12113700D01*
X18299701Y-12185129D01*
X18285415Y-12242271D01*
X18271130Y-12270843D01*
X18256844Y-12285129D01*
X18228272Y-12299414D01*
X18199701Y-12299414D01*
X18171130Y-12285129D01*
X18156844Y-12270843D01*
X18142558Y-12242271D01*
X18128272Y-12185129D01*
X18128272Y-12113700D01*
X18142558Y-12056557D01*
X18156844Y-12027986D01*
X18171130Y-12013700D01*
X18199701Y-11999414D01*
X18656844Y-12299414D02*
X18656844Y-11999414D01*
X18785415Y-12299414D02*
X18785415Y-12142271D01*
X18771130Y-12113700D01*
X18742558Y-12099414D01*
X18699701Y-12099414D01*
X18671130Y-12113700D01*
X18656844Y-12127986D01*
X18971130Y-12299414D02*
X18942558Y-12285129D01*
X18928272Y-12270843D01*
X18913987Y-12242271D01*
X18913987Y-12156557D01*
X18928272Y-12127986D01*
X18942558Y-12113700D01*
X18971130Y-12099414D01*
X19013987Y-12099414D01*
X19042558Y-12113700D01*
X19056844Y-12127986D01*
X19071130Y-12156557D01*
X19071130Y-12242271D01*
X19056844Y-12270843D01*
X19042558Y-12285129D01*
X19013987Y-12299414D01*
X18971130Y-12299414D01*
X19242558Y-12299414D02*
X19213987Y-12285129D01*
X19199701Y-12256557D01*
X19199701Y-11999414D01*
X19471130Y-12285129D02*
X19442558Y-12299414D01*
X19385415Y-12299414D01*
X19356844Y-12285129D01*
X19342558Y-12256557D01*
X19342558Y-12142271D01*
X19356844Y-12113700D01*
X19385415Y-12099414D01*
X19442558Y-12099414D01*
X19471130Y-12113700D01*
X19485415Y-12142271D01*
X19485415Y-12170843D01*
X19342558Y-12199414D01*
X19599701Y-12285129D02*
X19628273Y-12299414D01*
X19685415Y-12299414D01*
X19713987Y-12285129D01*
X19728273Y-12256557D01*
X19728273Y-12242271D01*
X19713987Y-12213700D01*
X19685415Y-12199414D01*
X19642558Y-12199414D01*
X19613987Y-12185129D01*
X19599701Y-12156557D01*
X19599701Y-12142271D01*
X19613987Y-12113700D01*
X19642558Y-12099414D01*
X19685415Y-12099414D01*
X19713987Y-12113700D01*
X20085415Y-12185129D02*
X20313987Y-12185129D01*
X20199701Y-12299414D02*
X20199701Y-12070843D01*
X20671130Y-12027986D02*
X20685415Y-12013700D01*
X20713987Y-11999414D01*
X20785415Y-11999414D01*
X20813987Y-12013700D01*
X20828272Y-12027986D01*
X20842558Y-12056557D01*
X20842558Y-12085129D01*
X20828272Y-12127986D01*
X20656844Y-12299414D01*
X20842558Y-12299414D01*
X21185415Y-12285129D02*
X21213987Y-12299414D01*
X21271130Y-12299414D01*
X21299701Y-12285129D01*
X21313987Y-12256557D01*
X21313987Y-12242271D01*
X21299701Y-12213700D01*
X21271130Y-12199414D01*
X21228272Y-12199414D01*
X21199701Y-12185129D01*
X21185415Y-12156557D01*
X21185415Y-12142271D01*
X21199701Y-12113700D01*
X21228272Y-12099414D01*
X21271130Y-12099414D01*
X21299701Y-12113700D01*
X21485415Y-12299414D02*
X21456844Y-12285129D01*
X21442558Y-12256557D01*
X21442558Y-11999414D01*
X21642558Y-12299414D02*
X21613987Y-12285129D01*
X21599701Y-12270843D01*
X21585415Y-12242271D01*
X21585415Y-12156557D01*
X21599701Y-12127986D01*
X21613987Y-12113700D01*
X21642558Y-12099414D01*
X21685415Y-12099414D01*
X21713987Y-12113700D01*
X21728272Y-12127986D01*
X21742558Y-12156557D01*
X21742558Y-12242271D01*
X21728272Y-12270843D01*
X21713987Y-12285129D01*
X21685415Y-12299414D01*
X21642558Y-12299414D01*
X21828272Y-12099414D02*
X21942558Y-12099414D01*
X21871130Y-11999414D02*
X21871130Y-12256557D01*
X21885415Y-12285129D01*
X21913987Y-12299414D01*
X21942558Y-12299414D01*
X22028273Y-12285129D02*
X22056844Y-12299414D01*
X22113987Y-12299414D01*
X22142558Y-12285129D01*
X22156844Y-12256557D01*
X22156844Y-12242271D01*
X22142558Y-12213700D01*
X22113987Y-12199414D01*
X22071130Y-12199414D01*
X22042558Y-12185129D01*
X22028273Y-12156557D01*
X22028273Y-12142271D01*
X22042558Y-12113700D01*
X22071130Y-12099414D01*
X22113987Y-12099414D01*
X22142558Y-12113700D01*
X22256844Y-12413700D02*
X22271130Y-12399414D01*
X22299701Y-12356557D01*
X22313987Y-12327986D01*
X22328272Y-12285129D01*
X22342558Y-12213700D01*
X22342558Y-12156557D01*
X22328272Y-12085129D01*
X22313987Y-12042271D01*
X22299701Y-12013700D01*
X22271130Y-11970843D01*
X22256844Y-11956557D01*
X13329344Y-12532200D02*
X13329344Y-12587200D01*
X13301844Y-12559700D02*
X13356844Y-12559700D01*
X13685415Y-12395414D02*
X13713987Y-12395414D01*
X13742558Y-12409700D01*
X13756844Y-12423986D01*
X13771130Y-12452557D01*
X13785415Y-12509700D01*
X13785415Y-12581129D01*
X13771130Y-12638271D01*
X13756844Y-12666843D01*
X13742558Y-12681129D01*
X13713987Y-12695414D01*
X13685415Y-12695414D01*
X13656844Y-12681129D01*
X13642558Y-12666843D01*
X13628272Y-12638271D01*
X13613987Y-12581129D01*
X13613987Y-12509700D01*
X13628272Y-12452557D01*
X13642558Y-12423986D01*
X13656844Y-12409700D01*
X13685415Y-12395414D01*
X13913987Y-12666843D02*
X13928272Y-12681129D01*
X13913987Y-12695414D01*
X13899701Y-12681129D01*
X13913987Y-12666843D01*
X13913987Y-12695414D01*
X14199701Y-12395414D02*
X14056844Y-12395414D01*
X14042558Y-12538271D01*
X14056844Y-12523986D01*
X14085415Y-12509700D01*
X14156844Y-12509700D01*
X14185415Y-12523986D01*
X14199701Y-12538271D01*
X14213987Y-12566843D01*
X14213987Y-12638271D01*
X14199701Y-12666843D01*
X14185415Y-12681129D01*
X14156844Y-12695414D01*
X14085415Y-12695414D01*
X14056844Y-12681129D01*
X14042558Y-12666843D01*
X14485415Y-12395414D02*
X14342558Y-12395414D01*
X14328272Y-12538271D01*
X14342558Y-12523986D01*
X14371130Y-12509700D01*
X14442558Y-12509700D01*
X14471130Y-12523986D01*
X14485415Y-12538271D01*
X14499701Y-12566843D01*
X14499701Y-12638271D01*
X14485415Y-12666843D01*
X14471130Y-12681129D01*
X14442558Y-12695414D01*
X14371130Y-12695414D01*
X14342558Y-12681129D01*
X14328272Y-12666843D01*
X14628272Y-12695414D02*
X14628272Y-12495414D01*
X14628272Y-12523986D02*
X14642558Y-12509700D01*
X14671130Y-12495414D01*
X14713987Y-12495414D01*
X14742558Y-12509700D01*
X14756844Y-12538271D01*
X14756844Y-12695414D01*
X14756844Y-12538271D02*
X14771130Y-12509700D01*
X14799701Y-12495414D01*
X14842558Y-12495414D01*
X14871130Y-12509700D01*
X14885415Y-12538271D01*
X14885415Y-12695414D01*
X15028272Y-12695414D02*
X15028272Y-12495414D01*
X15028272Y-12523986D02*
X15042558Y-12509700D01*
X15071130Y-12495414D01*
X15113987Y-12495414D01*
X15142558Y-12509700D01*
X15156844Y-12538271D01*
X15156844Y-12695414D01*
X15156844Y-12538271D02*
X15171130Y-12509700D01*
X15199701Y-12495414D01*
X15242558Y-12495414D01*
X15271130Y-12509700D01*
X15285415Y-12538271D01*
X15285415Y-12695414D01*
X15871130Y-12381129D02*
X15613987Y-12766843D01*
X16256844Y-12395414D02*
X16285415Y-12395414D01*
X16313987Y-12409700D01*
X16328272Y-12423986D01*
X16342558Y-12452557D01*
X16356844Y-12509700D01*
X16356844Y-12581129D01*
X16342558Y-12638271D01*
X16328272Y-12666843D01*
X16313987Y-12681129D01*
X16285415Y-12695414D01*
X16256844Y-12695414D01*
X16228272Y-12681129D01*
X16213987Y-12666843D01*
X16199701Y-12638271D01*
X16185415Y-12581129D01*
X16185415Y-12509700D01*
X16199701Y-12452557D01*
X16213987Y-12423986D01*
X16228272Y-12409700D01*
X16256844Y-12395414D01*
X16485415Y-12666843D02*
X16499701Y-12681129D01*
X16485415Y-12695414D01*
X16471130Y-12681129D01*
X16485415Y-12666843D01*
X16485415Y-12695414D01*
X16685415Y-12395414D02*
X16713987Y-12395414D01*
X16742558Y-12409700D01*
X16756844Y-12423986D01*
X16771129Y-12452557D01*
X16785415Y-12509700D01*
X16785415Y-12581129D01*
X16771129Y-12638271D01*
X16756844Y-12666843D01*
X16742558Y-12681129D01*
X16713987Y-12695414D01*
X16685415Y-12695414D01*
X16656844Y-12681129D01*
X16642558Y-12666843D01*
X16628272Y-12638271D01*
X16613987Y-12581129D01*
X16613987Y-12509700D01*
X16628272Y-12452557D01*
X16642558Y-12423986D01*
X16656844Y-12409700D01*
X16685415Y-12395414D01*
X16899701Y-12423986D02*
X16913987Y-12409700D01*
X16942558Y-12395414D01*
X17013987Y-12395414D01*
X17042558Y-12409700D01*
X17056844Y-12423986D01*
X17071130Y-12452557D01*
X17071130Y-12481129D01*
X17056844Y-12523986D01*
X16885415Y-12695414D01*
X17071130Y-12695414D01*
X17185415Y-12423986D02*
X17199701Y-12409700D01*
X17228272Y-12395414D01*
X17299701Y-12395414D01*
X17328272Y-12409700D01*
X17342558Y-12423986D01*
X17356844Y-12452557D01*
X17356844Y-12481129D01*
X17342558Y-12523986D01*
X17171130Y-12695414D01*
X17356844Y-12695414D01*
X17471130Y-12395414D02*
X17471130Y-12452557D01*
X17585415Y-12395414D02*
X17585415Y-12452557D01*
X18028272Y-12809700D02*
X18013987Y-12795414D01*
X17985415Y-12752557D01*
X17971130Y-12723986D01*
X17956844Y-12681129D01*
X17942558Y-12609700D01*
X17942558Y-12552557D01*
X17956844Y-12481129D01*
X17971130Y-12438271D01*
X17985415Y-12409700D01*
X18013987Y-12366843D01*
X18028272Y-12352557D01*
X18199701Y-12395414D02*
X18228272Y-12395414D01*
X18256844Y-12409700D01*
X18271130Y-12423986D01*
X18285415Y-12452557D01*
X18299701Y-12509700D01*
X18299701Y-12581129D01*
X18285415Y-12638271D01*
X18271130Y-12666843D01*
X18256844Y-12681129D01*
X18228272Y-12695414D01*
X18199701Y-12695414D01*
X18171130Y-12681129D01*
X18156844Y-12666843D01*
X18142558Y-12638271D01*
X18128272Y-12581129D01*
X18128272Y-12509700D01*
X18142558Y-12452557D01*
X18156844Y-12423986D01*
X18171130Y-12409700D01*
X18199701Y-12395414D01*
X18656844Y-12695414D02*
X18656844Y-12395414D01*
X18785415Y-12695414D02*
X18785415Y-12538271D01*
X18771130Y-12509700D01*
X18742558Y-12495414D01*
X18699701Y-12495414D01*
X18671130Y-12509700D01*
X18656844Y-12523986D01*
X18971130Y-12695414D02*
X18942558Y-12681129D01*
X18928272Y-12666843D01*
X18913987Y-12638271D01*
X18913987Y-12552557D01*
X18928272Y-12523986D01*
X18942558Y-12509700D01*
X18971130Y-12495414D01*
X19013987Y-12495414D01*
X19042558Y-12509700D01*
X19056844Y-12523986D01*
X19071130Y-12552557D01*
X19071130Y-12638271D01*
X19056844Y-12666843D01*
X19042558Y-12681129D01*
X19013987Y-12695414D01*
X18971130Y-12695414D01*
X19242558Y-12695414D02*
X19213987Y-12681129D01*
X19199701Y-12652557D01*
X19199701Y-12395414D01*
X19471130Y-12681129D02*
X19442558Y-12695414D01*
X19385415Y-12695414D01*
X19356844Y-12681129D01*
X19342558Y-12652557D01*
X19342558Y-12538271D01*
X19356844Y-12509700D01*
X19385415Y-12495414D01*
X19442558Y-12495414D01*
X19471130Y-12509700D01*
X19485415Y-12538271D01*
X19485415Y-12566843D01*
X19342558Y-12595414D01*
X19599701Y-12681129D02*
X19628273Y-12695414D01*
X19685415Y-12695414D01*
X19713987Y-12681129D01*
X19728273Y-12652557D01*
X19728273Y-12638271D01*
X19713987Y-12609700D01*
X19685415Y-12595414D01*
X19642558Y-12595414D01*
X19613987Y-12581129D01*
X19599701Y-12552557D01*
X19599701Y-12538271D01*
X19613987Y-12509700D01*
X19642558Y-12495414D01*
X19685415Y-12495414D01*
X19713987Y-12509700D01*
X20085415Y-12581129D02*
X20313987Y-12581129D01*
X20199701Y-12695414D02*
X20199701Y-12466843D01*
X20671130Y-12423986D02*
X20685415Y-12409700D01*
X20713987Y-12395414D01*
X20785415Y-12395414D01*
X20813987Y-12409700D01*
X20828272Y-12423986D01*
X20842558Y-12452557D01*
X20842558Y-12481129D01*
X20828272Y-12523986D01*
X20656844Y-12695414D01*
X20842558Y-12695414D01*
X21185415Y-12681129D02*
X21213987Y-12695414D01*
X21271130Y-12695414D01*
X21299701Y-12681129D01*
X21313987Y-12652557D01*
X21313987Y-12638271D01*
X21299701Y-12609700D01*
X21271130Y-12595414D01*
X21228272Y-12595414D01*
X21199701Y-12581129D01*
X21185415Y-12552557D01*
X21185415Y-12538271D01*
X21199701Y-12509700D01*
X21228272Y-12495414D01*
X21271130Y-12495414D01*
X21299701Y-12509700D01*
X21485415Y-12695414D02*
X21456844Y-12681129D01*
X21442558Y-12652557D01*
X21442558Y-12395414D01*
X21642558Y-12695414D02*
X21613987Y-12681129D01*
X21599701Y-12666843D01*
X21585415Y-12638271D01*
X21585415Y-12552557D01*
X21599701Y-12523986D01*
X21613987Y-12509700D01*
X21642558Y-12495414D01*
X21685415Y-12495414D01*
X21713987Y-12509700D01*
X21728272Y-12523986D01*
X21742558Y-12552557D01*
X21742558Y-12638271D01*
X21728272Y-12666843D01*
X21713987Y-12681129D01*
X21685415Y-12695414D01*
X21642558Y-12695414D01*
X21828272Y-12495414D02*
X21942558Y-12495414D01*
X21871130Y-12395414D02*
X21871130Y-12652557D01*
X21885415Y-12681129D01*
X21913987Y-12695414D01*
X21942558Y-12695414D01*
X22028273Y-12681129D02*
X22056844Y-12695414D01*
X22113987Y-12695414D01*
X22142558Y-12681129D01*
X22156844Y-12652557D01*
X22156844Y-12638271D01*
X22142558Y-12609700D01*
X22113987Y-12595414D01*
X22071130Y-12595414D01*
X22042558Y-12581129D01*
X22028273Y-12552557D01*
X22028273Y-12538271D01*
X22042558Y-12509700D01*
X22071130Y-12495414D01*
X22113987Y-12495414D01*
X22142558Y-12509700D01*
X22256844Y-12809700D02*
X22271130Y-12795414D01*
X22299701Y-12752557D01*
X22313987Y-12723986D01*
X22328272Y-12681129D01*
X22342558Y-12609700D01*
X22342558Y-12552557D01*
X22328272Y-12481129D01*
X22313987Y-12438271D01*
X22299701Y-12409700D01*
X22271130Y-12366843D01*
X22256844Y-12352557D01*
M02*
